G04 #@! TF.GenerationSoftware,KiCad,Pcbnew,(5.1.2)-1*
G04 #@! TF.CreationDate,2024-05-04T01:05:48+09:00*
G04 #@! TF.ProjectId,lf,6c662e6b-6963-4616-945f-706362585858,v1.1*
G04 #@! TF.SameCoordinates,Original*
G04 #@! TF.FileFunction,Soldermask,Bot*
G04 #@! TF.FilePolarity,Negative*
%FSLAX46Y46*%
G04 Gerber Fmt 4.6, Leading zero omitted, Abs format (unit mm)*
G04 Created by KiCad (PCBNEW (5.1.2)-1) date 2024-05-04 01:05:48*
%MOMM*%
%LPD*%
G04 APERTURE LIST*
%ADD10C,0.100000*%
G04 APERTURE END LIST*
D10*
G36*
X158229778Y-96148034D02*
G01*
X158327881Y-96188670D01*
X158466728Y-96246182D01*
X158679977Y-96388670D01*
X158861330Y-96570023D01*
X159003818Y-96783272D01*
X159019123Y-96820222D01*
X159101966Y-97020222D01*
X159152000Y-97271763D01*
X159152000Y-97528237D01*
X159101966Y-97779778D01*
X159044472Y-97918580D01*
X159003818Y-98016728D01*
X158861330Y-98229977D01*
X158679977Y-98411330D01*
X158466728Y-98553818D01*
X158368580Y-98594472D01*
X158229778Y-98651966D01*
X157978237Y-98702000D01*
X157721763Y-98702000D01*
X157470222Y-98651966D01*
X157331420Y-98594472D01*
X157233272Y-98553818D01*
X157020023Y-98411330D01*
X156838670Y-98229977D01*
X156696182Y-98016728D01*
X156655528Y-97918580D01*
X156598034Y-97779778D01*
X156548000Y-97528237D01*
X156548000Y-97271763D01*
X156598034Y-97020222D01*
X156680877Y-96820222D01*
X156696182Y-96783272D01*
X156838670Y-96570023D01*
X157020023Y-96388670D01*
X157233272Y-96246182D01*
X157372119Y-96188670D01*
X157470222Y-96148034D01*
X157721763Y-96098000D01*
X157978237Y-96098000D01*
X158229778Y-96148034D01*
X158229778Y-96148034D01*
G37*
G36*
X134529778Y-95948034D02*
G01*
X134668580Y-96005528D01*
X134766728Y-96046182D01*
X134979977Y-96188670D01*
X135161330Y-96370023D01*
X135303818Y-96583272D01*
X135303818Y-96583273D01*
X135401966Y-96820222D01*
X135452000Y-97071763D01*
X135452000Y-97328237D01*
X135401966Y-97579778D01*
X135344472Y-97718580D01*
X135303818Y-97816728D01*
X135161330Y-98029977D01*
X134979977Y-98211330D01*
X134766728Y-98353818D01*
X134668580Y-98394472D01*
X134529778Y-98451966D01*
X134278237Y-98502000D01*
X134021763Y-98502000D01*
X133770222Y-98451966D01*
X133631420Y-98394472D01*
X133533272Y-98353818D01*
X133320023Y-98211330D01*
X133138670Y-98029977D01*
X132996182Y-97816728D01*
X132955528Y-97718580D01*
X132898034Y-97579778D01*
X132848000Y-97328237D01*
X132848000Y-97071763D01*
X132898034Y-96820222D01*
X132996182Y-96583273D01*
X132996182Y-96583272D01*
X133138670Y-96370023D01*
X133320023Y-96188670D01*
X133533272Y-96046182D01*
X133631420Y-96005528D01*
X133770222Y-95948034D01*
X134021763Y-95898000D01*
X134278237Y-95898000D01*
X134529778Y-95948034D01*
X134529778Y-95948034D01*
G37*
G36*
X161275256Y-93756298D02*
G01*
X161381579Y-93777447D01*
X161682042Y-93901903D01*
X161952451Y-94082585D01*
X162182415Y-94312549D01*
X162182416Y-94312551D01*
X162363098Y-94582960D01*
X162487553Y-94883422D01*
X162551000Y-95202389D01*
X162551000Y-95527611D01*
X162508702Y-95740256D01*
X162487553Y-95846579D01*
X162363097Y-96147042D01*
X162182415Y-96417451D01*
X161952451Y-96647415D01*
X161682042Y-96828097D01*
X161381579Y-96952553D01*
X161275256Y-96973702D01*
X161062611Y-97016000D01*
X160737389Y-97016000D01*
X160524744Y-96973702D01*
X160418421Y-96952553D01*
X160117958Y-96828097D01*
X159847549Y-96647415D01*
X159617585Y-96417451D01*
X159436903Y-96147042D01*
X159312447Y-95846579D01*
X159291298Y-95740256D01*
X159249000Y-95527611D01*
X159249000Y-95202389D01*
X159312447Y-94883422D01*
X159436902Y-94582960D01*
X159617584Y-94312551D01*
X159617585Y-94312549D01*
X159847549Y-94082585D01*
X160117958Y-93901903D01*
X160418421Y-93777447D01*
X160524744Y-93756298D01*
X160737389Y-93714000D01*
X161062611Y-93714000D01*
X161275256Y-93756298D01*
X161275256Y-93756298D01*
G37*
G36*
X131475256Y-93556298D02*
G01*
X131581579Y-93577447D01*
X131882042Y-93701903D01*
X132152451Y-93882585D01*
X132382415Y-94112549D01*
X132563097Y-94382958D01*
X132645941Y-94582960D01*
X132687553Y-94683422D01*
X132727336Y-94883421D01*
X132751000Y-95002391D01*
X132751000Y-95327609D01*
X132687553Y-95646579D01*
X132563097Y-95947042D01*
X132382415Y-96217451D01*
X132152451Y-96447415D01*
X131882042Y-96628097D01*
X131581579Y-96752553D01*
X131475256Y-96773702D01*
X131262611Y-96816000D01*
X130937389Y-96816000D01*
X130724744Y-96773702D01*
X130618421Y-96752553D01*
X130317958Y-96628097D01*
X130047549Y-96447415D01*
X129817585Y-96217451D01*
X129636903Y-95947042D01*
X129512447Y-95646579D01*
X129449000Y-95327609D01*
X129449000Y-95002391D01*
X129472665Y-94883421D01*
X129512447Y-94683422D01*
X129554060Y-94582960D01*
X129636903Y-94382958D01*
X129817585Y-94112549D01*
X130047549Y-93882585D01*
X130317958Y-93701903D01*
X130618421Y-93577447D01*
X130724744Y-93556298D01*
X130937389Y-93514000D01*
X131262611Y-93514000D01*
X131475256Y-93556298D01*
X131475256Y-93556298D01*
G37*
G36*
X147466000Y-96741000D02*
G01*
X146604000Y-96741000D01*
X146604000Y-96129000D01*
X147466000Y-96129000D01*
X147466000Y-96741000D01*
X147466000Y-96741000D01*
G37*
G36*
X145796000Y-96741000D02*
G01*
X144934000Y-96741000D01*
X144934000Y-96129000D01*
X145796000Y-96129000D01*
X145796000Y-96741000D01*
X145796000Y-96741000D01*
G37*
G36*
X147466000Y-95871000D02*
G01*
X146604000Y-95871000D01*
X146604000Y-95259000D01*
X147466000Y-95259000D01*
X147466000Y-95871000D01*
X147466000Y-95871000D01*
G37*
G36*
X145796000Y-95871000D02*
G01*
X144934000Y-95871000D01*
X144934000Y-95259000D01*
X145796000Y-95259000D01*
X145796000Y-95871000D01*
X145796000Y-95871000D01*
G37*
G36*
X155356000Y-94901000D02*
G01*
X153744000Y-94901000D01*
X153744000Y-93289000D01*
X155356000Y-93289000D01*
X155356000Y-94901000D01*
X155356000Y-94901000D01*
G37*
G36*
X138256000Y-94701000D02*
G01*
X136644000Y-94701000D01*
X136644000Y-93089000D01*
X138256000Y-93089000D01*
X138256000Y-94701000D01*
X138256000Y-94701000D01*
G37*
G36*
X152245101Y-92049973D02*
G01*
X152391783Y-92110731D01*
X152420661Y-92130027D01*
X152523795Y-92198939D01*
X152636061Y-92311205D01*
X152636062Y-92311207D01*
X152724269Y-92443217D01*
X152785027Y-92589899D01*
X152816000Y-92745615D01*
X152816000Y-92904385D01*
X152785027Y-93060101D01*
X152724269Y-93206783D01*
X152724268Y-93206784D01*
X152636061Y-93338795D01*
X152523795Y-93451061D01*
X152457340Y-93495465D01*
X152391783Y-93539269D01*
X152245101Y-93600027D01*
X152089385Y-93631000D01*
X151930615Y-93631000D01*
X151774899Y-93600027D01*
X151628217Y-93539269D01*
X151562660Y-93495465D01*
X151496205Y-93451061D01*
X151383939Y-93338795D01*
X151295732Y-93206784D01*
X151295731Y-93206783D01*
X151234973Y-93060101D01*
X151204000Y-92904385D01*
X151204000Y-92745615D01*
X151234973Y-92589899D01*
X151295731Y-92443217D01*
X151383938Y-92311207D01*
X151383939Y-92311205D01*
X151496205Y-92198939D01*
X151599339Y-92130027D01*
X151628217Y-92110731D01*
X151774899Y-92049973D01*
X151930615Y-92019000D01*
X152089385Y-92019000D01*
X152245101Y-92049973D01*
X152245101Y-92049973D01*
G37*
G36*
X140225101Y-91849973D02*
G01*
X140371783Y-91910731D01*
X140371784Y-91910732D01*
X140503795Y-91998939D01*
X140616061Y-92111205D01*
X140616062Y-92111207D01*
X140704269Y-92243217D01*
X140765027Y-92389899D01*
X140796000Y-92545615D01*
X140796000Y-92704385D01*
X140765027Y-92860101D01*
X140704269Y-93006783D01*
X140704268Y-93006784D01*
X140616061Y-93138795D01*
X140503795Y-93251061D01*
X140447015Y-93289000D01*
X140371783Y-93339269D01*
X140225101Y-93400027D01*
X140069385Y-93431000D01*
X139910615Y-93431000D01*
X139754899Y-93400027D01*
X139608217Y-93339269D01*
X139532985Y-93289000D01*
X139476205Y-93251061D01*
X139363939Y-93138795D01*
X139275732Y-93006784D01*
X139275731Y-93006783D01*
X139214973Y-92860101D01*
X139184000Y-92704385D01*
X139184000Y-92545615D01*
X139214973Y-92389899D01*
X139275731Y-92243217D01*
X139363938Y-92111207D01*
X139363939Y-92111205D01*
X139476205Y-91998939D01*
X139608216Y-91910732D01*
X139608217Y-91910731D01*
X139754899Y-91849973D01*
X139910615Y-91819000D01*
X140069385Y-91819000D01*
X140225101Y-91849973D01*
X140225101Y-91849973D01*
G37*
G36*
X154785101Y-90779973D02*
G01*
X154931783Y-90840731D01*
X154960661Y-90860027D01*
X155063795Y-90928939D01*
X155176061Y-91041205D01*
X155176062Y-91041207D01*
X155264269Y-91173217D01*
X155325027Y-91319899D01*
X155356000Y-91475615D01*
X155356000Y-91634385D01*
X155325027Y-91790101D01*
X155264269Y-91936783D01*
X155264268Y-91936784D01*
X155176061Y-92068795D01*
X155063795Y-92181061D01*
X154997340Y-92225465D01*
X154931783Y-92269269D01*
X154785101Y-92330027D01*
X154629385Y-92361000D01*
X154470615Y-92361000D01*
X154314899Y-92330027D01*
X154168217Y-92269269D01*
X154102660Y-92225465D01*
X154036205Y-92181061D01*
X153923939Y-92068795D01*
X153835732Y-91936784D01*
X153835731Y-91936783D01*
X153774973Y-91790101D01*
X153744000Y-91634385D01*
X153744000Y-91475615D01*
X153774973Y-91319899D01*
X153835731Y-91173217D01*
X153923938Y-91041207D01*
X153923939Y-91041205D01*
X154036205Y-90928939D01*
X154139339Y-90860027D01*
X154168217Y-90840731D01*
X154314899Y-90779973D01*
X154470615Y-90749000D01*
X154629385Y-90749000D01*
X154785101Y-90779973D01*
X154785101Y-90779973D01*
G37*
G36*
X137685101Y-90579973D02*
G01*
X137831783Y-90640731D01*
X137831784Y-90640732D01*
X137963795Y-90728939D01*
X138076061Y-90841205D01*
X138076062Y-90841207D01*
X138164269Y-90973217D01*
X138225027Y-91119899D01*
X138256000Y-91275615D01*
X138256000Y-91434385D01*
X138225027Y-91590101D01*
X138164269Y-91736783D01*
X138164268Y-91736784D01*
X138076061Y-91868795D01*
X137963795Y-91981061D01*
X137907015Y-92019000D01*
X137831783Y-92069269D01*
X137685101Y-92130027D01*
X137529385Y-92161000D01*
X137370615Y-92161000D01*
X137214899Y-92130027D01*
X137068217Y-92069269D01*
X136992985Y-92019000D01*
X136936205Y-91981061D01*
X136823939Y-91868795D01*
X136735732Y-91736784D01*
X136735731Y-91736783D01*
X136674973Y-91590101D01*
X136644000Y-91434385D01*
X136644000Y-91275615D01*
X136674973Y-91119899D01*
X136735731Y-90973217D01*
X136823938Y-90841207D01*
X136823939Y-90841205D01*
X136936205Y-90728939D01*
X137068216Y-90640732D01*
X137068217Y-90640731D01*
X137214899Y-90579973D01*
X137370615Y-90549000D01*
X137529385Y-90549000D01*
X137685101Y-90579973D01*
X137685101Y-90579973D01*
G37*
G36*
X152245101Y-89509973D02*
G01*
X152391783Y-89570731D01*
X152420661Y-89590027D01*
X152523795Y-89658939D01*
X152636061Y-89771205D01*
X152636062Y-89771207D01*
X152724269Y-89903217D01*
X152785027Y-90049899D01*
X152816000Y-90205615D01*
X152816000Y-90364385D01*
X152785027Y-90520101D01*
X152724269Y-90666783D01*
X152724268Y-90666784D01*
X152636061Y-90798795D01*
X152523795Y-90911061D01*
X152457340Y-90955465D01*
X152391783Y-90999269D01*
X152245101Y-91060027D01*
X152089385Y-91091000D01*
X151930615Y-91091000D01*
X151774899Y-91060027D01*
X151628217Y-90999269D01*
X151562660Y-90955465D01*
X151496205Y-90911061D01*
X151383939Y-90798795D01*
X151295732Y-90666784D01*
X151295731Y-90666783D01*
X151234973Y-90520101D01*
X151204000Y-90364385D01*
X151204000Y-90205615D01*
X151234973Y-90049899D01*
X151295731Y-89903217D01*
X151383938Y-89771207D01*
X151383939Y-89771205D01*
X151496205Y-89658939D01*
X151599339Y-89590027D01*
X151628217Y-89570731D01*
X151774899Y-89509973D01*
X151930615Y-89479000D01*
X152089385Y-89479000D01*
X152245101Y-89509973D01*
X152245101Y-89509973D01*
G37*
G36*
X140225101Y-89309973D02*
G01*
X140371783Y-89370731D01*
X140371784Y-89370732D01*
X140503795Y-89458939D01*
X140616061Y-89571205D01*
X140616062Y-89571207D01*
X140704269Y-89703217D01*
X140765027Y-89849899D01*
X140796000Y-90005615D01*
X140796000Y-90164385D01*
X140765027Y-90320101D01*
X140704269Y-90466783D01*
X140704268Y-90466784D01*
X140616061Y-90598795D01*
X140503795Y-90711061D01*
X140447015Y-90749000D01*
X140371783Y-90799269D01*
X140225101Y-90860027D01*
X140069385Y-90891000D01*
X139910615Y-90891000D01*
X139754899Y-90860027D01*
X139608217Y-90799269D01*
X139532985Y-90749000D01*
X139476205Y-90711061D01*
X139363939Y-90598795D01*
X139275732Y-90466784D01*
X139275731Y-90466783D01*
X139214973Y-90320101D01*
X139184000Y-90164385D01*
X139184000Y-90005615D01*
X139214973Y-89849899D01*
X139275731Y-89703217D01*
X139363938Y-89571207D01*
X139363939Y-89571205D01*
X139476205Y-89458939D01*
X139608216Y-89370732D01*
X139608217Y-89370731D01*
X139754899Y-89309973D01*
X139910615Y-89279000D01*
X140069385Y-89279000D01*
X140225101Y-89309973D01*
X140225101Y-89309973D01*
G37*
G36*
X154785101Y-88239973D02*
G01*
X154931783Y-88300731D01*
X154960661Y-88320027D01*
X155063795Y-88388939D01*
X155176061Y-88501205D01*
X155176062Y-88501207D01*
X155264269Y-88633217D01*
X155325027Y-88779899D01*
X155356000Y-88935615D01*
X155356000Y-89094385D01*
X155325027Y-89250101D01*
X155264269Y-89396783D01*
X155264268Y-89396784D01*
X155176061Y-89528795D01*
X155063795Y-89641061D01*
X154997340Y-89685465D01*
X154931783Y-89729269D01*
X154785101Y-89790027D01*
X154629385Y-89821000D01*
X154470615Y-89821000D01*
X154314899Y-89790027D01*
X154168217Y-89729269D01*
X154102660Y-89685465D01*
X154036205Y-89641061D01*
X153923939Y-89528795D01*
X153835732Y-89396784D01*
X153835731Y-89396783D01*
X153774973Y-89250101D01*
X153744000Y-89094385D01*
X153744000Y-88935615D01*
X153774973Y-88779899D01*
X153835731Y-88633217D01*
X153923938Y-88501207D01*
X153923939Y-88501205D01*
X154036205Y-88388939D01*
X154139339Y-88320027D01*
X154168217Y-88300731D01*
X154314899Y-88239973D01*
X154470615Y-88209000D01*
X154629385Y-88209000D01*
X154785101Y-88239973D01*
X154785101Y-88239973D01*
G37*
G36*
X137685101Y-88039973D02*
G01*
X137831783Y-88100731D01*
X137831784Y-88100732D01*
X137963795Y-88188939D01*
X138076061Y-88301205D01*
X138076062Y-88301207D01*
X138164269Y-88433217D01*
X138225027Y-88579899D01*
X138256000Y-88735615D01*
X138256000Y-88894385D01*
X138225027Y-89050101D01*
X138164269Y-89196783D01*
X138164268Y-89196784D01*
X138076061Y-89328795D01*
X137963795Y-89441061D01*
X137907015Y-89479000D01*
X137831783Y-89529269D01*
X137685101Y-89590027D01*
X137529385Y-89621000D01*
X137370615Y-89621000D01*
X137214899Y-89590027D01*
X137068217Y-89529269D01*
X136992985Y-89479000D01*
X136936205Y-89441061D01*
X136823939Y-89328795D01*
X136735732Y-89196784D01*
X136735731Y-89196783D01*
X136674973Y-89050101D01*
X136644000Y-88894385D01*
X136644000Y-88735615D01*
X136674973Y-88579899D01*
X136735731Y-88433217D01*
X136823938Y-88301207D01*
X136823939Y-88301205D01*
X136936205Y-88188939D01*
X137068216Y-88100732D01*
X137068217Y-88100731D01*
X137214899Y-88039973D01*
X137370615Y-88009000D01*
X137529385Y-88009000D01*
X137685101Y-88039973D01*
X137685101Y-88039973D01*
G37*
G36*
X152245101Y-86969973D02*
G01*
X152391783Y-87030731D01*
X152420661Y-87050027D01*
X152523795Y-87118939D01*
X152636061Y-87231205D01*
X152636062Y-87231207D01*
X152724269Y-87363217D01*
X152785027Y-87509899D01*
X152816000Y-87665615D01*
X152816000Y-87824385D01*
X152785027Y-87980101D01*
X152724269Y-88126783D01*
X152724268Y-88126784D01*
X152636061Y-88258795D01*
X152523795Y-88371061D01*
X152457340Y-88415465D01*
X152391783Y-88459269D01*
X152245101Y-88520027D01*
X152089385Y-88551000D01*
X151930615Y-88551000D01*
X151774899Y-88520027D01*
X151628217Y-88459269D01*
X151562660Y-88415465D01*
X151496205Y-88371061D01*
X151383939Y-88258795D01*
X151295732Y-88126784D01*
X151295731Y-88126783D01*
X151234973Y-87980101D01*
X151204000Y-87824385D01*
X151204000Y-87665615D01*
X151234973Y-87509899D01*
X151295731Y-87363217D01*
X151383938Y-87231207D01*
X151383939Y-87231205D01*
X151496205Y-87118939D01*
X151599339Y-87050027D01*
X151628217Y-87030731D01*
X151774899Y-86969973D01*
X151930615Y-86939000D01*
X152089385Y-86939000D01*
X152245101Y-86969973D01*
X152245101Y-86969973D01*
G37*
G36*
X140225101Y-86769973D02*
G01*
X140371783Y-86830731D01*
X140371784Y-86830732D01*
X140503795Y-86918939D01*
X140616061Y-87031205D01*
X140616062Y-87031207D01*
X140704269Y-87163217D01*
X140765027Y-87309899D01*
X140796000Y-87465615D01*
X140796000Y-87624385D01*
X140765027Y-87780101D01*
X140704269Y-87926783D01*
X140704268Y-87926784D01*
X140616061Y-88058795D01*
X140503795Y-88171061D01*
X140447015Y-88209000D01*
X140371783Y-88259269D01*
X140225101Y-88320027D01*
X140069385Y-88351000D01*
X139910615Y-88351000D01*
X139754899Y-88320027D01*
X139608217Y-88259269D01*
X139532985Y-88209000D01*
X139476205Y-88171061D01*
X139363939Y-88058795D01*
X139275732Y-87926784D01*
X139275731Y-87926783D01*
X139214973Y-87780101D01*
X139184000Y-87624385D01*
X139184000Y-87465615D01*
X139214973Y-87309899D01*
X139275731Y-87163217D01*
X139363938Y-87031207D01*
X139363939Y-87031205D01*
X139476205Y-86918939D01*
X139608216Y-86830732D01*
X139608217Y-86830731D01*
X139754899Y-86769973D01*
X139910615Y-86739000D01*
X140069385Y-86739000D01*
X140225101Y-86769973D01*
X140225101Y-86769973D01*
G37*
G36*
X154785101Y-85699973D02*
G01*
X154931783Y-85760731D01*
X154960661Y-85780027D01*
X155063795Y-85848939D01*
X155176061Y-85961205D01*
X155176062Y-85961207D01*
X155264269Y-86093217D01*
X155325027Y-86239899D01*
X155356000Y-86395615D01*
X155356000Y-86554385D01*
X155325027Y-86710101D01*
X155264269Y-86856783D01*
X155264268Y-86856784D01*
X155176061Y-86988795D01*
X155063795Y-87101061D01*
X154997340Y-87145465D01*
X154931783Y-87189269D01*
X154785101Y-87250027D01*
X154629385Y-87281000D01*
X154470615Y-87281000D01*
X154314899Y-87250027D01*
X154168217Y-87189269D01*
X154102660Y-87145465D01*
X154036205Y-87101061D01*
X153923939Y-86988795D01*
X153835732Y-86856784D01*
X153835731Y-86856783D01*
X153774973Y-86710101D01*
X153744000Y-86554385D01*
X153744000Y-86395615D01*
X153774973Y-86239899D01*
X153835731Y-86093217D01*
X153923938Y-85961207D01*
X153923939Y-85961205D01*
X154036205Y-85848939D01*
X154139339Y-85780027D01*
X154168217Y-85760731D01*
X154314899Y-85699973D01*
X154470615Y-85669000D01*
X154629385Y-85669000D01*
X154785101Y-85699973D01*
X154785101Y-85699973D01*
G37*
G36*
X137685101Y-85499973D02*
G01*
X137831783Y-85560731D01*
X137831784Y-85560732D01*
X137963795Y-85648939D01*
X138076061Y-85761205D01*
X138076062Y-85761207D01*
X138164269Y-85893217D01*
X138225027Y-86039899D01*
X138256000Y-86195615D01*
X138256000Y-86354385D01*
X138225027Y-86510101D01*
X138164269Y-86656783D01*
X138164268Y-86656784D01*
X138076061Y-86788795D01*
X137963795Y-86901061D01*
X137907015Y-86939000D01*
X137831783Y-86989269D01*
X137685101Y-87050027D01*
X137529385Y-87081000D01*
X137370615Y-87081000D01*
X137214899Y-87050027D01*
X137068217Y-86989269D01*
X136992985Y-86939000D01*
X136936205Y-86901061D01*
X136823939Y-86788795D01*
X136735732Y-86656784D01*
X136735731Y-86656783D01*
X136674973Y-86510101D01*
X136644000Y-86354385D01*
X136644000Y-86195615D01*
X136674973Y-86039899D01*
X136735731Y-85893217D01*
X136823938Y-85761207D01*
X136823939Y-85761205D01*
X136936205Y-85648939D01*
X137068216Y-85560732D01*
X137068217Y-85560731D01*
X137214899Y-85499973D01*
X137370615Y-85469000D01*
X137529385Y-85469000D01*
X137685101Y-85499973D01*
X137685101Y-85499973D01*
G37*
G36*
X147466000Y-86741000D02*
G01*
X146604000Y-86741000D01*
X146604000Y-86129000D01*
X147466000Y-86129000D01*
X147466000Y-86741000D01*
X147466000Y-86741000D01*
G37*
G36*
X145796000Y-86741000D02*
G01*
X144934000Y-86741000D01*
X144934000Y-86129000D01*
X145796000Y-86129000D01*
X145796000Y-86741000D01*
X145796000Y-86741000D01*
G37*
G36*
X152245101Y-84429973D02*
G01*
X152391783Y-84490731D01*
X152391784Y-84490732D01*
X152523795Y-84578939D01*
X152636061Y-84691205D01*
X152636062Y-84691207D01*
X152724269Y-84823217D01*
X152785027Y-84969899D01*
X152816000Y-85125615D01*
X152816000Y-85284385D01*
X152785027Y-85440101D01*
X152724269Y-85586783D01*
X152724268Y-85586784D01*
X152636061Y-85718795D01*
X152523795Y-85831061D01*
X152492293Y-85852110D01*
X152391783Y-85919269D01*
X152245101Y-85980027D01*
X152089385Y-86011000D01*
X151930615Y-86011000D01*
X151774899Y-85980027D01*
X151628217Y-85919269D01*
X151527707Y-85852110D01*
X151496205Y-85831061D01*
X151383939Y-85718795D01*
X151295732Y-85586784D01*
X151295731Y-85586783D01*
X151234973Y-85440101D01*
X151204000Y-85284385D01*
X151204000Y-85125615D01*
X151234973Y-84969899D01*
X151295731Y-84823217D01*
X151383938Y-84691207D01*
X151383939Y-84691205D01*
X151496205Y-84578939D01*
X151628216Y-84490732D01*
X151628217Y-84490731D01*
X151774899Y-84429973D01*
X151930615Y-84399000D01*
X152089385Y-84399000D01*
X152245101Y-84429973D01*
X152245101Y-84429973D01*
G37*
G36*
X145796000Y-85871000D02*
G01*
X144934000Y-85871000D01*
X144934000Y-85259000D01*
X145796000Y-85259000D01*
X145796000Y-85871000D01*
X145796000Y-85871000D01*
G37*
G36*
X147466000Y-85871000D02*
G01*
X146604000Y-85871000D01*
X146604000Y-85259000D01*
X147466000Y-85259000D01*
X147466000Y-85871000D01*
X147466000Y-85871000D01*
G37*
G36*
X140225101Y-84229973D02*
G01*
X140371783Y-84290731D01*
X140371784Y-84290732D01*
X140503795Y-84378939D01*
X140616061Y-84491205D01*
X140616062Y-84491207D01*
X140704269Y-84623217D01*
X140765027Y-84769899D01*
X140796000Y-84925615D01*
X140796000Y-85084385D01*
X140765027Y-85240101D01*
X140704269Y-85386783D01*
X140704268Y-85386784D01*
X140616061Y-85518795D01*
X140503795Y-85631061D01*
X140447015Y-85669000D01*
X140371783Y-85719269D01*
X140225101Y-85780027D01*
X140069385Y-85811000D01*
X139910615Y-85811000D01*
X139754899Y-85780027D01*
X139608217Y-85719269D01*
X139532985Y-85669000D01*
X139476205Y-85631061D01*
X139363939Y-85518795D01*
X139275732Y-85386784D01*
X139275731Y-85386783D01*
X139214973Y-85240101D01*
X139184000Y-85084385D01*
X139184000Y-84925615D01*
X139214973Y-84769899D01*
X139275731Y-84623217D01*
X139363938Y-84491207D01*
X139363939Y-84491205D01*
X139476205Y-84378939D01*
X139608216Y-84290732D01*
X139608217Y-84290731D01*
X139754899Y-84229973D01*
X139910615Y-84199000D01*
X140069385Y-84199000D01*
X140225101Y-84229973D01*
X140225101Y-84229973D01*
G37*
G36*
X161227139Y-82316727D02*
G01*
X161381579Y-82347447D01*
X161682042Y-82471903D01*
X161952451Y-82652585D01*
X162182415Y-82882549D01*
X162362433Y-83151965D01*
X162363098Y-83152960D01*
X162487553Y-83453422D01*
X162551000Y-83772389D01*
X162551000Y-84097611D01*
X162508702Y-84310256D01*
X162487553Y-84416579D01*
X162363097Y-84717042D01*
X162182415Y-84987451D01*
X161952451Y-85217415D01*
X161682042Y-85398097D01*
X161381579Y-85522553D01*
X161275256Y-85543702D01*
X161062611Y-85586000D01*
X160737389Y-85586000D01*
X160524744Y-85543702D01*
X160418421Y-85522553D01*
X160117958Y-85398097D01*
X159847549Y-85217415D01*
X159617585Y-84987451D01*
X159436903Y-84717042D01*
X159312447Y-84416579D01*
X159291298Y-84310256D01*
X159249000Y-84097611D01*
X159249000Y-83772389D01*
X159312447Y-83453422D01*
X159436902Y-83152960D01*
X159437567Y-83151965D01*
X159617585Y-82882549D01*
X159847549Y-82652585D01*
X160117958Y-82471903D01*
X160418421Y-82347447D01*
X160572861Y-82316727D01*
X160737389Y-82284000D01*
X161062611Y-82284000D01*
X161227139Y-82316727D01*
X161227139Y-82316727D01*
G37*
G36*
X131475256Y-82126298D02*
G01*
X131581579Y-82147447D01*
X131882042Y-82271903D01*
X132152451Y-82452585D01*
X132382415Y-82682549D01*
X132563097Y-82952958D01*
X132666254Y-83202000D01*
X132687553Y-83253422D01*
X132727336Y-83453421D01*
X132751000Y-83572391D01*
X132751000Y-83897609D01*
X132687553Y-84216579D01*
X132656838Y-84290731D01*
X132573996Y-84490731D01*
X132563097Y-84517042D01*
X132382415Y-84787451D01*
X132152451Y-85017415D01*
X131882042Y-85198097D01*
X131581579Y-85322553D01*
X131475256Y-85343702D01*
X131262611Y-85386000D01*
X130937389Y-85386000D01*
X130724744Y-85343702D01*
X130618421Y-85322553D01*
X130317958Y-85198097D01*
X130047549Y-85017415D01*
X129817585Y-84787451D01*
X129636903Y-84517042D01*
X129626005Y-84490731D01*
X129543162Y-84290731D01*
X129512447Y-84216579D01*
X129449000Y-83897609D01*
X129449000Y-83572391D01*
X129472665Y-83453421D01*
X129512447Y-83253422D01*
X129533747Y-83202000D01*
X129636903Y-82952958D01*
X129817585Y-82682549D01*
X130047549Y-82452585D01*
X130317958Y-82271903D01*
X130618421Y-82147447D01*
X130724744Y-82126298D01*
X130937389Y-82084000D01*
X131262611Y-82084000D01*
X131475256Y-82126298D01*
X131475256Y-82126298D01*
G37*
G36*
X158229778Y-80648034D02*
G01*
X158327881Y-80688670D01*
X158466728Y-80746182D01*
X158679977Y-80888670D01*
X158861330Y-81070023D01*
X159003818Y-81283272D01*
X159019123Y-81320222D01*
X159101966Y-81520222D01*
X159152000Y-81771763D01*
X159152000Y-82028237D01*
X159101966Y-82279778D01*
X159073936Y-82347447D01*
X159003818Y-82516728D01*
X158861330Y-82729977D01*
X158679977Y-82911330D01*
X158466728Y-83053818D01*
X158368580Y-83094472D01*
X158229778Y-83151966D01*
X157978237Y-83202000D01*
X157721763Y-83202000D01*
X157470222Y-83151966D01*
X157331420Y-83094472D01*
X157233272Y-83053818D01*
X157020023Y-82911330D01*
X156838670Y-82729977D01*
X156696182Y-82516728D01*
X156626064Y-82347447D01*
X156598034Y-82279778D01*
X156548000Y-82028237D01*
X156548000Y-81771763D01*
X156598034Y-81520222D01*
X156680877Y-81320222D01*
X156696182Y-81283272D01*
X156838670Y-81070023D01*
X157020023Y-80888670D01*
X157233272Y-80746182D01*
X157372119Y-80688670D01*
X157470222Y-80648034D01*
X157721763Y-80598000D01*
X157978237Y-80598000D01*
X158229778Y-80648034D01*
X158229778Y-80648034D01*
G37*
G36*
X134529778Y-80448034D02*
G01*
X134668580Y-80505528D01*
X134766728Y-80546182D01*
X134979977Y-80688670D01*
X135161330Y-80870023D01*
X135303818Y-81083272D01*
X135303818Y-81083273D01*
X135401966Y-81320222D01*
X135452000Y-81571763D01*
X135452000Y-81828237D01*
X135401966Y-82079778D01*
X135400217Y-82084000D01*
X135303818Y-82316728D01*
X135161330Y-82529977D01*
X134979977Y-82711330D01*
X134766728Y-82853818D01*
X134697365Y-82882549D01*
X134529778Y-82951966D01*
X134278237Y-83002000D01*
X134021763Y-83002000D01*
X133770222Y-82951966D01*
X133602635Y-82882549D01*
X133533272Y-82853818D01*
X133320023Y-82711330D01*
X133138670Y-82529977D01*
X132996182Y-82316728D01*
X132899783Y-82084000D01*
X132898034Y-82079778D01*
X132848000Y-81828237D01*
X132848000Y-81571763D01*
X132898034Y-81320222D01*
X132996182Y-81083273D01*
X132996182Y-81083272D01*
X133138670Y-80870023D01*
X133320023Y-80688670D01*
X133533272Y-80546182D01*
X133631420Y-80505528D01*
X133770222Y-80448034D01*
X134021763Y-80398000D01*
X134278237Y-80398000D01*
X134529778Y-80448034D01*
X134529778Y-80448034D01*
G37*
M02*
