G04 #@! TF.GenerationSoftware,KiCad,Pcbnew,(5.1.2)-1*
G04 #@! TF.CreationDate,2024-05-04T01:05:48+09:00*
G04 #@! TF.ProjectId,lf,6c662e6b-6963-4616-945f-706362585858,v1.1*
G04 #@! TF.SameCoordinates,Original*
G04 #@! TF.FileFunction,Legend,Bot*
G04 #@! TF.FilePolarity,Positive*
%FSLAX46Y46*%
G04 Gerber Fmt 4.6, Leading zero omitted, Abs format (unit mm)*
G04 Created by KiCad (PCBNEW (5.1.2)-1) date 2024-05-04 01:05:48*
%MOMM*%
%LPD*%
G04 APERTURE LIST*
%ADD10C,0.100000*%
%ADD11C,0.200000*%
%ADD12C,0.127000*%
%ADD13C,0.150000*%
%ADD14C,0.612000*%
%ADD15C,2.604000*%
%ADD16C,3.302000*%
%ADD17C,1.612000*%
%ADD18R,1.612000X1.612000*%
G04 APERTURE END LIST*
D10*
X147215000Y-85110000D02*
X145185000Y-85110000D01*
X147570000Y-86890000D02*
X145185000Y-86890000D01*
X147215000Y-95110000D02*
X145185000Y-95110000D01*
X147570000Y-96890000D02*
X145185000Y-96890000D01*
D11*
X137550000Y-99150000D02*
G75*
G03X137550000Y-99150000I-100000J0D01*
G01*
D12*
X120300000Y-81500000D02*
X120300000Y-97400000D01*
X141500000Y-97400000D02*
X141500000Y-81500000D01*
X120300000Y-97400000D02*
X132630000Y-97400000D01*
X135670000Y-97400000D02*
X141500000Y-97400000D01*
X120300000Y-81500000D02*
X132630000Y-81500000D01*
X141500000Y-81500000D02*
X135670000Y-81500000D01*
D13*
X146838095Y-84228571D02*
X147171428Y-84228571D01*
X147171428Y-84752380D02*
X147171428Y-83752380D01*
X146695238Y-83752380D01*
X145838095Y-84752380D02*
X146314285Y-84752380D01*
X146314285Y-83752380D01*
X145600000Y-83752380D02*
X144980952Y-83752380D01*
X145314285Y-84133333D01*
X145171428Y-84133333D01*
X145076190Y-84180952D01*
X145028571Y-84228571D01*
X144980952Y-84323809D01*
X144980952Y-84561904D01*
X145028571Y-84657142D01*
X145076190Y-84704761D01*
X145171428Y-84752380D01*
X145457142Y-84752380D01*
X145552380Y-84704761D01*
X145600000Y-84657142D01*
X146838095Y-97728571D02*
X147171428Y-97728571D01*
X147171428Y-98252380D02*
X147171428Y-97252380D01*
X146695238Y-97252380D01*
X145838095Y-98252380D02*
X146314285Y-98252380D01*
X146314285Y-97252380D01*
X144980952Y-98252380D02*
X145552380Y-98252380D01*
X145266666Y-98252380D02*
X145266666Y-97252380D01*
X145361904Y-97395238D01*
X145457142Y-97490476D01*
X145552380Y-97538095D01*
%LPC*%
D10*
G36*
X147438399Y-85259147D02*
G01*
X147441370Y-85259588D01*
X147444283Y-85260318D01*
X147447110Y-85261329D01*
X147449825Y-85262613D01*
X147452400Y-85264157D01*
X147454812Y-85265946D01*
X147457037Y-85267963D01*
X147459054Y-85270188D01*
X147460843Y-85272600D01*
X147462387Y-85275175D01*
X147463671Y-85277890D01*
X147464682Y-85280717D01*
X147465412Y-85283630D01*
X147465853Y-85286601D01*
X147466000Y-85289600D01*
X147466000Y-85840400D01*
X147465853Y-85843399D01*
X147465412Y-85846370D01*
X147464682Y-85849283D01*
X147463671Y-85852110D01*
X147462387Y-85854825D01*
X147460843Y-85857400D01*
X147459054Y-85859812D01*
X147457037Y-85862037D01*
X147454812Y-85864054D01*
X147452400Y-85865843D01*
X147449825Y-85867387D01*
X147447110Y-85868671D01*
X147444283Y-85869682D01*
X147441370Y-85870412D01*
X147438399Y-85870853D01*
X147435400Y-85871000D01*
X146634600Y-85871000D01*
X146631601Y-85870853D01*
X146628630Y-85870412D01*
X146625717Y-85869682D01*
X146622890Y-85868671D01*
X146620175Y-85867387D01*
X146617600Y-85865843D01*
X146615188Y-85864054D01*
X146612963Y-85862037D01*
X146610946Y-85859812D01*
X146609157Y-85857400D01*
X146607613Y-85854825D01*
X146606329Y-85852110D01*
X146605318Y-85849283D01*
X146604588Y-85846370D01*
X146604147Y-85843399D01*
X146604000Y-85840400D01*
X146604000Y-85289600D01*
X146604147Y-85286601D01*
X146604588Y-85283630D01*
X146605318Y-85280717D01*
X146606329Y-85277890D01*
X146607613Y-85275175D01*
X146609157Y-85272600D01*
X146610946Y-85270188D01*
X146612963Y-85267963D01*
X146615188Y-85265946D01*
X146617600Y-85264157D01*
X146620175Y-85262613D01*
X146622890Y-85261329D01*
X146625717Y-85260318D01*
X146628630Y-85259588D01*
X146631601Y-85259147D01*
X146634600Y-85259000D01*
X147435400Y-85259000D01*
X147438399Y-85259147D01*
X147438399Y-85259147D01*
G37*
D14*
X147035000Y-85565000D03*
D10*
G36*
X145768399Y-85259147D02*
G01*
X145771370Y-85259588D01*
X145774283Y-85260318D01*
X145777110Y-85261329D01*
X145779825Y-85262613D01*
X145782400Y-85264157D01*
X145784812Y-85265946D01*
X145787037Y-85267963D01*
X145789054Y-85270188D01*
X145790843Y-85272600D01*
X145792387Y-85275175D01*
X145793671Y-85277890D01*
X145794682Y-85280717D01*
X145795412Y-85283630D01*
X145795853Y-85286601D01*
X145796000Y-85289600D01*
X145796000Y-85840400D01*
X145795853Y-85843399D01*
X145795412Y-85846370D01*
X145794682Y-85849283D01*
X145793671Y-85852110D01*
X145792387Y-85854825D01*
X145790843Y-85857400D01*
X145789054Y-85859812D01*
X145787037Y-85862037D01*
X145784812Y-85864054D01*
X145782400Y-85865843D01*
X145779825Y-85867387D01*
X145777110Y-85868671D01*
X145774283Y-85869682D01*
X145771370Y-85870412D01*
X145768399Y-85870853D01*
X145765400Y-85871000D01*
X144964600Y-85871000D01*
X144961601Y-85870853D01*
X144958630Y-85870412D01*
X144955717Y-85869682D01*
X144952890Y-85868671D01*
X144950175Y-85867387D01*
X144947600Y-85865843D01*
X144945188Y-85864054D01*
X144942963Y-85862037D01*
X144940946Y-85859812D01*
X144939157Y-85857400D01*
X144937613Y-85854825D01*
X144936329Y-85852110D01*
X144935318Y-85849283D01*
X144934588Y-85846370D01*
X144934147Y-85843399D01*
X144934000Y-85840400D01*
X144934000Y-85289600D01*
X144934147Y-85286601D01*
X144934588Y-85283630D01*
X144935318Y-85280717D01*
X144936329Y-85277890D01*
X144937613Y-85275175D01*
X144939157Y-85272600D01*
X144940946Y-85270188D01*
X144942963Y-85267963D01*
X144945188Y-85265946D01*
X144947600Y-85264157D01*
X144950175Y-85262613D01*
X144952890Y-85261329D01*
X144955717Y-85260318D01*
X144958630Y-85259588D01*
X144961601Y-85259147D01*
X144964600Y-85259000D01*
X145765400Y-85259000D01*
X145768399Y-85259147D01*
X145768399Y-85259147D01*
G37*
D14*
X145365000Y-85565000D03*
D10*
G36*
X145768399Y-86129147D02*
G01*
X145771370Y-86129588D01*
X145774283Y-86130318D01*
X145777110Y-86131329D01*
X145779825Y-86132613D01*
X145782400Y-86134157D01*
X145784812Y-86135946D01*
X145787037Y-86137963D01*
X145789054Y-86140188D01*
X145790843Y-86142600D01*
X145792387Y-86145175D01*
X145793671Y-86147890D01*
X145794682Y-86150717D01*
X145795412Y-86153630D01*
X145795853Y-86156601D01*
X145796000Y-86159600D01*
X145796000Y-86710400D01*
X145795853Y-86713399D01*
X145795412Y-86716370D01*
X145794682Y-86719283D01*
X145793671Y-86722110D01*
X145792387Y-86724825D01*
X145790843Y-86727400D01*
X145789054Y-86729812D01*
X145787037Y-86732037D01*
X145784812Y-86734054D01*
X145782400Y-86735843D01*
X145779825Y-86737387D01*
X145777110Y-86738671D01*
X145774283Y-86739682D01*
X145771370Y-86740412D01*
X145768399Y-86740853D01*
X145765400Y-86741000D01*
X144964600Y-86741000D01*
X144961601Y-86740853D01*
X144958630Y-86740412D01*
X144955717Y-86739682D01*
X144952890Y-86738671D01*
X144950175Y-86737387D01*
X144947600Y-86735843D01*
X144945188Y-86734054D01*
X144942963Y-86732037D01*
X144940946Y-86729812D01*
X144939157Y-86727400D01*
X144937613Y-86724825D01*
X144936329Y-86722110D01*
X144935318Y-86719283D01*
X144934588Y-86716370D01*
X144934147Y-86713399D01*
X144934000Y-86710400D01*
X144934000Y-86159600D01*
X144934147Y-86156601D01*
X144934588Y-86153630D01*
X144935318Y-86150717D01*
X144936329Y-86147890D01*
X144937613Y-86145175D01*
X144939157Y-86142600D01*
X144940946Y-86140188D01*
X144942963Y-86137963D01*
X144945188Y-86135946D01*
X144947600Y-86134157D01*
X144950175Y-86132613D01*
X144952890Y-86131329D01*
X144955717Y-86130318D01*
X144958630Y-86129588D01*
X144961601Y-86129147D01*
X144964600Y-86129000D01*
X145765400Y-86129000D01*
X145768399Y-86129147D01*
X145768399Y-86129147D01*
G37*
D14*
X145365000Y-86435000D03*
D10*
G36*
X147438399Y-86129147D02*
G01*
X147441370Y-86129588D01*
X147444283Y-86130318D01*
X147447110Y-86131329D01*
X147449825Y-86132613D01*
X147452400Y-86134157D01*
X147454812Y-86135946D01*
X147457037Y-86137963D01*
X147459054Y-86140188D01*
X147460843Y-86142600D01*
X147462387Y-86145175D01*
X147463671Y-86147890D01*
X147464682Y-86150717D01*
X147465412Y-86153630D01*
X147465853Y-86156601D01*
X147466000Y-86159600D01*
X147466000Y-86710400D01*
X147465853Y-86713399D01*
X147465412Y-86716370D01*
X147464682Y-86719283D01*
X147463671Y-86722110D01*
X147462387Y-86724825D01*
X147460843Y-86727400D01*
X147459054Y-86729812D01*
X147457037Y-86732037D01*
X147454812Y-86734054D01*
X147452400Y-86735843D01*
X147449825Y-86737387D01*
X147447110Y-86738671D01*
X147444283Y-86739682D01*
X147441370Y-86740412D01*
X147438399Y-86740853D01*
X147435400Y-86741000D01*
X146634600Y-86741000D01*
X146631601Y-86740853D01*
X146628630Y-86740412D01*
X146625717Y-86739682D01*
X146622890Y-86738671D01*
X146620175Y-86737387D01*
X146617600Y-86735843D01*
X146615188Y-86734054D01*
X146612963Y-86732037D01*
X146610946Y-86729812D01*
X146609157Y-86727400D01*
X146607613Y-86724825D01*
X146606329Y-86722110D01*
X146605318Y-86719283D01*
X146604588Y-86716370D01*
X146604147Y-86713399D01*
X146604000Y-86710400D01*
X146604000Y-86159600D01*
X146604147Y-86156601D01*
X146604588Y-86153630D01*
X146605318Y-86150717D01*
X146606329Y-86147890D01*
X146607613Y-86145175D01*
X146609157Y-86142600D01*
X146610946Y-86140188D01*
X146612963Y-86137963D01*
X146615188Y-86135946D01*
X146617600Y-86134157D01*
X146620175Y-86132613D01*
X146622890Y-86131329D01*
X146625717Y-86130318D01*
X146628630Y-86129588D01*
X146631601Y-86129147D01*
X146634600Y-86129000D01*
X147435400Y-86129000D01*
X147438399Y-86129147D01*
X147438399Y-86129147D01*
G37*
D14*
X147035000Y-86435000D03*
D10*
G36*
X147438399Y-95259147D02*
G01*
X147441370Y-95259588D01*
X147444283Y-95260318D01*
X147447110Y-95261329D01*
X147449825Y-95262613D01*
X147452400Y-95264157D01*
X147454812Y-95265946D01*
X147457037Y-95267963D01*
X147459054Y-95270188D01*
X147460843Y-95272600D01*
X147462387Y-95275175D01*
X147463671Y-95277890D01*
X147464682Y-95280717D01*
X147465412Y-95283630D01*
X147465853Y-95286601D01*
X147466000Y-95289600D01*
X147466000Y-95840400D01*
X147465853Y-95843399D01*
X147465412Y-95846370D01*
X147464682Y-95849283D01*
X147463671Y-95852110D01*
X147462387Y-95854825D01*
X147460843Y-95857400D01*
X147459054Y-95859812D01*
X147457037Y-95862037D01*
X147454812Y-95864054D01*
X147452400Y-95865843D01*
X147449825Y-95867387D01*
X147447110Y-95868671D01*
X147444283Y-95869682D01*
X147441370Y-95870412D01*
X147438399Y-95870853D01*
X147435400Y-95871000D01*
X146634600Y-95871000D01*
X146631601Y-95870853D01*
X146628630Y-95870412D01*
X146625717Y-95869682D01*
X146622890Y-95868671D01*
X146620175Y-95867387D01*
X146617600Y-95865843D01*
X146615188Y-95864054D01*
X146612963Y-95862037D01*
X146610946Y-95859812D01*
X146609157Y-95857400D01*
X146607613Y-95854825D01*
X146606329Y-95852110D01*
X146605318Y-95849283D01*
X146604588Y-95846370D01*
X146604147Y-95843399D01*
X146604000Y-95840400D01*
X146604000Y-95289600D01*
X146604147Y-95286601D01*
X146604588Y-95283630D01*
X146605318Y-95280717D01*
X146606329Y-95277890D01*
X146607613Y-95275175D01*
X146609157Y-95272600D01*
X146610946Y-95270188D01*
X146612963Y-95267963D01*
X146615188Y-95265946D01*
X146617600Y-95264157D01*
X146620175Y-95262613D01*
X146622890Y-95261329D01*
X146625717Y-95260318D01*
X146628630Y-95259588D01*
X146631601Y-95259147D01*
X146634600Y-95259000D01*
X147435400Y-95259000D01*
X147438399Y-95259147D01*
X147438399Y-95259147D01*
G37*
D14*
X147035000Y-95565000D03*
D10*
G36*
X145768399Y-95259147D02*
G01*
X145771370Y-95259588D01*
X145774283Y-95260318D01*
X145777110Y-95261329D01*
X145779825Y-95262613D01*
X145782400Y-95264157D01*
X145784812Y-95265946D01*
X145787037Y-95267963D01*
X145789054Y-95270188D01*
X145790843Y-95272600D01*
X145792387Y-95275175D01*
X145793671Y-95277890D01*
X145794682Y-95280717D01*
X145795412Y-95283630D01*
X145795853Y-95286601D01*
X145796000Y-95289600D01*
X145796000Y-95840400D01*
X145795853Y-95843399D01*
X145795412Y-95846370D01*
X145794682Y-95849283D01*
X145793671Y-95852110D01*
X145792387Y-95854825D01*
X145790843Y-95857400D01*
X145789054Y-95859812D01*
X145787037Y-95862037D01*
X145784812Y-95864054D01*
X145782400Y-95865843D01*
X145779825Y-95867387D01*
X145777110Y-95868671D01*
X145774283Y-95869682D01*
X145771370Y-95870412D01*
X145768399Y-95870853D01*
X145765400Y-95871000D01*
X144964600Y-95871000D01*
X144961601Y-95870853D01*
X144958630Y-95870412D01*
X144955717Y-95869682D01*
X144952890Y-95868671D01*
X144950175Y-95867387D01*
X144947600Y-95865843D01*
X144945188Y-95864054D01*
X144942963Y-95862037D01*
X144940946Y-95859812D01*
X144939157Y-95857400D01*
X144937613Y-95854825D01*
X144936329Y-95852110D01*
X144935318Y-95849283D01*
X144934588Y-95846370D01*
X144934147Y-95843399D01*
X144934000Y-95840400D01*
X144934000Y-95289600D01*
X144934147Y-95286601D01*
X144934588Y-95283630D01*
X144935318Y-95280717D01*
X144936329Y-95277890D01*
X144937613Y-95275175D01*
X144939157Y-95272600D01*
X144940946Y-95270188D01*
X144942963Y-95267963D01*
X144945188Y-95265946D01*
X144947600Y-95264157D01*
X144950175Y-95262613D01*
X144952890Y-95261329D01*
X144955717Y-95260318D01*
X144958630Y-95259588D01*
X144961601Y-95259147D01*
X144964600Y-95259000D01*
X145765400Y-95259000D01*
X145768399Y-95259147D01*
X145768399Y-95259147D01*
G37*
D14*
X145365000Y-95565000D03*
D10*
G36*
X145768399Y-96129147D02*
G01*
X145771370Y-96129588D01*
X145774283Y-96130318D01*
X145777110Y-96131329D01*
X145779825Y-96132613D01*
X145782400Y-96134157D01*
X145784812Y-96135946D01*
X145787037Y-96137963D01*
X145789054Y-96140188D01*
X145790843Y-96142600D01*
X145792387Y-96145175D01*
X145793671Y-96147890D01*
X145794682Y-96150717D01*
X145795412Y-96153630D01*
X145795853Y-96156601D01*
X145796000Y-96159600D01*
X145796000Y-96710400D01*
X145795853Y-96713399D01*
X145795412Y-96716370D01*
X145794682Y-96719283D01*
X145793671Y-96722110D01*
X145792387Y-96724825D01*
X145790843Y-96727400D01*
X145789054Y-96729812D01*
X145787037Y-96732037D01*
X145784812Y-96734054D01*
X145782400Y-96735843D01*
X145779825Y-96737387D01*
X145777110Y-96738671D01*
X145774283Y-96739682D01*
X145771370Y-96740412D01*
X145768399Y-96740853D01*
X145765400Y-96741000D01*
X144964600Y-96741000D01*
X144961601Y-96740853D01*
X144958630Y-96740412D01*
X144955717Y-96739682D01*
X144952890Y-96738671D01*
X144950175Y-96737387D01*
X144947600Y-96735843D01*
X144945188Y-96734054D01*
X144942963Y-96732037D01*
X144940946Y-96729812D01*
X144939157Y-96727400D01*
X144937613Y-96724825D01*
X144936329Y-96722110D01*
X144935318Y-96719283D01*
X144934588Y-96716370D01*
X144934147Y-96713399D01*
X144934000Y-96710400D01*
X144934000Y-96159600D01*
X144934147Y-96156601D01*
X144934588Y-96153630D01*
X144935318Y-96150717D01*
X144936329Y-96147890D01*
X144937613Y-96145175D01*
X144939157Y-96142600D01*
X144940946Y-96140188D01*
X144942963Y-96137963D01*
X144945188Y-96135946D01*
X144947600Y-96134157D01*
X144950175Y-96132613D01*
X144952890Y-96131329D01*
X144955717Y-96130318D01*
X144958630Y-96129588D01*
X144961601Y-96129147D01*
X144964600Y-96129000D01*
X145765400Y-96129000D01*
X145768399Y-96129147D01*
X145768399Y-96129147D01*
G37*
D14*
X145365000Y-96435000D03*
D10*
G36*
X147438399Y-96129147D02*
G01*
X147441370Y-96129588D01*
X147444283Y-96130318D01*
X147447110Y-96131329D01*
X147449825Y-96132613D01*
X147452400Y-96134157D01*
X147454812Y-96135946D01*
X147457037Y-96137963D01*
X147459054Y-96140188D01*
X147460843Y-96142600D01*
X147462387Y-96145175D01*
X147463671Y-96147890D01*
X147464682Y-96150717D01*
X147465412Y-96153630D01*
X147465853Y-96156601D01*
X147466000Y-96159600D01*
X147466000Y-96710400D01*
X147465853Y-96713399D01*
X147465412Y-96716370D01*
X147464682Y-96719283D01*
X147463671Y-96722110D01*
X147462387Y-96724825D01*
X147460843Y-96727400D01*
X147459054Y-96729812D01*
X147457037Y-96732037D01*
X147454812Y-96734054D01*
X147452400Y-96735843D01*
X147449825Y-96737387D01*
X147447110Y-96738671D01*
X147444283Y-96739682D01*
X147441370Y-96740412D01*
X147438399Y-96740853D01*
X147435400Y-96741000D01*
X146634600Y-96741000D01*
X146631601Y-96740853D01*
X146628630Y-96740412D01*
X146625717Y-96739682D01*
X146622890Y-96738671D01*
X146620175Y-96737387D01*
X146617600Y-96735843D01*
X146615188Y-96734054D01*
X146612963Y-96732037D01*
X146610946Y-96729812D01*
X146609157Y-96727400D01*
X146607613Y-96724825D01*
X146606329Y-96722110D01*
X146605318Y-96719283D01*
X146604588Y-96716370D01*
X146604147Y-96713399D01*
X146604000Y-96710400D01*
X146604000Y-96159600D01*
X146604147Y-96156601D01*
X146604588Y-96153630D01*
X146605318Y-96150717D01*
X146606329Y-96147890D01*
X146607613Y-96145175D01*
X146609157Y-96142600D01*
X146610946Y-96140188D01*
X146612963Y-96137963D01*
X146615188Y-96135946D01*
X146617600Y-96134157D01*
X146620175Y-96132613D01*
X146622890Y-96131329D01*
X146625717Y-96130318D01*
X146628630Y-96129588D01*
X146631601Y-96129147D01*
X146634600Y-96129000D01*
X147435400Y-96129000D01*
X147438399Y-96129147D01*
X147438399Y-96129147D01*
G37*
D14*
X147035000Y-96435000D03*
D15*
X157850000Y-81900000D03*
X157850000Y-97400000D03*
D16*
X160900000Y-83935000D03*
X160900000Y-95365000D03*
D17*
X152010000Y-92825000D03*
X152010000Y-85205000D03*
X152010000Y-87745000D03*
X152010000Y-90285000D03*
X154550000Y-86475000D03*
X154550000Y-89015000D03*
X154550000Y-91555000D03*
D18*
X154550000Y-94095000D03*
D15*
X134150000Y-81700000D03*
X134150000Y-97200000D03*
D16*
X131100000Y-83735000D03*
X131100000Y-95165000D03*
D17*
X139990000Y-92625000D03*
X139990000Y-85005000D03*
X139990000Y-87545000D03*
X139990000Y-90085000D03*
X137450000Y-86275000D03*
X137450000Y-88815000D03*
X137450000Y-91355000D03*
D18*
X137450000Y-93895000D03*
M02*
