G04 #@! TF.GenerationSoftware,KiCad,Pcbnew,(5.1.2)-1*
G04 #@! TF.CreationDate,2024-05-04T01:05:48+09:00*
G04 #@! TF.ProjectId,lf,6c662e6b-6963-4616-945f-706362585858,v1.1*
G04 #@! TF.SameCoordinates,Original*
G04 #@! TF.FileFunction,Copper,L2,Bot*
G04 #@! TF.FilePolarity,Positive*
%FSLAX46Y46*%
G04 Gerber Fmt 4.6, Leading zero omitted, Abs format (unit mm)*
G04 Created by KiCad (PCBNEW (5.1.2)-1) date 2024-05-04 01:05:48*
%MOMM*%
%LPD*%
G04 APERTURE LIST*
%ADD10C,0.100000*%
%ADD11C,0.510000*%
%ADD12C,2.400000*%
%ADD13C,1.408000*%
%ADD14R,1.408000X1.408000*%
%ADD15C,0.800000*%
%ADD16C,0.260000*%
%ADD17C,0.254000*%
%ADD18C,0.025400*%
G04 APERTURE END LIST*
D10*
G36*
X147391999Y-85310123D02*
G01*
X147394475Y-85310490D01*
X147396902Y-85311098D01*
X147399258Y-85311941D01*
X147401521Y-85313011D01*
X147403667Y-85314298D01*
X147405677Y-85315788D01*
X147407531Y-85317469D01*
X147409212Y-85319323D01*
X147410702Y-85321333D01*
X147411989Y-85323479D01*
X147413059Y-85325742D01*
X147413902Y-85328098D01*
X147414510Y-85330525D01*
X147414877Y-85333001D01*
X147415000Y-85335500D01*
X147415000Y-85794500D01*
X147414877Y-85796999D01*
X147414510Y-85799475D01*
X147413902Y-85801902D01*
X147413059Y-85804258D01*
X147411989Y-85806521D01*
X147410702Y-85808667D01*
X147409212Y-85810677D01*
X147407531Y-85812531D01*
X147405677Y-85814212D01*
X147403667Y-85815702D01*
X147401521Y-85816989D01*
X147399258Y-85818059D01*
X147396902Y-85818902D01*
X147394475Y-85819510D01*
X147391999Y-85819877D01*
X147389500Y-85820000D01*
X146680500Y-85820000D01*
X146678001Y-85819877D01*
X146675525Y-85819510D01*
X146673098Y-85818902D01*
X146670742Y-85818059D01*
X146668479Y-85816989D01*
X146666333Y-85815702D01*
X146664323Y-85814212D01*
X146662469Y-85812531D01*
X146660788Y-85810677D01*
X146659298Y-85808667D01*
X146658011Y-85806521D01*
X146656941Y-85804258D01*
X146656098Y-85801902D01*
X146655490Y-85799475D01*
X146655123Y-85796999D01*
X146655000Y-85794500D01*
X146655000Y-85335500D01*
X146655123Y-85333001D01*
X146655490Y-85330525D01*
X146656098Y-85328098D01*
X146656941Y-85325742D01*
X146658011Y-85323479D01*
X146659298Y-85321333D01*
X146660788Y-85319323D01*
X146662469Y-85317469D01*
X146664323Y-85315788D01*
X146666333Y-85314298D01*
X146668479Y-85313011D01*
X146670742Y-85311941D01*
X146673098Y-85311098D01*
X146675525Y-85310490D01*
X146678001Y-85310123D01*
X146680500Y-85310000D01*
X147389500Y-85310000D01*
X147391999Y-85310123D01*
X147391999Y-85310123D01*
G37*
D11*
X147035000Y-85565000D03*
D10*
G36*
X145721999Y-85310123D02*
G01*
X145724475Y-85310490D01*
X145726902Y-85311098D01*
X145729258Y-85311941D01*
X145731521Y-85313011D01*
X145733667Y-85314298D01*
X145735677Y-85315788D01*
X145737531Y-85317469D01*
X145739212Y-85319323D01*
X145740702Y-85321333D01*
X145741989Y-85323479D01*
X145743059Y-85325742D01*
X145743902Y-85328098D01*
X145744510Y-85330525D01*
X145744877Y-85333001D01*
X145745000Y-85335500D01*
X145745000Y-85794500D01*
X145744877Y-85796999D01*
X145744510Y-85799475D01*
X145743902Y-85801902D01*
X145743059Y-85804258D01*
X145741989Y-85806521D01*
X145740702Y-85808667D01*
X145739212Y-85810677D01*
X145737531Y-85812531D01*
X145735677Y-85814212D01*
X145733667Y-85815702D01*
X145731521Y-85816989D01*
X145729258Y-85818059D01*
X145726902Y-85818902D01*
X145724475Y-85819510D01*
X145721999Y-85819877D01*
X145719500Y-85820000D01*
X145010500Y-85820000D01*
X145008001Y-85819877D01*
X145005525Y-85819510D01*
X145003098Y-85818902D01*
X145000742Y-85818059D01*
X144998479Y-85816989D01*
X144996333Y-85815702D01*
X144994323Y-85814212D01*
X144992469Y-85812531D01*
X144990788Y-85810677D01*
X144989298Y-85808667D01*
X144988011Y-85806521D01*
X144986941Y-85804258D01*
X144986098Y-85801902D01*
X144985490Y-85799475D01*
X144985123Y-85796999D01*
X144985000Y-85794500D01*
X144985000Y-85335500D01*
X144985123Y-85333001D01*
X144985490Y-85330525D01*
X144986098Y-85328098D01*
X144986941Y-85325742D01*
X144988011Y-85323479D01*
X144989298Y-85321333D01*
X144990788Y-85319323D01*
X144992469Y-85317469D01*
X144994323Y-85315788D01*
X144996333Y-85314298D01*
X144998479Y-85313011D01*
X145000742Y-85311941D01*
X145003098Y-85311098D01*
X145005525Y-85310490D01*
X145008001Y-85310123D01*
X145010500Y-85310000D01*
X145719500Y-85310000D01*
X145721999Y-85310123D01*
X145721999Y-85310123D01*
G37*
D11*
X145365000Y-85565000D03*
D10*
G36*
X145721999Y-86180123D02*
G01*
X145724475Y-86180490D01*
X145726902Y-86181098D01*
X145729258Y-86181941D01*
X145731521Y-86183011D01*
X145733667Y-86184298D01*
X145735677Y-86185788D01*
X145737531Y-86187469D01*
X145739212Y-86189323D01*
X145740702Y-86191333D01*
X145741989Y-86193479D01*
X145743059Y-86195742D01*
X145743902Y-86198098D01*
X145744510Y-86200525D01*
X145744877Y-86203001D01*
X145745000Y-86205500D01*
X145745000Y-86664500D01*
X145744877Y-86666999D01*
X145744510Y-86669475D01*
X145743902Y-86671902D01*
X145743059Y-86674258D01*
X145741989Y-86676521D01*
X145740702Y-86678667D01*
X145739212Y-86680677D01*
X145737531Y-86682531D01*
X145735677Y-86684212D01*
X145733667Y-86685702D01*
X145731521Y-86686989D01*
X145729258Y-86688059D01*
X145726902Y-86688902D01*
X145724475Y-86689510D01*
X145721999Y-86689877D01*
X145719500Y-86690000D01*
X145010500Y-86690000D01*
X145008001Y-86689877D01*
X145005525Y-86689510D01*
X145003098Y-86688902D01*
X145000742Y-86688059D01*
X144998479Y-86686989D01*
X144996333Y-86685702D01*
X144994323Y-86684212D01*
X144992469Y-86682531D01*
X144990788Y-86680677D01*
X144989298Y-86678667D01*
X144988011Y-86676521D01*
X144986941Y-86674258D01*
X144986098Y-86671902D01*
X144985490Y-86669475D01*
X144985123Y-86666999D01*
X144985000Y-86664500D01*
X144985000Y-86205500D01*
X144985123Y-86203001D01*
X144985490Y-86200525D01*
X144986098Y-86198098D01*
X144986941Y-86195742D01*
X144988011Y-86193479D01*
X144989298Y-86191333D01*
X144990788Y-86189323D01*
X144992469Y-86187469D01*
X144994323Y-86185788D01*
X144996333Y-86184298D01*
X144998479Y-86183011D01*
X145000742Y-86181941D01*
X145003098Y-86181098D01*
X145005525Y-86180490D01*
X145008001Y-86180123D01*
X145010500Y-86180000D01*
X145719500Y-86180000D01*
X145721999Y-86180123D01*
X145721999Y-86180123D01*
G37*
D11*
X145365000Y-86435000D03*
D10*
G36*
X147391999Y-86180123D02*
G01*
X147394475Y-86180490D01*
X147396902Y-86181098D01*
X147399258Y-86181941D01*
X147401521Y-86183011D01*
X147403667Y-86184298D01*
X147405677Y-86185788D01*
X147407531Y-86187469D01*
X147409212Y-86189323D01*
X147410702Y-86191333D01*
X147411989Y-86193479D01*
X147413059Y-86195742D01*
X147413902Y-86198098D01*
X147414510Y-86200525D01*
X147414877Y-86203001D01*
X147415000Y-86205500D01*
X147415000Y-86664500D01*
X147414877Y-86666999D01*
X147414510Y-86669475D01*
X147413902Y-86671902D01*
X147413059Y-86674258D01*
X147411989Y-86676521D01*
X147410702Y-86678667D01*
X147409212Y-86680677D01*
X147407531Y-86682531D01*
X147405677Y-86684212D01*
X147403667Y-86685702D01*
X147401521Y-86686989D01*
X147399258Y-86688059D01*
X147396902Y-86688902D01*
X147394475Y-86689510D01*
X147391999Y-86689877D01*
X147389500Y-86690000D01*
X146680500Y-86690000D01*
X146678001Y-86689877D01*
X146675525Y-86689510D01*
X146673098Y-86688902D01*
X146670742Y-86688059D01*
X146668479Y-86686989D01*
X146666333Y-86685702D01*
X146664323Y-86684212D01*
X146662469Y-86682531D01*
X146660788Y-86680677D01*
X146659298Y-86678667D01*
X146658011Y-86676521D01*
X146656941Y-86674258D01*
X146656098Y-86671902D01*
X146655490Y-86669475D01*
X146655123Y-86666999D01*
X146655000Y-86664500D01*
X146655000Y-86205500D01*
X146655123Y-86203001D01*
X146655490Y-86200525D01*
X146656098Y-86198098D01*
X146656941Y-86195742D01*
X146658011Y-86193479D01*
X146659298Y-86191333D01*
X146660788Y-86189323D01*
X146662469Y-86187469D01*
X146664323Y-86185788D01*
X146666333Y-86184298D01*
X146668479Y-86183011D01*
X146670742Y-86181941D01*
X146673098Y-86181098D01*
X146675525Y-86180490D01*
X146678001Y-86180123D01*
X146680500Y-86180000D01*
X147389500Y-86180000D01*
X147391999Y-86180123D01*
X147391999Y-86180123D01*
G37*
D11*
X147035000Y-86435000D03*
D10*
G36*
X147391999Y-95310123D02*
G01*
X147394475Y-95310490D01*
X147396902Y-95311098D01*
X147399258Y-95311941D01*
X147401521Y-95313011D01*
X147403667Y-95314298D01*
X147405677Y-95315788D01*
X147407531Y-95317469D01*
X147409212Y-95319323D01*
X147410702Y-95321333D01*
X147411989Y-95323479D01*
X147413059Y-95325742D01*
X147413902Y-95328098D01*
X147414510Y-95330525D01*
X147414877Y-95333001D01*
X147415000Y-95335500D01*
X147415000Y-95794500D01*
X147414877Y-95796999D01*
X147414510Y-95799475D01*
X147413902Y-95801902D01*
X147413059Y-95804258D01*
X147411989Y-95806521D01*
X147410702Y-95808667D01*
X147409212Y-95810677D01*
X147407531Y-95812531D01*
X147405677Y-95814212D01*
X147403667Y-95815702D01*
X147401521Y-95816989D01*
X147399258Y-95818059D01*
X147396902Y-95818902D01*
X147394475Y-95819510D01*
X147391999Y-95819877D01*
X147389500Y-95820000D01*
X146680500Y-95820000D01*
X146678001Y-95819877D01*
X146675525Y-95819510D01*
X146673098Y-95818902D01*
X146670742Y-95818059D01*
X146668479Y-95816989D01*
X146666333Y-95815702D01*
X146664323Y-95814212D01*
X146662469Y-95812531D01*
X146660788Y-95810677D01*
X146659298Y-95808667D01*
X146658011Y-95806521D01*
X146656941Y-95804258D01*
X146656098Y-95801902D01*
X146655490Y-95799475D01*
X146655123Y-95796999D01*
X146655000Y-95794500D01*
X146655000Y-95335500D01*
X146655123Y-95333001D01*
X146655490Y-95330525D01*
X146656098Y-95328098D01*
X146656941Y-95325742D01*
X146658011Y-95323479D01*
X146659298Y-95321333D01*
X146660788Y-95319323D01*
X146662469Y-95317469D01*
X146664323Y-95315788D01*
X146666333Y-95314298D01*
X146668479Y-95313011D01*
X146670742Y-95311941D01*
X146673098Y-95311098D01*
X146675525Y-95310490D01*
X146678001Y-95310123D01*
X146680500Y-95310000D01*
X147389500Y-95310000D01*
X147391999Y-95310123D01*
X147391999Y-95310123D01*
G37*
D11*
X147035000Y-95565000D03*
D10*
G36*
X145721999Y-95310123D02*
G01*
X145724475Y-95310490D01*
X145726902Y-95311098D01*
X145729258Y-95311941D01*
X145731521Y-95313011D01*
X145733667Y-95314298D01*
X145735677Y-95315788D01*
X145737531Y-95317469D01*
X145739212Y-95319323D01*
X145740702Y-95321333D01*
X145741989Y-95323479D01*
X145743059Y-95325742D01*
X145743902Y-95328098D01*
X145744510Y-95330525D01*
X145744877Y-95333001D01*
X145745000Y-95335500D01*
X145745000Y-95794500D01*
X145744877Y-95796999D01*
X145744510Y-95799475D01*
X145743902Y-95801902D01*
X145743059Y-95804258D01*
X145741989Y-95806521D01*
X145740702Y-95808667D01*
X145739212Y-95810677D01*
X145737531Y-95812531D01*
X145735677Y-95814212D01*
X145733667Y-95815702D01*
X145731521Y-95816989D01*
X145729258Y-95818059D01*
X145726902Y-95818902D01*
X145724475Y-95819510D01*
X145721999Y-95819877D01*
X145719500Y-95820000D01*
X145010500Y-95820000D01*
X145008001Y-95819877D01*
X145005525Y-95819510D01*
X145003098Y-95818902D01*
X145000742Y-95818059D01*
X144998479Y-95816989D01*
X144996333Y-95815702D01*
X144994323Y-95814212D01*
X144992469Y-95812531D01*
X144990788Y-95810677D01*
X144989298Y-95808667D01*
X144988011Y-95806521D01*
X144986941Y-95804258D01*
X144986098Y-95801902D01*
X144985490Y-95799475D01*
X144985123Y-95796999D01*
X144985000Y-95794500D01*
X144985000Y-95335500D01*
X144985123Y-95333001D01*
X144985490Y-95330525D01*
X144986098Y-95328098D01*
X144986941Y-95325742D01*
X144988011Y-95323479D01*
X144989298Y-95321333D01*
X144990788Y-95319323D01*
X144992469Y-95317469D01*
X144994323Y-95315788D01*
X144996333Y-95314298D01*
X144998479Y-95313011D01*
X145000742Y-95311941D01*
X145003098Y-95311098D01*
X145005525Y-95310490D01*
X145008001Y-95310123D01*
X145010500Y-95310000D01*
X145719500Y-95310000D01*
X145721999Y-95310123D01*
X145721999Y-95310123D01*
G37*
D11*
X145365000Y-95565000D03*
D10*
G36*
X145721999Y-96180123D02*
G01*
X145724475Y-96180490D01*
X145726902Y-96181098D01*
X145729258Y-96181941D01*
X145731521Y-96183011D01*
X145733667Y-96184298D01*
X145735677Y-96185788D01*
X145737531Y-96187469D01*
X145739212Y-96189323D01*
X145740702Y-96191333D01*
X145741989Y-96193479D01*
X145743059Y-96195742D01*
X145743902Y-96198098D01*
X145744510Y-96200525D01*
X145744877Y-96203001D01*
X145745000Y-96205500D01*
X145745000Y-96664500D01*
X145744877Y-96666999D01*
X145744510Y-96669475D01*
X145743902Y-96671902D01*
X145743059Y-96674258D01*
X145741989Y-96676521D01*
X145740702Y-96678667D01*
X145739212Y-96680677D01*
X145737531Y-96682531D01*
X145735677Y-96684212D01*
X145733667Y-96685702D01*
X145731521Y-96686989D01*
X145729258Y-96688059D01*
X145726902Y-96688902D01*
X145724475Y-96689510D01*
X145721999Y-96689877D01*
X145719500Y-96690000D01*
X145010500Y-96690000D01*
X145008001Y-96689877D01*
X145005525Y-96689510D01*
X145003098Y-96688902D01*
X145000742Y-96688059D01*
X144998479Y-96686989D01*
X144996333Y-96685702D01*
X144994323Y-96684212D01*
X144992469Y-96682531D01*
X144990788Y-96680677D01*
X144989298Y-96678667D01*
X144988011Y-96676521D01*
X144986941Y-96674258D01*
X144986098Y-96671902D01*
X144985490Y-96669475D01*
X144985123Y-96666999D01*
X144985000Y-96664500D01*
X144985000Y-96205500D01*
X144985123Y-96203001D01*
X144985490Y-96200525D01*
X144986098Y-96198098D01*
X144986941Y-96195742D01*
X144988011Y-96193479D01*
X144989298Y-96191333D01*
X144990788Y-96189323D01*
X144992469Y-96187469D01*
X144994323Y-96185788D01*
X144996333Y-96184298D01*
X144998479Y-96183011D01*
X145000742Y-96181941D01*
X145003098Y-96181098D01*
X145005525Y-96180490D01*
X145008001Y-96180123D01*
X145010500Y-96180000D01*
X145719500Y-96180000D01*
X145721999Y-96180123D01*
X145721999Y-96180123D01*
G37*
D11*
X145365000Y-96435000D03*
D10*
G36*
X147391999Y-96180123D02*
G01*
X147394475Y-96180490D01*
X147396902Y-96181098D01*
X147399258Y-96181941D01*
X147401521Y-96183011D01*
X147403667Y-96184298D01*
X147405677Y-96185788D01*
X147407531Y-96187469D01*
X147409212Y-96189323D01*
X147410702Y-96191333D01*
X147411989Y-96193479D01*
X147413059Y-96195742D01*
X147413902Y-96198098D01*
X147414510Y-96200525D01*
X147414877Y-96203001D01*
X147415000Y-96205500D01*
X147415000Y-96664500D01*
X147414877Y-96666999D01*
X147414510Y-96669475D01*
X147413902Y-96671902D01*
X147413059Y-96674258D01*
X147411989Y-96676521D01*
X147410702Y-96678667D01*
X147409212Y-96680677D01*
X147407531Y-96682531D01*
X147405677Y-96684212D01*
X147403667Y-96685702D01*
X147401521Y-96686989D01*
X147399258Y-96688059D01*
X147396902Y-96688902D01*
X147394475Y-96689510D01*
X147391999Y-96689877D01*
X147389500Y-96690000D01*
X146680500Y-96690000D01*
X146678001Y-96689877D01*
X146675525Y-96689510D01*
X146673098Y-96688902D01*
X146670742Y-96688059D01*
X146668479Y-96686989D01*
X146666333Y-96685702D01*
X146664323Y-96684212D01*
X146662469Y-96682531D01*
X146660788Y-96680677D01*
X146659298Y-96678667D01*
X146658011Y-96676521D01*
X146656941Y-96674258D01*
X146656098Y-96671902D01*
X146655490Y-96669475D01*
X146655123Y-96666999D01*
X146655000Y-96664500D01*
X146655000Y-96205500D01*
X146655123Y-96203001D01*
X146655490Y-96200525D01*
X146656098Y-96198098D01*
X146656941Y-96195742D01*
X146658011Y-96193479D01*
X146659298Y-96191333D01*
X146660788Y-96189323D01*
X146662469Y-96187469D01*
X146664323Y-96185788D01*
X146666333Y-96184298D01*
X146668479Y-96183011D01*
X146670742Y-96181941D01*
X146673098Y-96181098D01*
X146675525Y-96180490D01*
X146678001Y-96180123D01*
X146680500Y-96180000D01*
X147389500Y-96180000D01*
X147391999Y-96180123D01*
X147391999Y-96180123D01*
G37*
D11*
X147035000Y-96435000D03*
D12*
X157850000Y-81900000D03*
X157850000Y-97400000D03*
D13*
X152010000Y-92825000D03*
X152010000Y-85205000D03*
X152010000Y-87745000D03*
X152010000Y-90285000D03*
X154550000Y-86475000D03*
X154550000Y-89015000D03*
X154550000Y-91555000D03*
D14*
X154550000Y-94095000D03*
D12*
X134150000Y-81700000D03*
X134150000Y-97200000D03*
D13*
X139990000Y-92625000D03*
X139990000Y-85005000D03*
X139990000Y-87545000D03*
X139990000Y-90085000D03*
X137450000Y-86275000D03*
X137450000Y-88815000D03*
X137450000Y-91355000D03*
D14*
X137450000Y-93895000D03*
D15*
X134210000Y-87110000D03*
X134210000Y-91500000D03*
X146060000Y-98090000D03*
X140460000Y-97980000D03*
X151350000Y-98020000D03*
X158340000Y-87350000D03*
X158350000Y-91560000D03*
X146230000Y-81110000D03*
X140800000Y-81090000D03*
X151140000Y-81200000D03*
D16*
X151840000Y-81900000D02*
X151539999Y-81599999D01*
X151539999Y-81599999D02*
X151140000Y-81200000D01*
X157850000Y-81900000D02*
X151840000Y-81900000D01*
X152615000Y-92825000D02*
X152010000Y-92825000D01*
X148924834Y-94774710D02*
X148988243Y-94752522D01*
X148784709Y-94914835D02*
X148820450Y-94857954D01*
X148867953Y-94810451D02*
X148924834Y-94774710D01*
X148755000Y-95045000D02*
X148762521Y-94978244D01*
X149185165Y-94774710D02*
X149242046Y-94810451D01*
X148747478Y-95511757D02*
X148755000Y-95445000D01*
X149121756Y-94752522D02*
X149185165Y-94774710D01*
X148762521Y-94978244D02*
X148784709Y-94914835D01*
X148725290Y-95575166D02*
X148747478Y-95511757D01*
X148820450Y-94857954D02*
X148867953Y-94810451D01*
X148755000Y-95445000D02*
X148755000Y-95045000D01*
X147035000Y-95565000D02*
X147215000Y-95745000D01*
X148455000Y-95745000D02*
X148521756Y-95737479D01*
X149289549Y-94857954D02*
X149325290Y-94914835D01*
X148521756Y-95737479D02*
X148585165Y-95715291D01*
X149242046Y-94810451D02*
X149289549Y-94857954D01*
X148585165Y-95715291D02*
X148642046Y-95679550D01*
X149467953Y-95679550D02*
X149524834Y-95715291D01*
X147215000Y-95745000D02*
X148455000Y-95745000D01*
X148642046Y-95679550D02*
X148689549Y-95632047D01*
X148988243Y-94752522D02*
X149055000Y-94745000D01*
X149055000Y-94745000D02*
X149121756Y-94752522D01*
X149347478Y-94978244D02*
X149355000Y-95045000D01*
X149355000Y-95045000D02*
X149355000Y-95445000D01*
X149355000Y-95445000D02*
X149362521Y-95511757D01*
X149362521Y-95511757D02*
X149384709Y-95575166D01*
X149384709Y-95575166D02*
X149420450Y-95632047D01*
X149420450Y-95632047D02*
X149467953Y-95679550D01*
X149524834Y-95715291D02*
X149588243Y-95737479D01*
X148689549Y-95632047D02*
X148725290Y-95575166D01*
X149588243Y-95737479D02*
X149655000Y-95745000D01*
X149655000Y-95745000D02*
X150994374Y-95745000D01*
X150994374Y-95745000D02*
X153000000Y-93739374D01*
X153000000Y-93739374D02*
X153000000Y-93210000D01*
X149325290Y-94914835D02*
X149347478Y-94978244D01*
X153000000Y-93210000D02*
X152615000Y-92825000D01*
X139675000Y-92625000D02*
X139990000Y-92625000D01*
X143342046Y-94858340D02*
X143285165Y-94822599D01*
X143389549Y-94905843D02*
X143342046Y-94858340D01*
X145185000Y-95745000D02*
X143755000Y-95745000D01*
X143425290Y-94962724D02*
X143389549Y-94905843D01*
X143088243Y-94800411D02*
X143024834Y-94822599D01*
X143455000Y-95092890D02*
X143447478Y-95026133D01*
X143455000Y-95445000D02*
X143455000Y-95092890D01*
X143624834Y-95715290D02*
X143567953Y-95679549D01*
X143462521Y-95511756D02*
X143455000Y-95445000D01*
X142862521Y-95026133D02*
X142855000Y-95092890D01*
X143520450Y-95632046D02*
X143484709Y-95575165D01*
X143484709Y-95575165D02*
X143462521Y-95511756D01*
X142847478Y-95511756D02*
X142825290Y-95575165D01*
X145365000Y-95565000D02*
X145185000Y-95745000D01*
X143755000Y-95745000D02*
X143688243Y-95737478D01*
X143688243Y-95737478D02*
X143624834Y-95715290D01*
X143285165Y-94822599D02*
X143221756Y-94800411D01*
X142855000Y-95445000D02*
X142847478Y-95511756D01*
X143447478Y-95026133D02*
X143425290Y-94962724D01*
X143567953Y-95679549D02*
X143520450Y-95632046D01*
X143221756Y-94800411D02*
X143155000Y-94792890D01*
X143155000Y-94792890D02*
X143088243Y-94800411D01*
X143024834Y-94822599D02*
X142967953Y-94858340D01*
X142920450Y-94905843D02*
X142884709Y-94962724D01*
X142967953Y-94858340D02*
X142920450Y-94905843D01*
X142884709Y-94962724D02*
X142862521Y-95026133D01*
X142855000Y-95092890D02*
X142855000Y-95445000D01*
X142685165Y-95715290D02*
X142621756Y-95737478D01*
X142825290Y-95575165D02*
X142789549Y-95632046D01*
X139200000Y-93600000D02*
X139200000Y-93100000D01*
X142789549Y-95632046D02*
X142742046Y-95679549D01*
X142742046Y-95679549D02*
X142685165Y-95715290D01*
X142621756Y-95737478D02*
X142555000Y-95745000D01*
X142555000Y-95745000D02*
X141345000Y-95745000D01*
X141345000Y-95745000D02*
X139200000Y-93600000D01*
X139200000Y-93100000D02*
X139675000Y-92625000D01*
X142545000Y-96255000D02*
X141094374Y-96255000D01*
X142611756Y-96262522D02*
X142545000Y-96255000D01*
X142779549Y-96367954D02*
X142732046Y-96320451D01*
X142815290Y-96424835D02*
X142779549Y-96367954D01*
X142837478Y-96488244D02*
X142815290Y-96424835D01*
X142845000Y-96555000D02*
X142837478Y-96488244D01*
X142845000Y-96875914D02*
X142845000Y-96555000D01*
X142732046Y-96320451D02*
X142675165Y-96284710D01*
X142852521Y-96942671D02*
X142845000Y-96875914D01*
X142910450Y-97062961D02*
X142874709Y-97006080D01*
X142957953Y-97110464D02*
X142910450Y-97062961D01*
X138939374Y-94100000D02*
X137655000Y-94100000D01*
X143014834Y-97146205D02*
X142957953Y-97110464D01*
X143078243Y-97168393D02*
X143014834Y-97146205D01*
X142874709Y-97006080D02*
X142852521Y-96942671D01*
X143145000Y-97175914D02*
X143078243Y-97168393D01*
X143211756Y-97168393D02*
X143145000Y-97175914D01*
X142675165Y-96284710D02*
X142611756Y-96262522D01*
X143557953Y-96320451D02*
X143510450Y-96367954D01*
X141094374Y-96255000D02*
X138939374Y-94100000D01*
X143445000Y-96875914D02*
X143437478Y-96942671D01*
X143275165Y-97146205D02*
X143211756Y-97168393D01*
X143614834Y-96284710D02*
X143557953Y-96320451D01*
X145185000Y-96255000D02*
X143745000Y-96255000D01*
X143678243Y-96262522D02*
X143614834Y-96284710D01*
X143745000Y-96255000D02*
X143678243Y-96262522D01*
X145365000Y-96435000D02*
X145185000Y-96255000D01*
X143510450Y-96367954D02*
X143474709Y-96424835D01*
X143474709Y-96424835D02*
X143452521Y-96488244D01*
X143445000Y-96555000D02*
X143445000Y-96875914D01*
X143452521Y-96488244D02*
X143445000Y-96555000D01*
X143437478Y-96942671D02*
X143415290Y-97006080D01*
X143415290Y-97006080D02*
X143379549Y-97062961D01*
X143379549Y-97062961D02*
X143332046Y-97110464D01*
X143332046Y-97110464D02*
X143275165Y-97146205D01*
X154295000Y-94050000D02*
X154445000Y-94200000D01*
X151205626Y-96255000D02*
X153410626Y-94050000D01*
X149514834Y-96284709D02*
X149578243Y-96262521D01*
X149457953Y-96320450D02*
X149514834Y-96284709D01*
X149410450Y-96367953D02*
X149457953Y-96320450D01*
X149352521Y-96488243D02*
X149374709Y-96424834D01*
X149345000Y-96555000D02*
X149352521Y-96488243D01*
X149345000Y-96955000D02*
X149345000Y-96555000D01*
X149315290Y-97085165D02*
X149337478Y-97021756D01*
X149279549Y-97142046D02*
X149315290Y-97085165D01*
X149337478Y-97021756D02*
X149345000Y-96955000D01*
X149232046Y-97189549D02*
X149279549Y-97142046D01*
X149111756Y-97247478D02*
X149175165Y-97225290D01*
X148978243Y-97247478D02*
X149045000Y-97255000D01*
X148632046Y-96320450D02*
X148679549Y-96367953D01*
X148575165Y-96284709D02*
X148632046Y-96320450D01*
X149175165Y-97225290D02*
X149232046Y-97189549D01*
X148857953Y-97189549D02*
X148914834Y-97225290D01*
X148511756Y-96262521D02*
X148575165Y-96284709D01*
X148445000Y-96255000D02*
X148511756Y-96262521D01*
X147035000Y-96435000D02*
X147215000Y-96255000D01*
X149045000Y-97255000D02*
X149111756Y-97247478D01*
X147215000Y-96255000D02*
X148445000Y-96255000D01*
X148679549Y-96367953D02*
X148715290Y-96424834D01*
X149374709Y-96424834D02*
X149410450Y-96367953D01*
X148752521Y-97021756D02*
X148774709Y-97085165D01*
X153410626Y-94050000D02*
X154295000Y-94050000D01*
X148715290Y-96424834D02*
X148737478Y-96488243D01*
X148737478Y-96488243D02*
X148745000Y-96555000D01*
X148745000Y-96555000D02*
X148745000Y-96955000D01*
X148810450Y-97142046D02*
X148857953Y-97189549D01*
X149578243Y-96262521D02*
X149645000Y-96255000D01*
X148745000Y-96955000D02*
X148752521Y-97021756D01*
X149645000Y-96255000D02*
X151205626Y-96255000D01*
X148774709Y-97085165D02*
X148810450Y-97142046D01*
X148914834Y-97225290D02*
X148978243Y-97247478D01*
X151180313Y-86619687D02*
X152419687Y-86619687D01*
X149324834Y-85715291D02*
X149388243Y-85737479D01*
X149220450Y-85632047D02*
X149267953Y-85679550D01*
X149184709Y-85575166D02*
X149220450Y-85632047D01*
X149162521Y-85511757D02*
X149184709Y-85575166D01*
X149267953Y-85679550D02*
X149324834Y-85715291D01*
X149155000Y-85445000D02*
X149162521Y-85511757D01*
X149155000Y-85202626D02*
X149155000Y-85445000D01*
X149125290Y-85072461D02*
X149147478Y-85135870D01*
X149089549Y-85015580D02*
X149125290Y-85072461D01*
X148921756Y-84910148D02*
X148985165Y-84932336D01*
X149042046Y-84968077D02*
X149089549Y-85015580D01*
X148855000Y-84902626D02*
X148921756Y-84910148D01*
X148788243Y-84910148D02*
X148855000Y-84902626D01*
X149455000Y-85745000D02*
X150305626Y-85745000D01*
X148385165Y-85715291D02*
X148442046Y-85679550D01*
X148321756Y-85737479D02*
X148385165Y-85715291D01*
X149147478Y-85135870D02*
X149155000Y-85202626D01*
X148255000Y-85745000D02*
X148321756Y-85737479D01*
X147035000Y-85565000D02*
X147215000Y-85745000D01*
X147215000Y-85745000D02*
X148255000Y-85745000D01*
X148562521Y-85135870D02*
X148584709Y-85072461D01*
X148489549Y-85632047D02*
X148525290Y-85575166D01*
X150305626Y-85745000D02*
X151180313Y-86619687D01*
X148555000Y-85445000D02*
X148555000Y-85202626D01*
X149388243Y-85737479D02*
X149455000Y-85745000D01*
X148555000Y-85202626D02*
X148562521Y-85135870D01*
X148525290Y-85575166D02*
X148547478Y-85511757D01*
X148547478Y-85511757D02*
X148555000Y-85445000D01*
X152419687Y-86619687D02*
X154550000Y-88750000D01*
X148584709Y-85072461D02*
X148620450Y-85015580D01*
X148985165Y-84932336D02*
X149042046Y-84968077D01*
X148620450Y-85015580D02*
X148667953Y-84968077D01*
X148667953Y-84968077D02*
X148724834Y-84932336D01*
X148442046Y-85679550D02*
X148489549Y-85632047D01*
X148724834Y-84932336D02*
X148788243Y-84910148D01*
X139500000Y-86500000D02*
X137450000Y-88550000D01*
X140534562Y-86500000D02*
X139500000Y-86500000D01*
X142811756Y-85737478D02*
X142745000Y-85745000D01*
X142875165Y-85715290D02*
X142811756Y-85737478D01*
X142979549Y-85632046D02*
X142932046Y-85679549D01*
X143015290Y-85575165D02*
X142979549Y-85632046D01*
X143037478Y-85511756D02*
X143015290Y-85575165D01*
X143052521Y-85294448D02*
X143045000Y-85361205D01*
X143157953Y-85126655D02*
X143110450Y-85174158D01*
X143278243Y-85068726D02*
X143214834Y-85090914D01*
X141289562Y-85745000D02*
X140534562Y-86500000D01*
X143345000Y-85061205D02*
X143278243Y-85068726D01*
X143214834Y-85090914D02*
X143157953Y-85126655D01*
X143757953Y-85679549D02*
X143710450Y-85632046D01*
X142745000Y-85745000D02*
X141289562Y-85745000D01*
X143945000Y-85745000D02*
X143878243Y-85737478D01*
X143814834Y-85715290D02*
X143757953Y-85679549D01*
X145365000Y-85565000D02*
X145185000Y-85745000D01*
X143411756Y-85068726D02*
X143345000Y-85061205D01*
X143878243Y-85737478D02*
X143814834Y-85715290D01*
X142932046Y-85679549D02*
X142875165Y-85715290D01*
X143615290Y-85231039D02*
X143579549Y-85174158D01*
X143110450Y-85174158D02*
X143074709Y-85231039D01*
X143475165Y-85090914D02*
X143411756Y-85068726D01*
X143045000Y-85361205D02*
X143045000Y-85445000D01*
X145185000Y-85745000D02*
X143945000Y-85745000D01*
X143045000Y-85445000D02*
X143037478Y-85511756D01*
X143710450Y-85632046D02*
X143674709Y-85575165D01*
X143674709Y-85575165D02*
X143652521Y-85511756D01*
X143652521Y-85511756D02*
X143645000Y-85445000D01*
X143645000Y-85445000D02*
X143645000Y-85361205D01*
X143645000Y-85361205D02*
X143637478Y-85294448D01*
X143074709Y-85231039D02*
X143052521Y-85294448D01*
X143637478Y-85294448D02*
X143615290Y-85231039D01*
X143579549Y-85174158D02*
X143532046Y-85126655D01*
X143532046Y-85126655D02*
X143475165Y-85090914D01*
X140865000Y-90085000D02*
X139990000Y-90085000D01*
X143532046Y-86995505D02*
X143475165Y-87031246D01*
X141500814Y-86255000D02*
X141100000Y-86655814D01*
X143579549Y-86948002D02*
X143532046Y-86995505D01*
X142745000Y-86255000D02*
X141500814Y-86255000D01*
X143615290Y-86891121D02*
X143579549Y-86948002D01*
X143645000Y-86760955D02*
X143637478Y-86827712D01*
X143652521Y-86488244D02*
X143645000Y-86555000D01*
X143945000Y-86255000D02*
X143878243Y-86262522D01*
X143674709Y-86424835D02*
X143652521Y-86488244D01*
X143475165Y-87031246D02*
X143411756Y-87053434D01*
X143278243Y-87053434D02*
X143214834Y-87031246D01*
X143710450Y-86367954D02*
X143674709Y-86424835D01*
X143645000Y-86555000D02*
X143645000Y-86760955D01*
X142811756Y-86262522D02*
X142745000Y-86255000D01*
X145185000Y-86255000D02*
X143945000Y-86255000D01*
X145365000Y-86435000D02*
X145185000Y-86255000D01*
X143015290Y-86424835D02*
X142979549Y-86367954D01*
X141100000Y-86655814D02*
X141100000Y-89850000D01*
X141100000Y-89850000D02*
X140865000Y-90085000D01*
X143878243Y-86262522D02*
X143814834Y-86284710D01*
X143814834Y-86284710D02*
X143757953Y-86320451D01*
X143214834Y-87031246D02*
X143157953Y-86995505D01*
X143757953Y-86320451D02*
X143710450Y-86367954D01*
X143157953Y-86995505D02*
X143110450Y-86948002D01*
X143411756Y-87053434D02*
X143345000Y-87060955D01*
X143110450Y-86948002D02*
X143074709Y-86891121D01*
X143345000Y-87060955D02*
X143278243Y-87053434D01*
X143074709Y-86891121D02*
X143052521Y-86827712D01*
X143052521Y-86827712D02*
X143045000Y-86760955D01*
X143045000Y-86760955D02*
X143045000Y-86555000D01*
X143045000Y-86555000D02*
X143037478Y-86488244D01*
X143037478Y-86488244D02*
X143015290Y-86424835D01*
X143637478Y-86827712D02*
X143615290Y-86891121D01*
X142979549Y-86367954D02*
X142932046Y-86320451D01*
X142932046Y-86320451D02*
X142875165Y-86284710D01*
X142875165Y-86284710D02*
X142811756Y-86262522D01*
X151185000Y-90285000D02*
X152010000Y-90285000D01*
X148620450Y-87142046D02*
X148667953Y-87189549D01*
X148584709Y-87085165D02*
X148620450Y-87142046D01*
X148667953Y-87189549D02*
X148724834Y-87225290D01*
X149267953Y-86320450D02*
X149324834Y-86284709D01*
X148562521Y-87021756D02*
X148584709Y-87085165D01*
X147035000Y-86435000D02*
X147215000Y-86255000D01*
X148442046Y-86320450D02*
X148489549Y-86367953D01*
X148555000Y-86955000D02*
X148562521Y-87021756D01*
X150094374Y-86255000D02*
X150900000Y-87060626D01*
X148555000Y-86555000D02*
X148555000Y-86955000D01*
X149162521Y-86488243D02*
X149184709Y-86424834D01*
X148525290Y-86424834D02*
X148547478Y-86488243D01*
X149147478Y-87021756D02*
X149155000Y-86955000D01*
X148547478Y-86488243D02*
X148555000Y-86555000D01*
X148489549Y-86367953D02*
X148525290Y-86424834D01*
X149089549Y-87142046D02*
X149125290Y-87085165D01*
X149324834Y-86284709D02*
X149388243Y-86262521D01*
X148724834Y-87225290D02*
X148788243Y-87247478D01*
X148321756Y-86262521D02*
X148385165Y-86284709D01*
X148385165Y-86284709D02*
X148442046Y-86320450D01*
X149220450Y-86367953D02*
X149267953Y-86320450D01*
X148255000Y-86255000D02*
X148321756Y-86262521D01*
X148788243Y-87247478D02*
X148855000Y-87255000D01*
X148855000Y-87255000D02*
X148921756Y-87247478D01*
X148921756Y-87247478D02*
X148985165Y-87225290D01*
X148985165Y-87225290D02*
X149042046Y-87189549D01*
X147215000Y-86255000D02*
X148255000Y-86255000D01*
X149042046Y-87189549D02*
X149089549Y-87142046D01*
X149155000Y-86555000D02*
X149162521Y-86488243D01*
X149125290Y-87085165D02*
X149147478Y-87021756D01*
X149155000Y-86955000D02*
X149155000Y-86555000D01*
X149184709Y-86424834D02*
X149220450Y-86367953D01*
X149388243Y-86262521D02*
X149455000Y-86255000D01*
X149455000Y-86255000D02*
X150094374Y-86255000D01*
X150900000Y-87060626D02*
X150900000Y-90000000D01*
X150900000Y-90000000D02*
X151185000Y-90285000D01*
D17*
G36*
X163065424Y-79669580D02*
G01*
X163128356Y-79688580D01*
X163186405Y-79719445D01*
X163237343Y-79760989D01*
X163279248Y-79811644D01*
X163310515Y-79869471D01*
X163329956Y-79932272D01*
X163340000Y-80027835D01*
X163340001Y-98967711D01*
X163330420Y-99065424D01*
X163311420Y-99128357D01*
X163280554Y-99186406D01*
X163239011Y-99237343D01*
X163188356Y-99279248D01*
X163130529Y-99310515D01*
X163067728Y-99329956D01*
X162972165Y-99340000D01*
X129032279Y-99340000D01*
X128934576Y-99330420D01*
X128871643Y-99311420D01*
X128813594Y-99280554D01*
X128762657Y-99239011D01*
X128720752Y-99188356D01*
X128689485Y-99130529D01*
X128670044Y-99067728D01*
X128660000Y-98972165D01*
X128660000Y-98477980D01*
X133051626Y-98477980D01*
X133171514Y-98762836D01*
X133495210Y-98923699D01*
X133844069Y-99018322D01*
X134204684Y-99043067D01*
X134563198Y-98996985D01*
X134905833Y-98881846D01*
X135128486Y-98762836D01*
X135164199Y-98677980D01*
X156751626Y-98677980D01*
X156871514Y-98962836D01*
X157195210Y-99123699D01*
X157544069Y-99218322D01*
X157904684Y-99243067D01*
X158263198Y-99196985D01*
X158605833Y-99081846D01*
X158828486Y-98962836D01*
X158948374Y-98677980D01*
X157850000Y-97579605D01*
X156751626Y-98677980D01*
X135164199Y-98677980D01*
X135248374Y-98477980D01*
X134150000Y-97379605D01*
X133051626Y-98477980D01*
X128660000Y-98477980D01*
X128660000Y-94944872D01*
X128865000Y-94944872D01*
X128865000Y-95385128D01*
X128950890Y-95816925D01*
X129119369Y-96223669D01*
X129363962Y-96589729D01*
X129675271Y-96901038D01*
X130041331Y-97145631D01*
X130448075Y-97314110D01*
X130879872Y-97400000D01*
X131320128Y-97400000D01*
X131751925Y-97314110D01*
X132158669Y-97145631D01*
X132321900Y-97036564D01*
X132306933Y-97254684D01*
X132353015Y-97613198D01*
X132468154Y-97955833D01*
X132587164Y-98178486D01*
X132872020Y-98298374D01*
X133970395Y-97200000D01*
X134329605Y-97200000D01*
X135427980Y-98298374D01*
X135712836Y-98178486D01*
X135873699Y-97854790D01*
X135968322Y-97505931D01*
X135993067Y-97145316D01*
X135946985Y-96786802D01*
X135831846Y-96444167D01*
X135712836Y-96221514D01*
X135427980Y-96101626D01*
X134329605Y-97200000D01*
X133970395Y-97200000D01*
X133956252Y-97185858D01*
X134135858Y-97006252D01*
X134150000Y-97020395D01*
X135248374Y-95922020D01*
X135128486Y-95637164D01*
X134804790Y-95476301D01*
X134455931Y-95381678D01*
X134095316Y-95356933D01*
X133736802Y-95403015D01*
X133394167Y-95518154D01*
X133298352Y-95569368D01*
X133335000Y-95385128D01*
X133335000Y-94944872D01*
X133249110Y-94513075D01*
X133080631Y-94106331D01*
X132836038Y-93740271D01*
X132524729Y-93428962D01*
X132168594Y-93191000D01*
X136107928Y-93191000D01*
X136107928Y-94599000D01*
X136120188Y-94723482D01*
X136156498Y-94843180D01*
X136215463Y-94953494D01*
X136294815Y-95050185D01*
X136391506Y-95129537D01*
X136501820Y-95188502D01*
X136621518Y-95224812D01*
X136746000Y-95237072D01*
X138154000Y-95237072D01*
X138278482Y-95224812D01*
X138398180Y-95188502D01*
X138508494Y-95129537D01*
X138605185Y-95050185D01*
X138684537Y-94953494D01*
X138693753Y-94936252D01*
X140526865Y-96769365D01*
X140550820Y-96798554D01*
X140580007Y-96822507D01*
X140580008Y-96822508D01*
X140610922Y-96847878D01*
X140667307Y-96894152D01*
X140800205Y-96965187D01*
X140944408Y-97008931D01*
X141056796Y-97020000D01*
X141056798Y-97020000D01*
X141094373Y-97023701D01*
X141131949Y-97020000D01*
X142090100Y-97020000D01*
X142091368Y-97050130D01*
X142106629Y-97112920D01*
X142120119Y-97176099D01*
X142139310Y-97220653D01*
X142143778Y-97233421D01*
X142156552Y-97280218D01*
X142185405Y-97338041D01*
X142212619Y-97396640D01*
X142241241Y-97435803D01*
X142248436Y-97447253D01*
X142271299Y-97490028D01*
X142312295Y-97539982D01*
X142351868Y-97591058D01*
X142388480Y-97622864D01*
X142398052Y-97632436D01*
X142429856Y-97669046D01*
X142480924Y-97708613D01*
X142530885Y-97749615D01*
X142573665Y-97772481D01*
X142585106Y-97779670D01*
X142624274Y-97808296D01*
X142682885Y-97835515D01*
X142740696Y-97864362D01*
X142787493Y-97877136D01*
X142800259Y-97881603D01*
X142844815Y-97900795D01*
X142907994Y-97914285D01*
X142970784Y-97929546D01*
X143019259Y-97931587D01*
X143032686Y-97933099D01*
X143080384Y-97941894D01*
X143145000Y-97940988D01*
X143209617Y-97941894D01*
X143257313Y-97933100D01*
X143270742Y-97931587D01*
X143319215Y-97929546D01*
X143382012Y-97914283D01*
X143445185Y-97900794D01*
X143489735Y-97881605D01*
X143502506Y-97877136D01*
X143549303Y-97864362D01*
X143607126Y-97835509D01*
X143665725Y-97808295D01*
X143704888Y-97779673D01*
X143716338Y-97772478D01*
X143759113Y-97749615D01*
X143809067Y-97708619D01*
X143860143Y-97669046D01*
X143891949Y-97632434D01*
X143901521Y-97622862D01*
X143938131Y-97591058D01*
X143977698Y-97539990D01*
X144018700Y-97490029D01*
X144041566Y-97447249D01*
X144048755Y-97435808D01*
X144077381Y-97396640D01*
X144104600Y-97338029D01*
X144133447Y-97280218D01*
X144146221Y-97233421D01*
X144150688Y-97220657D01*
X144169876Y-97176110D01*
X144183365Y-97112937D01*
X144198631Y-97050130D01*
X144199899Y-97020000D01*
X144451725Y-97020000D01*
X144458760Y-97033161D01*
X144541284Y-97133716D01*
X144641839Y-97216240D01*
X144756562Y-97277561D01*
X144881044Y-97315322D01*
X145010500Y-97328072D01*
X145719500Y-97328072D01*
X145848956Y-97315322D01*
X145973438Y-97277561D01*
X146088161Y-97216240D01*
X146188716Y-97133716D01*
X146200000Y-97119967D01*
X146211284Y-97133716D01*
X146311839Y-97216240D01*
X146426562Y-97277561D01*
X146551044Y-97315322D01*
X146680500Y-97328072D01*
X147389500Y-97328072D01*
X147518956Y-97315322D01*
X147643438Y-97277561D01*
X147758161Y-97216240D01*
X147858716Y-97133716D01*
X147941240Y-97033161D01*
X147948275Y-97020000D01*
X147982484Y-97020000D01*
X147984207Y-97035291D01*
X147989808Y-97092166D01*
X147991368Y-97129215D01*
X148006631Y-97192012D01*
X148020120Y-97255185D01*
X148039309Y-97299735D01*
X148043778Y-97312506D01*
X148056552Y-97359303D01*
X148085405Y-97417126D01*
X148112619Y-97475725D01*
X148141241Y-97514888D01*
X148148436Y-97526338D01*
X148171299Y-97569113D01*
X148212295Y-97619067D01*
X148251868Y-97670143D01*
X148288480Y-97701949D01*
X148298052Y-97711521D01*
X148329856Y-97748131D01*
X148380924Y-97787698D01*
X148430885Y-97828700D01*
X148473665Y-97851566D01*
X148485106Y-97858755D01*
X148524274Y-97887381D01*
X148582885Y-97914600D01*
X148640696Y-97943447D01*
X148687493Y-97956221D01*
X148700257Y-97960688D01*
X148744804Y-97979876D01*
X148807977Y-97993365D01*
X148870784Y-98008631D01*
X148919257Y-98010672D01*
X148932683Y-98012184D01*
X148980396Y-98020981D01*
X149045000Y-98020074D01*
X149109605Y-98020981D01*
X149157314Y-98012185D01*
X149170744Y-98010671D01*
X149219215Y-98008631D01*
X149282015Y-97993367D01*
X149345196Y-97979876D01*
X149389743Y-97960687D01*
X149402506Y-97956221D01*
X149449303Y-97943447D01*
X149507126Y-97914594D01*
X149565725Y-97887380D01*
X149604888Y-97858758D01*
X149616338Y-97851563D01*
X149659113Y-97828700D01*
X149709067Y-97787704D01*
X149760143Y-97748131D01*
X149791949Y-97711519D01*
X149801521Y-97701947D01*
X149838131Y-97670143D01*
X149877698Y-97619075D01*
X149918700Y-97569114D01*
X149941566Y-97526334D01*
X149948755Y-97514893D01*
X149977381Y-97475725D01*
X149987152Y-97454684D01*
X156006933Y-97454684D01*
X156053015Y-97813198D01*
X156168154Y-98155833D01*
X156287164Y-98378486D01*
X156572020Y-98498374D01*
X157670395Y-97400000D01*
X156572020Y-96301626D01*
X156287164Y-96421514D01*
X156126301Y-96745210D01*
X156031678Y-97094069D01*
X156006933Y-97454684D01*
X149987152Y-97454684D01*
X150004600Y-97417114D01*
X150033447Y-97359303D01*
X150046221Y-97312506D01*
X150050686Y-97299745D01*
X150069876Y-97255196D01*
X150083368Y-97192011D01*
X150098631Y-97129215D01*
X150100190Y-97092184D01*
X150105793Y-97035290D01*
X150107516Y-97020000D01*
X151168051Y-97020000D01*
X151205626Y-97023701D01*
X151243201Y-97020000D01*
X151243204Y-97020000D01*
X151355592Y-97008931D01*
X151499795Y-96965187D01*
X151632693Y-96894152D01*
X151749180Y-96798554D01*
X151773138Y-96769361D01*
X152420479Y-96122020D01*
X156751626Y-96122020D01*
X157850000Y-97220395D01*
X157864142Y-97206252D01*
X158043748Y-97385858D01*
X158029605Y-97400000D01*
X159127980Y-98498374D01*
X159412836Y-98378486D01*
X159573699Y-98054790D01*
X159668322Y-97705931D01*
X159693067Y-97345316D01*
X159679181Y-97237286D01*
X159841331Y-97345631D01*
X160248075Y-97514110D01*
X160679872Y-97600000D01*
X161120128Y-97600000D01*
X161551925Y-97514110D01*
X161958669Y-97345631D01*
X162324729Y-97101038D01*
X162636038Y-96789729D01*
X162880631Y-96423669D01*
X163049110Y-96016925D01*
X163135000Y-95585128D01*
X163135000Y-95144872D01*
X163049110Y-94713075D01*
X162880631Y-94306331D01*
X162636038Y-93940271D01*
X162324729Y-93628962D01*
X161958669Y-93384369D01*
X161551925Y-93215890D01*
X161120128Y-93130000D01*
X160679872Y-93130000D01*
X160248075Y-93215890D01*
X159841331Y-93384369D01*
X159475271Y-93628962D01*
X159163962Y-93940271D01*
X158919369Y-94306331D01*
X158750890Y-94713075D01*
X158665000Y-95144872D01*
X158665000Y-95585128D01*
X158702699Y-95774653D01*
X158504790Y-95676301D01*
X158155931Y-95581678D01*
X157795316Y-95556933D01*
X157436802Y-95603015D01*
X157094167Y-95718154D01*
X156871514Y-95837164D01*
X156751626Y-96122020D01*
X152420479Y-96122020D01*
X153348612Y-95193887D01*
X153394815Y-95250185D01*
X153491506Y-95329537D01*
X153601820Y-95388502D01*
X153721518Y-95424812D01*
X153846000Y-95437072D01*
X155254000Y-95437072D01*
X155378482Y-95424812D01*
X155498180Y-95388502D01*
X155608494Y-95329537D01*
X155705185Y-95250185D01*
X155784537Y-95153494D01*
X155843502Y-95043180D01*
X155879812Y-94923482D01*
X155892072Y-94799000D01*
X155892072Y-93391000D01*
X155879812Y-93266518D01*
X155843502Y-93146820D01*
X155784537Y-93036506D01*
X155705185Y-92939815D01*
X155608494Y-92860463D01*
X155498180Y-92801498D01*
X155378482Y-92765188D01*
X155254000Y-92752928D01*
X155156923Y-92752928D01*
X155184254Y-92741607D01*
X155403563Y-92595069D01*
X155590069Y-92408563D01*
X155736607Y-92189254D01*
X155837543Y-91945572D01*
X155889000Y-91686880D01*
X155889000Y-91423120D01*
X155837543Y-91164428D01*
X155736607Y-90920746D01*
X155590069Y-90701437D01*
X155403563Y-90514931D01*
X155184254Y-90368393D01*
X154982925Y-90285000D01*
X155184254Y-90201607D01*
X155403563Y-90055069D01*
X155590069Y-89868563D01*
X155736607Y-89649254D01*
X155837543Y-89405572D01*
X155889000Y-89146880D01*
X155889000Y-88883120D01*
X155837543Y-88624428D01*
X155736607Y-88380746D01*
X155590069Y-88161437D01*
X155403563Y-87974931D01*
X155184254Y-87828393D01*
X155159794Y-87818261D01*
X155147417Y-87810568D01*
X155096445Y-87782047D01*
X155004548Y-87736043D01*
X155184254Y-87661607D01*
X155403563Y-87515069D01*
X155590069Y-87328563D01*
X155736607Y-87109254D01*
X155837543Y-86865572D01*
X155889000Y-86606880D01*
X155889000Y-86343120D01*
X155837543Y-86084428D01*
X155736607Y-85840746D01*
X155590069Y-85621437D01*
X155403563Y-85434931D01*
X155184254Y-85288393D01*
X154940572Y-85187457D01*
X154681880Y-85136000D01*
X154418120Y-85136000D01*
X154159428Y-85187457D01*
X153915746Y-85288393D01*
X153696437Y-85434931D01*
X153509931Y-85621437D01*
X153363393Y-85840746D01*
X153262457Y-86084428D01*
X153213322Y-86331449D01*
X152995253Y-86113380D01*
X153050069Y-86058563D01*
X153196607Y-85839254D01*
X153297543Y-85595572D01*
X153349000Y-85336880D01*
X153349000Y-85073120D01*
X153297543Y-84814428D01*
X153196607Y-84570746D01*
X153050069Y-84351437D01*
X152863563Y-84164931D01*
X152644254Y-84018393D01*
X152400572Y-83917457D01*
X152141880Y-83866000D01*
X151878120Y-83866000D01*
X151619428Y-83917457D01*
X151375746Y-84018393D01*
X151156437Y-84164931D01*
X150969931Y-84351437D01*
X150823393Y-84570746D01*
X150722457Y-84814428D01*
X150671044Y-85072896D01*
X150599795Y-85034813D01*
X150455592Y-84991069D01*
X150343204Y-84980000D01*
X150343201Y-84980000D01*
X150305626Y-84976299D01*
X150268051Y-84980000D01*
X149896865Y-84980000D01*
X149893368Y-84965615D01*
X149879876Y-84902430D01*
X149860686Y-84857881D01*
X149856221Y-84845120D01*
X149843447Y-84798323D01*
X149814600Y-84740512D01*
X149787381Y-84681901D01*
X149758755Y-84642733D01*
X149751566Y-84631292D01*
X149728700Y-84588512D01*
X149687698Y-84538551D01*
X149648131Y-84487483D01*
X149611521Y-84455679D01*
X149601949Y-84446107D01*
X149570143Y-84409495D01*
X149519067Y-84369922D01*
X149469113Y-84328926D01*
X149426338Y-84306063D01*
X149414888Y-84298868D01*
X149375725Y-84270246D01*
X149317126Y-84243032D01*
X149259303Y-84214179D01*
X149212506Y-84201405D01*
X149199743Y-84196939D01*
X149155196Y-84177750D01*
X149092015Y-84164259D01*
X149029215Y-84148995D01*
X148980744Y-84146955D01*
X148967314Y-84145441D01*
X148919605Y-84136645D01*
X148855000Y-84137552D01*
X148790396Y-84136645D01*
X148742683Y-84145442D01*
X148729257Y-84146954D01*
X148680784Y-84148995D01*
X148617977Y-84164261D01*
X148554804Y-84177750D01*
X148510257Y-84196938D01*
X148497493Y-84201405D01*
X148450696Y-84214179D01*
X148392885Y-84243026D01*
X148334274Y-84270245D01*
X148295106Y-84298871D01*
X148283665Y-84306060D01*
X148240885Y-84328926D01*
X148190924Y-84369928D01*
X148139856Y-84409495D01*
X148108052Y-84446105D01*
X148098480Y-84455677D01*
X148061868Y-84487483D01*
X148022295Y-84538559D01*
X147981299Y-84588513D01*
X147958436Y-84631288D01*
X147951241Y-84642738D01*
X147922619Y-84681901D01*
X147895405Y-84740500D01*
X147866552Y-84798323D01*
X147853778Y-84845120D01*
X147849309Y-84857891D01*
X147849095Y-84858388D01*
X147758161Y-84783760D01*
X147643438Y-84722439D01*
X147518956Y-84684678D01*
X147389500Y-84671928D01*
X146680500Y-84671928D01*
X146551044Y-84684678D01*
X146426562Y-84722439D01*
X146311839Y-84783760D01*
X146211284Y-84866284D01*
X146200000Y-84880033D01*
X146188716Y-84866284D01*
X146088161Y-84783760D01*
X145973438Y-84722439D01*
X145848956Y-84684678D01*
X145719500Y-84671928D01*
X145010500Y-84671928D01*
X144881044Y-84684678D01*
X144756562Y-84722439D01*
X144641839Y-84783760D01*
X144541284Y-84866284D01*
X144458760Y-84966839D01*
X144451725Y-84980000D01*
X144339752Y-84980000D01*
X144333447Y-84956901D01*
X144304600Y-84899090D01*
X144277381Y-84840479D01*
X144248755Y-84801311D01*
X144241566Y-84789870D01*
X144218700Y-84747090D01*
X144177698Y-84697129D01*
X144138131Y-84646061D01*
X144101521Y-84614257D01*
X144091949Y-84604685D01*
X144060143Y-84568073D01*
X144009067Y-84528500D01*
X143959113Y-84487504D01*
X143916338Y-84464641D01*
X143904888Y-84457446D01*
X143865725Y-84428824D01*
X143807126Y-84401610D01*
X143749303Y-84372757D01*
X143702506Y-84359983D01*
X143689735Y-84355514D01*
X143645185Y-84336325D01*
X143582012Y-84322836D01*
X143519215Y-84307573D01*
X143470742Y-84305532D01*
X143457313Y-84304019D01*
X143409617Y-84295225D01*
X143345000Y-84296131D01*
X143280384Y-84295225D01*
X143232686Y-84304020D01*
X143219259Y-84305532D01*
X143170784Y-84307573D01*
X143107994Y-84322834D01*
X143044815Y-84336324D01*
X143000259Y-84355516D01*
X142987493Y-84359983D01*
X142940696Y-84372757D01*
X142882885Y-84401604D01*
X142824274Y-84428823D01*
X142785106Y-84457449D01*
X142773665Y-84464638D01*
X142730885Y-84487504D01*
X142680924Y-84528506D01*
X142629856Y-84568073D01*
X142598052Y-84604683D01*
X142588480Y-84614255D01*
X142551868Y-84646061D01*
X142512295Y-84697137D01*
X142471299Y-84747091D01*
X142448436Y-84789866D01*
X142441241Y-84801316D01*
X142412619Y-84840479D01*
X142385405Y-84899078D01*
X142356552Y-84956901D01*
X142350247Y-84980000D01*
X141329000Y-84980000D01*
X141329000Y-84873120D01*
X141277543Y-84614428D01*
X141176607Y-84370746D01*
X141030069Y-84151437D01*
X140843563Y-83964931D01*
X140624254Y-83818393D01*
X140380572Y-83717457D01*
X140121880Y-83666000D01*
X139858120Y-83666000D01*
X139599428Y-83717457D01*
X139355746Y-83818393D01*
X139136437Y-83964931D01*
X138949931Y-84151437D01*
X138803393Y-84370746D01*
X138702457Y-84614428D01*
X138651000Y-84873120D01*
X138651000Y-85136880D01*
X138702457Y-85395572D01*
X138803393Y-85639254D01*
X138949931Y-85858563D01*
X139006630Y-85915262D01*
X138956446Y-85956446D01*
X138932488Y-85985639D01*
X138786678Y-86131449D01*
X138737543Y-85884428D01*
X138636607Y-85640746D01*
X138490069Y-85421437D01*
X138303563Y-85234931D01*
X138084254Y-85088393D01*
X137840572Y-84987457D01*
X137581880Y-84936000D01*
X137318120Y-84936000D01*
X137059428Y-84987457D01*
X136815746Y-85088393D01*
X136596437Y-85234931D01*
X136409931Y-85421437D01*
X136263393Y-85640746D01*
X136162457Y-85884428D01*
X136111000Y-86143120D01*
X136111000Y-86406880D01*
X136162457Y-86665572D01*
X136263393Y-86909254D01*
X136409931Y-87128563D01*
X136596437Y-87315069D01*
X136815746Y-87461607D01*
X136995451Y-87536043D01*
X136903554Y-87582047D01*
X136852581Y-87610569D01*
X136840205Y-87618262D01*
X136815746Y-87628393D01*
X136596437Y-87774931D01*
X136409931Y-87961437D01*
X136263393Y-88180746D01*
X136162457Y-88424428D01*
X136111000Y-88683120D01*
X136111000Y-88946880D01*
X136162457Y-89205572D01*
X136263393Y-89449254D01*
X136409931Y-89668563D01*
X136596437Y-89855069D01*
X136815746Y-90001607D01*
X137017075Y-90085000D01*
X136815746Y-90168393D01*
X136596437Y-90314931D01*
X136409931Y-90501437D01*
X136263393Y-90720746D01*
X136162457Y-90964428D01*
X136111000Y-91223120D01*
X136111000Y-91486880D01*
X136162457Y-91745572D01*
X136263393Y-91989254D01*
X136409931Y-92208563D01*
X136596437Y-92395069D01*
X136815746Y-92541607D01*
X136843077Y-92552928D01*
X136746000Y-92552928D01*
X136621518Y-92565188D01*
X136501820Y-92601498D01*
X136391506Y-92660463D01*
X136294815Y-92739815D01*
X136215463Y-92836506D01*
X136156498Y-92946820D01*
X136120188Y-93066518D01*
X136107928Y-93191000D01*
X132168594Y-93191000D01*
X132158669Y-93184369D01*
X131751925Y-93015890D01*
X131320128Y-92930000D01*
X130879872Y-92930000D01*
X130448075Y-93015890D01*
X130041331Y-93184369D01*
X129675271Y-93428962D01*
X129363962Y-93740271D01*
X129119369Y-94106331D01*
X128950890Y-94513075D01*
X128865000Y-94944872D01*
X128660000Y-94944872D01*
X128660000Y-83514872D01*
X128865000Y-83514872D01*
X128865000Y-83955128D01*
X128950890Y-84386925D01*
X129119369Y-84793669D01*
X129363962Y-85159729D01*
X129675271Y-85471038D01*
X130041331Y-85715631D01*
X130448075Y-85884110D01*
X130879872Y-85970000D01*
X131320128Y-85970000D01*
X131751925Y-85884110D01*
X132158669Y-85715631D01*
X132524729Y-85471038D01*
X132836038Y-85159729D01*
X133080631Y-84793669D01*
X133249110Y-84386925D01*
X133335000Y-83955128D01*
X133335000Y-83514872D01*
X133297301Y-83325347D01*
X133495210Y-83423699D01*
X133844069Y-83518322D01*
X134204684Y-83543067D01*
X134563198Y-83496985D01*
X134905833Y-83381846D01*
X135128486Y-83262836D01*
X135164199Y-83177980D01*
X156751626Y-83177980D01*
X156871514Y-83462836D01*
X157195210Y-83623699D01*
X157544069Y-83718322D01*
X157904684Y-83743067D01*
X158263198Y-83696985D01*
X158605833Y-83581846D01*
X158701648Y-83530632D01*
X158665000Y-83714872D01*
X158665000Y-84155128D01*
X158750890Y-84586925D01*
X158919369Y-84993669D01*
X159163962Y-85359729D01*
X159475271Y-85671038D01*
X159841331Y-85915631D01*
X160248075Y-86084110D01*
X160679872Y-86170000D01*
X161120128Y-86170000D01*
X161551925Y-86084110D01*
X161958669Y-85915631D01*
X162324729Y-85671038D01*
X162636038Y-85359729D01*
X162880631Y-84993669D01*
X163049110Y-84586925D01*
X163135000Y-84155128D01*
X163135000Y-83714872D01*
X163049110Y-83283075D01*
X162880631Y-82876331D01*
X162636038Y-82510271D01*
X162324729Y-82198962D01*
X161958669Y-81954369D01*
X161551925Y-81785890D01*
X161120128Y-81700000D01*
X160679872Y-81700000D01*
X160248075Y-81785890D01*
X159841331Y-81954369D01*
X159678100Y-82063436D01*
X159693067Y-81845316D01*
X159646985Y-81486802D01*
X159531846Y-81144167D01*
X159412836Y-80921514D01*
X159127980Y-80801626D01*
X158029605Y-81900000D01*
X158043748Y-81914142D01*
X157864142Y-82093748D01*
X157850000Y-82079605D01*
X156751626Y-83177980D01*
X135164199Y-83177980D01*
X135248374Y-82977980D01*
X134150000Y-81879605D01*
X134135858Y-81893748D01*
X133956252Y-81714142D01*
X133970395Y-81700000D01*
X134329605Y-81700000D01*
X135427980Y-82798374D01*
X135712836Y-82678486D01*
X135873699Y-82354790D01*
X135968322Y-82005931D01*
X135971838Y-81954684D01*
X156006933Y-81954684D01*
X156053015Y-82313198D01*
X156168154Y-82655833D01*
X156287164Y-82878486D01*
X156572020Y-82998374D01*
X157670395Y-81900000D01*
X156572020Y-80801626D01*
X156287164Y-80921514D01*
X156126301Y-81245210D01*
X156031678Y-81594069D01*
X156006933Y-81954684D01*
X135971838Y-81954684D01*
X135993067Y-81645316D01*
X135946985Y-81286802D01*
X135831846Y-80944167D01*
X135712836Y-80721514D01*
X135476437Y-80622020D01*
X156751626Y-80622020D01*
X157850000Y-81720395D01*
X158948374Y-80622020D01*
X158828486Y-80337164D01*
X158504790Y-80176301D01*
X158155931Y-80081678D01*
X157795316Y-80056933D01*
X157436802Y-80103015D01*
X157094167Y-80218154D01*
X156871514Y-80337164D01*
X156751626Y-80622020D01*
X135476437Y-80622020D01*
X135427980Y-80601626D01*
X134329605Y-81700000D01*
X133970395Y-81700000D01*
X132872020Y-80601626D01*
X132587164Y-80721514D01*
X132426301Y-81045210D01*
X132331678Y-81394069D01*
X132306933Y-81754684D01*
X132320819Y-81862714D01*
X132158669Y-81754369D01*
X131751925Y-81585890D01*
X131320128Y-81500000D01*
X130879872Y-81500000D01*
X130448075Y-81585890D01*
X130041331Y-81754369D01*
X129675271Y-81998962D01*
X129363962Y-82310271D01*
X129119369Y-82676331D01*
X128950890Y-83083075D01*
X128865000Y-83514872D01*
X128660000Y-83514872D01*
X128660000Y-80422020D01*
X133051626Y-80422020D01*
X134150000Y-81520395D01*
X135248374Y-80422020D01*
X135128486Y-80137164D01*
X134804790Y-79976301D01*
X134455931Y-79881678D01*
X134095316Y-79856933D01*
X133736802Y-79903015D01*
X133394167Y-80018154D01*
X133171514Y-80137164D01*
X133051626Y-80422020D01*
X128660000Y-80422020D01*
X128660000Y-80032279D01*
X128669580Y-79934576D01*
X128688580Y-79871644D01*
X128719445Y-79813595D01*
X128760989Y-79762657D01*
X128811644Y-79720752D01*
X128869471Y-79689485D01*
X128932272Y-79670044D01*
X129027835Y-79660000D01*
X162967721Y-79660000D01*
X163065424Y-79669580D01*
X163065424Y-79669580D01*
G37*
X163065424Y-79669580D02*
X163128356Y-79688580D01*
X163186405Y-79719445D01*
X163237343Y-79760989D01*
X163279248Y-79811644D01*
X163310515Y-79869471D01*
X163329956Y-79932272D01*
X163340000Y-80027835D01*
X163340001Y-98967711D01*
X163330420Y-99065424D01*
X163311420Y-99128357D01*
X163280554Y-99186406D01*
X163239011Y-99237343D01*
X163188356Y-99279248D01*
X163130529Y-99310515D01*
X163067728Y-99329956D01*
X162972165Y-99340000D01*
X129032279Y-99340000D01*
X128934576Y-99330420D01*
X128871643Y-99311420D01*
X128813594Y-99280554D01*
X128762657Y-99239011D01*
X128720752Y-99188356D01*
X128689485Y-99130529D01*
X128670044Y-99067728D01*
X128660000Y-98972165D01*
X128660000Y-98477980D01*
X133051626Y-98477980D01*
X133171514Y-98762836D01*
X133495210Y-98923699D01*
X133844069Y-99018322D01*
X134204684Y-99043067D01*
X134563198Y-98996985D01*
X134905833Y-98881846D01*
X135128486Y-98762836D01*
X135164199Y-98677980D01*
X156751626Y-98677980D01*
X156871514Y-98962836D01*
X157195210Y-99123699D01*
X157544069Y-99218322D01*
X157904684Y-99243067D01*
X158263198Y-99196985D01*
X158605833Y-99081846D01*
X158828486Y-98962836D01*
X158948374Y-98677980D01*
X157850000Y-97579605D01*
X156751626Y-98677980D01*
X135164199Y-98677980D01*
X135248374Y-98477980D01*
X134150000Y-97379605D01*
X133051626Y-98477980D01*
X128660000Y-98477980D01*
X128660000Y-94944872D01*
X128865000Y-94944872D01*
X128865000Y-95385128D01*
X128950890Y-95816925D01*
X129119369Y-96223669D01*
X129363962Y-96589729D01*
X129675271Y-96901038D01*
X130041331Y-97145631D01*
X130448075Y-97314110D01*
X130879872Y-97400000D01*
X131320128Y-97400000D01*
X131751925Y-97314110D01*
X132158669Y-97145631D01*
X132321900Y-97036564D01*
X132306933Y-97254684D01*
X132353015Y-97613198D01*
X132468154Y-97955833D01*
X132587164Y-98178486D01*
X132872020Y-98298374D01*
X133970395Y-97200000D01*
X134329605Y-97200000D01*
X135427980Y-98298374D01*
X135712836Y-98178486D01*
X135873699Y-97854790D01*
X135968322Y-97505931D01*
X135993067Y-97145316D01*
X135946985Y-96786802D01*
X135831846Y-96444167D01*
X135712836Y-96221514D01*
X135427980Y-96101626D01*
X134329605Y-97200000D01*
X133970395Y-97200000D01*
X133956252Y-97185858D01*
X134135858Y-97006252D01*
X134150000Y-97020395D01*
X135248374Y-95922020D01*
X135128486Y-95637164D01*
X134804790Y-95476301D01*
X134455931Y-95381678D01*
X134095316Y-95356933D01*
X133736802Y-95403015D01*
X133394167Y-95518154D01*
X133298352Y-95569368D01*
X133335000Y-95385128D01*
X133335000Y-94944872D01*
X133249110Y-94513075D01*
X133080631Y-94106331D01*
X132836038Y-93740271D01*
X132524729Y-93428962D01*
X132168594Y-93191000D01*
X136107928Y-93191000D01*
X136107928Y-94599000D01*
X136120188Y-94723482D01*
X136156498Y-94843180D01*
X136215463Y-94953494D01*
X136294815Y-95050185D01*
X136391506Y-95129537D01*
X136501820Y-95188502D01*
X136621518Y-95224812D01*
X136746000Y-95237072D01*
X138154000Y-95237072D01*
X138278482Y-95224812D01*
X138398180Y-95188502D01*
X138508494Y-95129537D01*
X138605185Y-95050185D01*
X138684537Y-94953494D01*
X138693753Y-94936252D01*
X140526865Y-96769365D01*
X140550820Y-96798554D01*
X140580007Y-96822507D01*
X140580008Y-96822508D01*
X140610922Y-96847878D01*
X140667307Y-96894152D01*
X140800205Y-96965187D01*
X140944408Y-97008931D01*
X141056796Y-97020000D01*
X141056798Y-97020000D01*
X141094373Y-97023701D01*
X141131949Y-97020000D01*
X142090100Y-97020000D01*
X142091368Y-97050130D01*
X142106629Y-97112920D01*
X142120119Y-97176099D01*
X142139310Y-97220653D01*
X142143778Y-97233421D01*
X142156552Y-97280218D01*
X142185405Y-97338041D01*
X142212619Y-97396640D01*
X142241241Y-97435803D01*
X142248436Y-97447253D01*
X142271299Y-97490028D01*
X142312295Y-97539982D01*
X142351868Y-97591058D01*
X142388480Y-97622864D01*
X142398052Y-97632436D01*
X142429856Y-97669046D01*
X142480924Y-97708613D01*
X142530885Y-97749615D01*
X142573665Y-97772481D01*
X142585106Y-97779670D01*
X142624274Y-97808296D01*
X142682885Y-97835515D01*
X142740696Y-97864362D01*
X142787493Y-97877136D01*
X142800259Y-97881603D01*
X142844815Y-97900795D01*
X142907994Y-97914285D01*
X142970784Y-97929546D01*
X143019259Y-97931587D01*
X143032686Y-97933099D01*
X143080384Y-97941894D01*
X143145000Y-97940988D01*
X143209617Y-97941894D01*
X143257313Y-97933100D01*
X143270742Y-97931587D01*
X143319215Y-97929546D01*
X143382012Y-97914283D01*
X143445185Y-97900794D01*
X143489735Y-97881605D01*
X143502506Y-97877136D01*
X143549303Y-97864362D01*
X143607126Y-97835509D01*
X143665725Y-97808295D01*
X143704888Y-97779673D01*
X143716338Y-97772478D01*
X143759113Y-97749615D01*
X143809067Y-97708619D01*
X143860143Y-97669046D01*
X143891949Y-97632434D01*
X143901521Y-97622862D01*
X143938131Y-97591058D01*
X143977698Y-97539990D01*
X144018700Y-97490029D01*
X144041566Y-97447249D01*
X144048755Y-97435808D01*
X144077381Y-97396640D01*
X144104600Y-97338029D01*
X144133447Y-97280218D01*
X144146221Y-97233421D01*
X144150688Y-97220657D01*
X144169876Y-97176110D01*
X144183365Y-97112937D01*
X144198631Y-97050130D01*
X144199899Y-97020000D01*
X144451725Y-97020000D01*
X144458760Y-97033161D01*
X144541284Y-97133716D01*
X144641839Y-97216240D01*
X144756562Y-97277561D01*
X144881044Y-97315322D01*
X145010500Y-97328072D01*
X145719500Y-97328072D01*
X145848956Y-97315322D01*
X145973438Y-97277561D01*
X146088161Y-97216240D01*
X146188716Y-97133716D01*
X146200000Y-97119967D01*
X146211284Y-97133716D01*
X146311839Y-97216240D01*
X146426562Y-97277561D01*
X146551044Y-97315322D01*
X146680500Y-97328072D01*
X147389500Y-97328072D01*
X147518956Y-97315322D01*
X147643438Y-97277561D01*
X147758161Y-97216240D01*
X147858716Y-97133716D01*
X147941240Y-97033161D01*
X147948275Y-97020000D01*
X147982484Y-97020000D01*
X147984207Y-97035291D01*
X147989808Y-97092166D01*
X147991368Y-97129215D01*
X148006631Y-97192012D01*
X148020120Y-97255185D01*
X148039309Y-97299735D01*
X148043778Y-97312506D01*
X148056552Y-97359303D01*
X148085405Y-97417126D01*
X148112619Y-97475725D01*
X148141241Y-97514888D01*
X148148436Y-97526338D01*
X148171299Y-97569113D01*
X148212295Y-97619067D01*
X148251868Y-97670143D01*
X148288480Y-97701949D01*
X148298052Y-97711521D01*
X148329856Y-97748131D01*
X148380924Y-97787698D01*
X148430885Y-97828700D01*
X148473665Y-97851566D01*
X148485106Y-97858755D01*
X148524274Y-97887381D01*
X148582885Y-97914600D01*
X148640696Y-97943447D01*
X148687493Y-97956221D01*
X148700257Y-97960688D01*
X148744804Y-97979876D01*
X148807977Y-97993365D01*
X148870784Y-98008631D01*
X148919257Y-98010672D01*
X148932683Y-98012184D01*
X148980396Y-98020981D01*
X149045000Y-98020074D01*
X149109605Y-98020981D01*
X149157314Y-98012185D01*
X149170744Y-98010671D01*
X149219215Y-98008631D01*
X149282015Y-97993367D01*
X149345196Y-97979876D01*
X149389743Y-97960687D01*
X149402506Y-97956221D01*
X149449303Y-97943447D01*
X149507126Y-97914594D01*
X149565725Y-97887380D01*
X149604888Y-97858758D01*
X149616338Y-97851563D01*
X149659113Y-97828700D01*
X149709067Y-97787704D01*
X149760143Y-97748131D01*
X149791949Y-97711519D01*
X149801521Y-97701947D01*
X149838131Y-97670143D01*
X149877698Y-97619075D01*
X149918700Y-97569114D01*
X149941566Y-97526334D01*
X149948755Y-97514893D01*
X149977381Y-97475725D01*
X149987152Y-97454684D01*
X156006933Y-97454684D01*
X156053015Y-97813198D01*
X156168154Y-98155833D01*
X156287164Y-98378486D01*
X156572020Y-98498374D01*
X157670395Y-97400000D01*
X156572020Y-96301626D01*
X156287164Y-96421514D01*
X156126301Y-96745210D01*
X156031678Y-97094069D01*
X156006933Y-97454684D01*
X149987152Y-97454684D01*
X150004600Y-97417114D01*
X150033447Y-97359303D01*
X150046221Y-97312506D01*
X150050686Y-97299745D01*
X150069876Y-97255196D01*
X150083368Y-97192011D01*
X150098631Y-97129215D01*
X150100190Y-97092184D01*
X150105793Y-97035290D01*
X150107516Y-97020000D01*
X151168051Y-97020000D01*
X151205626Y-97023701D01*
X151243201Y-97020000D01*
X151243204Y-97020000D01*
X151355592Y-97008931D01*
X151499795Y-96965187D01*
X151632693Y-96894152D01*
X151749180Y-96798554D01*
X151773138Y-96769361D01*
X152420479Y-96122020D01*
X156751626Y-96122020D01*
X157850000Y-97220395D01*
X157864142Y-97206252D01*
X158043748Y-97385858D01*
X158029605Y-97400000D01*
X159127980Y-98498374D01*
X159412836Y-98378486D01*
X159573699Y-98054790D01*
X159668322Y-97705931D01*
X159693067Y-97345316D01*
X159679181Y-97237286D01*
X159841331Y-97345631D01*
X160248075Y-97514110D01*
X160679872Y-97600000D01*
X161120128Y-97600000D01*
X161551925Y-97514110D01*
X161958669Y-97345631D01*
X162324729Y-97101038D01*
X162636038Y-96789729D01*
X162880631Y-96423669D01*
X163049110Y-96016925D01*
X163135000Y-95585128D01*
X163135000Y-95144872D01*
X163049110Y-94713075D01*
X162880631Y-94306331D01*
X162636038Y-93940271D01*
X162324729Y-93628962D01*
X161958669Y-93384369D01*
X161551925Y-93215890D01*
X161120128Y-93130000D01*
X160679872Y-93130000D01*
X160248075Y-93215890D01*
X159841331Y-93384369D01*
X159475271Y-93628962D01*
X159163962Y-93940271D01*
X158919369Y-94306331D01*
X158750890Y-94713075D01*
X158665000Y-95144872D01*
X158665000Y-95585128D01*
X158702699Y-95774653D01*
X158504790Y-95676301D01*
X158155931Y-95581678D01*
X157795316Y-95556933D01*
X157436802Y-95603015D01*
X157094167Y-95718154D01*
X156871514Y-95837164D01*
X156751626Y-96122020D01*
X152420479Y-96122020D01*
X153348612Y-95193887D01*
X153394815Y-95250185D01*
X153491506Y-95329537D01*
X153601820Y-95388502D01*
X153721518Y-95424812D01*
X153846000Y-95437072D01*
X155254000Y-95437072D01*
X155378482Y-95424812D01*
X155498180Y-95388502D01*
X155608494Y-95329537D01*
X155705185Y-95250185D01*
X155784537Y-95153494D01*
X155843502Y-95043180D01*
X155879812Y-94923482D01*
X155892072Y-94799000D01*
X155892072Y-93391000D01*
X155879812Y-93266518D01*
X155843502Y-93146820D01*
X155784537Y-93036506D01*
X155705185Y-92939815D01*
X155608494Y-92860463D01*
X155498180Y-92801498D01*
X155378482Y-92765188D01*
X155254000Y-92752928D01*
X155156923Y-92752928D01*
X155184254Y-92741607D01*
X155403563Y-92595069D01*
X155590069Y-92408563D01*
X155736607Y-92189254D01*
X155837543Y-91945572D01*
X155889000Y-91686880D01*
X155889000Y-91423120D01*
X155837543Y-91164428D01*
X155736607Y-90920746D01*
X155590069Y-90701437D01*
X155403563Y-90514931D01*
X155184254Y-90368393D01*
X154982925Y-90285000D01*
X155184254Y-90201607D01*
X155403563Y-90055069D01*
X155590069Y-89868563D01*
X155736607Y-89649254D01*
X155837543Y-89405572D01*
X155889000Y-89146880D01*
X155889000Y-88883120D01*
X155837543Y-88624428D01*
X155736607Y-88380746D01*
X155590069Y-88161437D01*
X155403563Y-87974931D01*
X155184254Y-87828393D01*
X155159794Y-87818261D01*
X155147417Y-87810568D01*
X155096445Y-87782047D01*
X155004548Y-87736043D01*
X155184254Y-87661607D01*
X155403563Y-87515069D01*
X155590069Y-87328563D01*
X155736607Y-87109254D01*
X155837543Y-86865572D01*
X155889000Y-86606880D01*
X155889000Y-86343120D01*
X155837543Y-86084428D01*
X155736607Y-85840746D01*
X155590069Y-85621437D01*
X155403563Y-85434931D01*
X155184254Y-85288393D01*
X154940572Y-85187457D01*
X154681880Y-85136000D01*
X154418120Y-85136000D01*
X154159428Y-85187457D01*
X153915746Y-85288393D01*
X153696437Y-85434931D01*
X153509931Y-85621437D01*
X153363393Y-85840746D01*
X153262457Y-86084428D01*
X153213322Y-86331449D01*
X152995253Y-86113380D01*
X153050069Y-86058563D01*
X153196607Y-85839254D01*
X153297543Y-85595572D01*
X153349000Y-85336880D01*
X153349000Y-85073120D01*
X153297543Y-84814428D01*
X153196607Y-84570746D01*
X153050069Y-84351437D01*
X152863563Y-84164931D01*
X152644254Y-84018393D01*
X152400572Y-83917457D01*
X152141880Y-83866000D01*
X151878120Y-83866000D01*
X151619428Y-83917457D01*
X151375746Y-84018393D01*
X151156437Y-84164931D01*
X150969931Y-84351437D01*
X150823393Y-84570746D01*
X150722457Y-84814428D01*
X150671044Y-85072896D01*
X150599795Y-85034813D01*
X150455592Y-84991069D01*
X150343204Y-84980000D01*
X150343201Y-84980000D01*
X150305626Y-84976299D01*
X150268051Y-84980000D01*
X149896865Y-84980000D01*
X149893368Y-84965615D01*
X149879876Y-84902430D01*
X149860686Y-84857881D01*
X149856221Y-84845120D01*
X149843447Y-84798323D01*
X149814600Y-84740512D01*
X149787381Y-84681901D01*
X149758755Y-84642733D01*
X149751566Y-84631292D01*
X149728700Y-84588512D01*
X149687698Y-84538551D01*
X149648131Y-84487483D01*
X149611521Y-84455679D01*
X149601949Y-84446107D01*
X149570143Y-84409495D01*
X149519067Y-84369922D01*
X149469113Y-84328926D01*
X149426338Y-84306063D01*
X149414888Y-84298868D01*
X149375725Y-84270246D01*
X149317126Y-84243032D01*
X149259303Y-84214179D01*
X149212506Y-84201405D01*
X149199743Y-84196939D01*
X149155196Y-84177750D01*
X149092015Y-84164259D01*
X149029215Y-84148995D01*
X148980744Y-84146955D01*
X148967314Y-84145441D01*
X148919605Y-84136645D01*
X148855000Y-84137552D01*
X148790396Y-84136645D01*
X148742683Y-84145442D01*
X148729257Y-84146954D01*
X148680784Y-84148995D01*
X148617977Y-84164261D01*
X148554804Y-84177750D01*
X148510257Y-84196938D01*
X148497493Y-84201405D01*
X148450696Y-84214179D01*
X148392885Y-84243026D01*
X148334274Y-84270245D01*
X148295106Y-84298871D01*
X148283665Y-84306060D01*
X148240885Y-84328926D01*
X148190924Y-84369928D01*
X148139856Y-84409495D01*
X148108052Y-84446105D01*
X148098480Y-84455677D01*
X148061868Y-84487483D01*
X148022295Y-84538559D01*
X147981299Y-84588513D01*
X147958436Y-84631288D01*
X147951241Y-84642738D01*
X147922619Y-84681901D01*
X147895405Y-84740500D01*
X147866552Y-84798323D01*
X147853778Y-84845120D01*
X147849309Y-84857891D01*
X147849095Y-84858388D01*
X147758161Y-84783760D01*
X147643438Y-84722439D01*
X147518956Y-84684678D01*
X147389500Y-84671928D01*
X146680500Y-84671928D01*
X146551044Y-84684678D01*
X146426562Y-84722439D01*
X146311839Y-84783760D01*
X146211284Y-84866284D01*
X146200000Y-84880033D01*
X146188716Y-84866284D01*
X146088161Y-84783760D01*
X145973438Y-84722439D01*
X145848956Y-84684678D01*
X145719500Y-84671928D01*
X145010500Y-84671928D01*
X144881044Y-84684678D01*
X144756562Y-84722439D01*
X144641839Y-84783760D01*
X144541284Y-84866284D01*
X144458760Y-84966839D01*
X144451725Y-84980000D01*
X144339752Y-84980000D01*
X144333447Y-84956901D01*
X144304600Y-84899090D01*
X144277381Y-84840479D01*
X144248755Y-84801311D01*
X144241566Y-84789870D01*
X144218700Y-84747090D01*
X144177698Y-84697129D01*
X144138131Y-84646061D01*
X144101521Y-84614257D01*
X144091949Y-84604685D01*
X144060143Y-84568073D01*
X144009067Y-84528500D01*
X143959113Y-84487504D01*
X143916338Y-84464641D01*
X143904888Y-84457446D01*
X143865725Y-84428824D01*
X143807126Y-84401610D01*
X143749303Y-84372757D01*
X143702506Y-84359983D01*
X143689735Y-84355514D01*
X143645185Y-84336325D01*
X143582012Y-84322836D01*
X143519215Y-84307573D01*
X143470742Y-84305532D01*
X143457313Y-84304019D01*
X143409617Y-84295225D01*
X143345000Y-84296131D01*
X143280384Y-84295225D01*
X143232686Y-84304020D01*
X143219259Y-84305532D01*
X143170784Y-84307573D01*
X143107994Y-84322834D01*
X143044815Y-84336324D01*
X143000259Y-84355516D01*
X142987493Y-84359983D01*
X142940696Y-84372757D01*
X142882885Y-84401604D01*
X142824274Y-84428823D01*
X142785106Y-84457449D01*
X142773665Y-84464638D01*
X142730885Y-84487504D01*
X142680924Y-84528506D01*
X142629856Y-84568073D01*
X142598052Y-84604683D01*
X142588480Y-84614255D01*
X142551868Y-84646061D01*
X142512295Y-84697137D01*
X142471299Y-84747091D01*
X142448436Y-84789866D01*
X142441241Y-84801316D01*
X142412619Y-84840479D01*
X142385405Y-84899078D01*
X142356552Y-84956901D01*
X142350247Y-84980000D01*
X141329000Y-84980000D01*
X141329000Y-84873120D01*
X141277543Y-84614428D01*
X141176607Y-84370746D01*
X141030069Y-84151437D01*
X140843563Y-83964931D01*
X140624254Y-83818393D01*
X140380572Y-83717457D01*
X140121880Y-83666000D01*
X139858120Y-83666000D01*
X139599428Y-83717457D01*
X139355746Y-83818393D01*
X139136437Y-83964931D01*
X138949931Y-84151437D01*
X138803393Y-84370746D01*
X138702457Y-84614428D01*
X138651000Y-84873120D01*
X138651000Y-85136880D01*
X138702457Y-85395572D01*
X138803393Y-85639254D01*
X138949931Y-85858563D01*
X139006630Y-85915262D01*
X138956446Y-85956446D01*
X138932488Y-85985639D01*
X138786678Y-86131449D01*
X138737543Y-85884428D01*
X138636607Y-85640746D01*
X138490069Y-85421437D01*
X138303563Y-85234931D01*
X138084254Y-85088393D01*
X137840572Y-84987457D01*
X137581880Y-84936000D01*
X137318120Y-84936000D01*
X137059428Y-84987457D01*
X136815746Y-85088393D01*
X136596437Y-85234931D01*
X136409931Y-85421437D01*
X136263393Y-85640746D01*
X136162457Y-85884428D01*
X136111000Y-86143120D01*
X136111000Y-86406880D01*
X136162457Y-86665572D01*
X136263393Y-86909254D01*
X136409931Y-87128563D01*
X136596437Y-87315069D01*
X136815746Y-87461607D01*
X136995451Y-87536043D01*
X136903554Y-87582047D01*
X136852581Y-87610569D01*
X136840205Y-87618262D01*
X136815746Y-87628393D01*
X136596437Y-87774931D01*
X136409931Y-87961437D01*
X136263393Y-88180746D01*
X136162457Y-88424428D01*
X136111000Y-88683120D01*
X136111000Y-88946880D01*
X136162457Y-89205572D01*
X136263393Y-89449254D01*
X136409931Y-89668563D01*
X136596437Y-89855069D01*
X136815746Y-90001607D01*
X137017075Y-90085000D01*
X136815746Y-90168393D01*
X136596437Y-90314931D01*
X136409931Y-90501437D01*
X136263393Y-90720746D01*
X136162457Y-90964428D01*
X136111000Y-91223120D01*
X136111000Y-91486880D01*
X136162457Y-91745572D01*
X136263393Y-91989254D01*
X136409931Y-92208563D01*
X136596437Y-92395069D01*
X136815746Y-92541607D01*
X136843077Y-92552928D01*
X136746000Y-92552928D01*
X136621518Y-92565188D01*
X136501820Y-92601498D01*
X136391506Y-92660463D01*
X136294815Y-92739815D01*
X136215463Y-92836506D01*
X136156498Y-92946820D01*
X136120188Y-93066518D01*
X136107928Y-93191000D01*
X132168594Y-93191000D01*
X132158669Y-93184369D01*
X131751925Y-93015890D01*
X131320128Y-92930000D01*
X130879872Y-92930000D01*
X130448075Y-93015890D01*
X130041331Y-93184369D01*
X129675271Y-93428962D01*
X129363962Y-93740271D01*
X129119369Y-94106331D01*
X128950890Y-94513075D01*
X128865000Y-94944872D01*
X128660000Y-94944872D01*
X128660000Y-83514872D01*
X128865000Y-83514872D01*
X128865000Y-83955128D01*
X128950890Y-84386925D01*
X129119369Y-84793669D01*
X129363962Y-85159729D01*
X129675271Y-85471038D01*
X130041331Y-85715631D01*
X130448075Y-85884110D01*
X130879872Y-85970000D01*
X131320128Y-85970000D01*
X131751925Y-85884110D01*
X132158669Y-85715631D01*
X132524729Y-85471038D01*
X132836038Y-85159729D01*
X133080631Y-84793669D01*
X133249110Y-84386925D01*
X133335000Y-83955128D01*
X133335000Y-83514872D01*
X133297301Y-83325347D01*
X133495210Y-83423699D01*
X133844069Y-83518322D01*
X134204684Y-83543067D01*
X134563198Y-83496985D01*
X134905833Y-83381846D01*
X135128486Y-83262836D01*
X135164199Y-83177980D01*
X156751626Y-83177980D01*
X156871514Y-83462836D01*
X157195210Y-83623699D01*
X157544069Y-83718322D01*
X157904684Y-83743067D01*
X158263198Y-83696985D01*
X158605833Y-83581846D01*
X158701648Y-83530632D01*
X158665000Y-83714872D01*
X158665000Y-84155128D01*
X158750890Y-84586925D01*
X158919369Y-84993669D01*
X159163962Y-85359729D01*
X159475271Y-85671038D01*
X159841331Y-85915631D01*
X160248075Y-86084110D01*
X160679872Y-86170000D01*
X161120128Y-86170000D01*
X161551925Y-86084110D01*
X161958669Y-85915631D01*
X162324729Y-85671038D01*
X162636038Y-85359729D01*
X162880631Y-84993669D01*
X163049110Y-84586925D01*
X163135000Y-84155128D01*
X163135000Y-83714872D01*
X163049110Y-83283075D01*
X162880631Y-82876331D01*
X162636038Y-82510271D01*
X162324729Y-82198962D01*
X161958669Y-81954369D01*
X161551925Y-81785890D01*
X161120128Y-81700000D01*
X160679872Y-81700000D01*
X160248075Y-81785890D01*
X159841331Y-81954369D01*
X159678100Y-82063436D01*
X159693067Y-81845316D01*
X159646985Y-81486802D01*
X159531846Y-81144167D01*
X159412836Y-80921514D01*
X159127980Y-80801626D01*
X158029605Y-81900000D01*
X158043748Y-81914142D01*
X157864142Y-82093748D01*
X157850000Y-82079605D01*
X156751626Y-83177980D01*
X135164199Y-83177980D01*
X135248374Y-82977980D01*
X134150000Y-81879605D01*
X134135858Y-81893748D01*
X133956252Y-81714142D01*
X133970395Y-81700000D01*
X134329605Y-81700000D01*
X135427980Y-82798374D01*
X135712836Y-82678486D01*
X135873699Y-82354790D01*
X135968322Y-82005931D01*
X135971838Y-81954684D01*
X156006933Y-81954684D01*
X156053015Y-82313198D01*
X156168154Y-82655833D01*
X156287164Y-82878486D01*
X156572020Y-82998374D01*
X157670395Y-81900000D01*
X156572020Y-80801626D01*
X156287164Y-80921514D01*
X156126301Y-81245210D01*
X156031678Y-81594069D01*
X156006933Y-81954684D01*
X135971838Y-81954684D01*
X135993067Y-81645316D01*
X135946985Y-81286802D01*
X135831846Y-80944167D01*
X135712836Y-80721514D01*
X135476437Y-80622020D01*
X156751626Y-80622020D01*
X157850000Y-81720395D01*
X158948374Y-80622020D01*
X158828486Y-80337164D01*
X158504790Y-80176301D01*
X158155931Y-80081678D01*
X157795316Y-80056933D01*
X157436802Y-80103015D01*
X157094167Y-80218154D01*
X156871514Y-80337164D01*
X156751626Y-80622020D01*
X135476437Y-80622020D01*
X135427980Y-80601626D01*
X134329605Y-81700000D01*
X133970395Y-81700000D01*
X132872020Y-80601626D01*
X132587164Y-80721514D01*
X132426301Y-81045210D01*
X132331678Y-81394069D01*
X132306933Y-81754684D01*
X132320819Y-81862714D01*
X132158669Y-81754369D01*
X131751925Y-81585890D01*
X131320128Y-81500000D01*
X130879872Y-81500000D01*
X130448075Y-81585890D01*
X130041331Y-81754369D01*
X129675271Y-81998962D01*
X129363962Y-82310271D01*
X129119369Y-82676331D01*
X128950890Y-83083075D01*
X128865000Y-83514872D01*
X128660000Y-83514872D01*
X128660000Y-80422020D01*
X133051626Y-80422020D01*
X134150000Y-81520395D01*
X135248374Y-80422020D01*
X135128486Y-80137164D01*
X134804790Y-79976301D01*
X134455931Y-79881678D01*
X134095316Y-79856933D01*
X133736802Y-79903015D01*
X133394167Y-80018154D01*
X133171514Y-80137164D01*
X133051626Y-80422020D01*
X128660000Y-80422020D01*
X128660000Y-80032279D01*
X128669580Y-79934576D01*
X128688580Y-79871644D01*
X128719445Y-79813595D01*
X128760989Y-79762657D01*
X128811644Y-79720752D01*
X128869471Y-79689485D01*
X128932272Y-79670044D01*
X129027835Y-79660000D01*
X162967721Y-79660000D01*
X163065424Y-79669580D01*
D18*
G36*
X152702717Y-92837188D02*
G01*
X152713045Y-92920306D01*
X152713971Y-92923733D01*
X152745587Y-92997667D01*
X152747268Y-93000508D01*
X152793860Y-93059957D01*
X152795419Y-93061616D01*
X152851995Y-93111899D01*
X152852785Y-93112545D01*
X152914258Y-93158909D01*
X152975229Y-93206355D01*
X153030431Y-93259732D01*
X153075406Y-93324228D01*
X153105900Y-93405488D01*
X153115843Y-93496827D01*
X152881123Y-93496827D01*
X152871813Y-93426804D01*
X152871245Y-93424380D01*
X152870215Y-93422115D01*
X152839815Y-93369609D01*
X152838362Y-93367587D01*
X152836543Y-93365887D01*
X152835316Y-93365056D01*
X152788179Y-93337023D01*
X152785924Y-93335967D01*
X152783263Y-93335337D01*
X152722276Y-93327709D01*
X152719174Y-93327703D01*
X152647225Y-93336410D01*
X152645531Y-93336733D01*
X152565509Y-93357706D01*
X152564616Y-93357976D01*
X152479406Y-93387146D01*
X152479003Y-93387291D01*
X152391495Y-93420588D01*
X152391461Y-93420601D01*
X152304712Y-93453890D01*
X152230022Y-93480156D01*
X151688537Y-92789961D01*
X152702717Y-92837188D01*
X152702717Y-92837188D01*
G37*
X152702717Y-92837188D02*
X152713045Y-92920306D01*
X152713971Y-92923733D01*
X152745587Y-92997667D01*
X152747268Y-93000508D01*
X152793860Y-93059957D01*
X152795419Y-93061616D01*
X152851995Y-93111899D01*
X152852785Y-93112545D01*
X152914258Y-93158909D01*
X152975229Y-93206355D01*
X153030431Y-93259732D01*
X153075406Y-93324228D01*
X153105900Y-93405488D01*
X153115843Y-93496827D01*
X152881123Y-93496827D01*
X152871813Y-93426804D01*
X152871245Y-93424380D01*
X152870215Y-93422115D01*
X152839815Y-93369609D01*
X152838362Y-93367587D01*
X152836543Y-93365887D01*
X152835316Y-93365056D01*
X152788179Y-93337023D01*
X152785924Y-93335967D01*
X152783263Y-93335337D01*
X152722276Y-93327709D01*
X152719174Y-93327703D01*
X152647225Y-93336410D01*
X152645531Y-93336733D01*
X152565509Y-93357706D01*
X152564616Y-93357976D01*
X152479406Y-93387146D01*
X152479003Y-93387291D01*
X152391495Y-93420588D01*
X152391461Y-93420601D01*
X152304712Y-93453890D01*
X152230022Y-93480156D01*
X151688537Y-92789961D01*
X152702717Y-92837188D01*
G36*
X139991368Y-93316086D02*
G01*
X139905598Y-93314767D01*
X139810539Y-93309956D01*
X139810536Y-93309956D01*
X139717546Y-93305270D01*
X139717059Y-93305255D01*
X139628727Y-93304195D01*
X139627631Y-93304229D01*
X139546341Y-93310288D01*
X139544415Y-93310581D01*
X139472555Y-93327250D01*
X139469633Y-93328320D01*
X139409589Y-93359092D01*
X139407495Y-93360439D01*
X139406164Y-93361657D01*
X139360320Y-93410024D01*
X139358792Y-93411990D01*
X139357833Y-93413831D01*
X139328578Y-93483285D01*
X139327657Y-93486835D01*
X139318613Y-93569548D01*
X139083284Y-93569548D01*
X139088706Y-93449044D01*
X139104934Y-93338098D01*
X139128821Y-93244155D01*
X139157889Y-93161875D01*
X139189670Y-93086068D01*
X139221638Y-93011620D01*
X139221848Y-93011098D01*
X139251223Y-92933361D01*
X139251570Y-92932307D01*
X139275763Y-92846189D01*
X139276067Y-92844819D01*
X139292483Y-92745226D01*
X139292635Y-92743810D01*
X139298155Y-92635966D01*
X140285473Y-92482754D01*
X139991368Y-93316086D01*
X139991368Y-93316086D01*
G37*
X139991368Y-93316086D02*
X139905598Y-93314767D01*
X139810539Y-93309956D01*
X139810536Y-93309956D01*
X139717546Y-93305270D01*
X139717059Y-93305255D01*
X139628727Y-93304195D01*
X139627631Y-93304229D01*
X139546341Y-93310288D01*
X139544415Y-93310581D01*
X139472555Y-93327250D01*
X139469633Y-93328320D01*
X139409589Y-93359092D01*
X139407495Y-93360439D01*
X139406164Y-93361657D01*
X139360320Y-93410024D01*
X139358792Y-93411990D01*
X139357833Y-93413831D01*
X139328578Y-93483285D01*
X139327657Y-93486835D01*
X139318613Y-93569548D01*
X139083284Y-93569548D01*
X139088706Y-93449044D01*
X139104934Y-93338098D01*
X139128821Y-93244155D01*
X139157889Y-93161875D01*
X139189670Y-93086068D01*
X139221638Y-93011620D01*
X139221848Y-93011098D01*
X139251223Y-92933361D01*
X139251570Y-92932307D01*
X139275763Y-92846189D01*
X139276067Y-92844819D01*
X139292483Y-92745226D01*
X139292635Y-92743810D01*
X139298155Y-92635966D01*
X140285473Y-92482754D01*
X139991368Y-93316086D01*
G36*
X138013632Y-93481245D02*
G01*
X138093498Y-93571037D01*
X138163986Y-93655512D01*
X138164065Y-93655606D01*
X138230130Y-93733240D01*
X138230648Y-93733812D01*
X138297322Y-93803142D01*
X138298398Y-93804139D01*
X138370823Y-93863839D01*
X138372488Y-93865001D01*
X138455809Y-93913744D01*
X138457847Y-93914705D01*
X138557207Y-93951163D01*
X138559217Y-93951718D01*
X138679762Y-93974567D01*
X138681444Y-93974771D01*
X138816300Y-93982035D01*
X138816300Y-94217827D01*
X138648014Y-94224971D01*
X138646778Y-94225085D01*
X138496718Y-94246265D01*
X138495382Y-94246527D01*
X138368771Y-94278521D01*
X138367535Y-94278901D01*
X138257436Y-94319005D01*
X138256545Y-94319368D01*
X138156022Y-94364878D01*
X138155648Y-94365055D01*
X138057858Y-94413221D01*
X137956118Y-94461220D01*
X137843556Y-94506379D01*
X137713068Y-94546134D01*
X137566053Y-94576132D01*
X137130722Y-93798034D01*
X137925312Y-93393409D01*
X138013632Y-93481245D01*
X138013632Y-93481245D01*
G37*
X138013632Y-93481245D02*
X138093498Y-93571037D01*
X138163986Y-93655512D01*
X138164065Y-93655606D01*
X138230130Y-93733240D01*
X138230648Y-93733812D01*
X138297322Y-93803142D01*
X138298398Y-93804139D01*
X138370823Y-93863839D01*
X138372488Y-93865001D01*
X138455809Y-93913744D01*
X138457847Y-93914705D01*
X138557207Y-93951163D01*
X138559217Y-93951718D01*
X138679762Y-93974567D01*
X138681444Y-93974771D01*
X138816300Y-93982035D01*
X138816300Y-94217827D01*
X138648014Y-94224971D01*
X138646778Y-94225085D01*
X138496718Y-94246265D01*
X138495382Y-94246527D01*
X138368771Y-94278521D01*
X138367535Y-94278901D01*
X138257436Y-94319005D01*
X138256545Y-94319368D01*
X138156022Y-94364878D01*
X138155648Y-94365055D01*
X138057858Y-94413221D01*
X137956118Y-94461220D01*
X137843556Y-94506379D01*
X137713068Y-94546134D01*
X137566053Y-94576132D01*
X137130722Y-93798034D01*
X137925312Y-93393409D01*
X138013632Y-93481245D01*
G36*
X154879669Y-94119073D02*
G01*
X154202500Y-94691890D01*
X154105585Y-94627109D01*
X154010207Y-94546267D01*
X153921463Y-94460875D01*
X153837454Y-94377931D01*
X153837049Y-94377548D01*
X153755909Y-94304176D01*
X153754728Y-94303230D01*
X153674409Y-94246384D01*
X153671885Y-94244997D01*
X153590280Y-94211575D01*
X153587895Y-94210862D01*
X153585930Y-94210636D01*
X153500936Y-94207535D01*
X153498451Y-94207689D01*
X153495993Y-94208344D01*
X153405504Y-94242461D01*
X153403271Y-94243563D01*
X153402065Y-94244415D01*
X153312850Y-94315572D01*
X153146469Y-94149191D01*
X153245367Y-94059732D01*
X153345039Y-93988047D01*
X153437989Y-93936299D01*
X153526248Y-93898176D01*
X153611855Y-93867437D01*
X153696444Y-93837961D01*
X153697021Y-93837744D01*
X153782031Y-93803409D01*
X153783144Y-93802895D01*
X153870290Y-93757481D01*
X153871626Y-93756677D01*
X153962678Y-93693945D01*
X153963928Y-93692964D01*
X154053610Y-93612957D01*
X154879669Y-94119073D01*
X154879669Y-94119073D01*
G37*
X154879669Y-94119073D02*
X154202500Y-94691890D01*
X154105585Y-94627109D01*
X154010207Y-94546267D01*
X153921463Y-94460875D01*
X153837454Y-94377931D01*
X153837049Y-94377548D01*
X153755909Y-94304176D01*
X153754728Y-94303230D01*
X153674409Y-94246384D01*
X153671885Y-94244997D01*
X153590280Y-94211575D01*
X153587895Y-94210862D01*
X153585930Y-94210636D01*
X153500936Y-94207535D01*
X153498451Y-94207689D01*
X153495993Y-94208344D01*
X153405504Y-94242461D01*
X153403271Y-94243563D01*
X153402065Y-94244415D01*
X153312850Y-94315572D01*
X153146469Y-94149191D01*
X153245367Y-94059732D01*
X153345039Y-93988047D01*
X153437989Y-93936299D01*
X153526248Y-93898176D01*
X153611855Y-93867437D01*
X153696444Y-93837961D01*
X153697021Y-93837744D01*
X153782031Y-93803409D01*
X153783144Y-93802895D01*
X153870290Y-93757481D01*
X153871626Y-93756677D01*
X153962678Y-93693945D01*
X153963928Y-93692964D01*
X154053610Y-93612957D01*
X154879669Y-94119073D01*
G36*
X153914610Y-87937925D02*
G01*
X153915567Y-87938722D01*
X154036266Y-88029517D01*
X154037413Y-88030286D01*
X154149243Y-88096742D01*
X154150418Y-88097359D01*
X154256446Y-88146199D01*
X154257380Y-88146585D01*
X154360672Y-88184530D01*
X154361116Y-88184684D01*
X154464698Y-88218443D01*
X154571271Y-88254611D01*
X154683967Y-88299885D01*
X154805977Y-88360963D01*
X154933224Y-88440058D01*
X154715583Y-89304694D01*
X153860047Y-89053407D01*
X153856103Y-88926573D01*
X153859953Y-88804656D01*
X153867223Y-88693486D01*
X153867229Y-88693396D01*
X153873232Y-88590347D01*
X153873253Y-88589612D01*
X153873280Y-88492122D01*
X153873201Y-88490700D01*
X153862556Y-88395982D01*
X153862182Y-88394037D01*
X153836169Y-88299308D01*
X153835405Y-88297246D01*
X153789329Y-88199721D01*
X153788314Y-88197954D01*
X153717478Y-88094848D01*
X153716451Y-88093546D01*
X153624218Y-87991030D01*
X153790940Y-87824308D01*
X153914610Y-87937925D01*
X153914610Y-87937925D01*
G37*
X153914610Y-87937925D02*
X153915567Y-87938722D01*
X154036266Y-88029517D01*
X154037413Y-88030286D01*
X154149243Y-88096742D01*
X154150418Y-88097359D01*
X154256446Y-88146199D01*
X154257380Y-88146585D01*
X154360672Y-88184530D01*
X154361116Y-88184684D01*
X154464698Y-88218443D01*
X154571271Y-88254611D01*
X154683967Y-88299885D01*
X154805977Y-88360963D01*
X154933224Y-88440058D01*
X154715583Y-89304694D01*
X153860047Y-89053407D01*
X153856103Y-88926573D01*
X153859953Y-88804656D01*
X153867223Y-88693486D01*
X153867229Y-88693396D01*
X153873232Y-88590347D01*
X153873253Y-88589612D01*
X153873280Y-88492122D01*
X153873201Y-88490700D01*
X153862556Y-88395982D01*
X153862182Y-88394037D01*
X153836169Y-88299308D01*
X153835405Y-88297246D01*
X153789329Y-88199721D01*
X153788314Y-88197954D01*
X153717478Y-88094848D01*
X153716451Y-88093546D01*
X153624218Y-87991030D01*
X153790940Y-87824308D01*
X153914610Y-87937925D01*
G36*
X138375782Y-87791030D02*
G01*
X138283548Y-87893546D01*
X138282521Y-87894848D01*
X138211685Y-87997954D01*
X138210670Y-87999721D01*
X138164594Y-88097246D01*
X138163830Y-88099308D01*
X138137817Y-88194037D01*
X138137443Y-88195982D01*
X138126798Y-88290700D01*
X138126719Y-88292122D01*
X138126746Y-88389612D01*
X138126767Y-88390347D01*
X138132770Y-88493396D01*
X138132776Y-88493486D01*
X138140046Y-88604656D01*
X138143896Y-88726573D01*
X138139953Y-88853407D01*
X137284417Y-89104694D01*
X137066776Y-88240058D01*
X137194022Y-88160963D01*
X137316032Y-88099885D01*
X137428728Y-88054611D01*
X137535301Y-88018443D01*
X137638883Y-87984684D01*
X137639327Y-87984530D01*
X137742619Y-87946585D01*
X137743553Y-87946199D01*
X137849581Y-87897359D01*
X137850756Y-87896742D01*
X137962586Y-87830286D01*
X137963733Y-87829517D01*
X138084432Y-87738722D01*
X138085389Y-87737925D01*
X138209060Y-87624308D01*
X138375782Y-87791030D01*
X138375782Y-87791030D01*
G37*
X138375782Y-87791030D02*
X138283548Y-87893546D01*
X138282521Y-87894848D01*
X138211685Y-87997954D01*
X138210670Y-87999721D01*
X138164594Y-88097246D01*
X138163830Y-88099308D01*
X138137817Y-88194037D01*
X138137443Y-88195982D01*
X138126798Y-88290700D01*
X138126719Y-88292122D01*
X138126746Y-88389612D01*
X138126767Y-88390347D01*
X138132770Y-88493396D01*
X138132776Y-88493486D01*
X138140046Y-88604656D01*
X138143896Y-88726573D01*
X138139953Y-88853407D01*
X137284417Y-89104694D01*
X137066776Y-88240058D01*
X137194022Y-88160963D01*
X137316032Y-88099885D01*
X137428728Y-88054611D01*
X137535301Y-88018443D01*
X137638883Y-87984684D01*
X137639327Y-87984530D01*
X137742619Y-87946585D01*
X137743553Y-87946199D01*
X137849581Y-87897359D01*
X137850756Y-87896742D01*
X137962586Y-87830286D01*
X137963733Y-87829517D01*
X138084432Y-87738722D01*
X138085389Y-87737925D01*
X138209060Y-87624308D01*
X138375782Y-87791030D01*
G36*
X140376369Y-89509667D02*
G01*
X140466032Y-89566980D01*
X140557017Y-89628548D01*
X140557075Y-89628587D01*
X140646134Y-89688135D01*
X140646573Y-89688416D01*
X140730444Y-89739643D01*
X140731515Y-89740229D01*
X140807097Y-89776940D01*
X140809574Y-89777839D01*
X140873761Y-89793843D01*
X140876224Y-89794205D01*
X140879554Y-89793925D01*
X140929244Y-89783026D01*
X140931612Y-89782257D01*
X140933784Y-89781041D01*
X140935677Y-89779424D01*
X140936784Y-89778105D01*
X140968874Y-89734110D01*
X140970136Y-89731965D01*
X140970957Y-89729614D01*
X140971196Y-89728346D01*
X140981082Y-89656041D01*
X141214966Y-89656041D01*
X141202920Y-89727092D01*
X141165044Y-89784282D01*
X141108367Y-89822920D01*
X141037641Y-89848901D01*
X140959133Y-89867770D01*
X140879893Y-89885537D01*
X140878859Y-89885815D01*
X140805962Y-89908760D01*
X140803442Y-89909866D01*
X140743411Y-89944403D01*
X140741385Y-89945850D01*
X140739706Y-89947631D01*
X140698970Y-90000194D01*
X140697645Y-90002302D01*
X140696542Y-90005545D01*
X140683535Y-90072300D01*
X139669528Y-90072300D01*
X140298931Y-89467034D01*
X140376369Y-89509667D01*
X140376369Y-89509667D01*
G37*
X140376369Y-89509667D02*
X140466032Y-89566980D01*
X140557017Y-89628548D01*
X140557075Y-89628587D01*
X140646134Y-89688135D01*
X140646573Y-89688416D01*
X140730444Y-89739643D01*
X140731515Y-89740229D01*
X140807097Y-89776940D01*
X140809574Y-89777839D01*
X140873761Y-89793843D01*
X140876224Y-89794205D01*
X140879554Y-89793925D01*
X140929244Y-89783026D01*
X140931612Y-89782257D01*
X140933784Y-89781041D01*
X140935677Y-89779424D01*
X140936784Y-89778105D01*
X140968874Y-89734110D01*
X140970136Y-89731965D01*
X140970957Y-89729614D01*
X140971196Y-89728346D01*
X140981082Y-89656041D01*
X141214966Y-89656041D01*
X141202920Y-89727092D01*
X141165044Y-89784282D01*
X141108367Y-89822920D01*
X141037641Y-89848901D01*
X140959133Y-89867770D01*
X140879893Y-89885537D01*
X140878859Y-89885815D01*
X140805962Y-89908760D01*
X140803442Y-89909866D01*
X140743411Y-89944403D01*
X140741385Y-89945850D01*
X140739706Y-89947631D01*
X140698970Y-90000194D01*
X140697645Y-90002302D01*
X140696542Y-90005545D01*
X140683535Y-90072300D01*
X139669528Y-90072300D01*
X140298931Y-89467034D01*
X140376369Y-89509667D01*
G36*
X152330472Y-90272300D02*
G01*
X151316529Y-90272300D01*
X151303472Y-90203034D01*
X151302773Y-90200645D01*
X151301218Y-90197856D01*
X151260482Y-90142547D01*
X151258816Y-90140696D01*
X151256973Y-90139299D01*
X151196941Y-90101890D01*
X151194478Y-90100703D01*
X151121582Y-90074789D01*
X151120552Y-90074471D01*
X151041329Y-90053677D01*
X150962800Y-90031765D01*
X150892024Y-90002782D01*
X150835195Y-89961155D01*
X150797122Y-89900874D01*
X150784954Y-89826751D01*
X151018931Y-89826751D01*
X151028884Y-89898946D01*
X151029464Y-89901367D01*
X151031101Y-89904551D01*
X151063394Y-89950148D01*
X151065025Y-89952029D01*
X151066992Y-89953555D01*
X151070369Y-89955048D01*
X151120333Y-89968882D01*
X151122786Y-89969307D01*
X151126069Y-89969123D01*
X151190548Y-89956996D01*
X151193176Y-89956200D01*
X151269014Y-89923911D01*
X151270203Y-89923330D01*
X151354242Y-89876682D01*
X151354768Y-89876373D01*
X151443854Y-89821165D01*
X151443988Y-89821081D01*
X151534889Y-89763162D01*
X151624186Y-89708490D01*
X151701014Y-89666980D01*
X152330472Y-90272300D01*
X152330472Y-90272300D01*
G37*
X152330472Y-90272300D02*
X151316529Y-90272300D01*
X151303472Y-90203034D01*
X151302773Y-90200645D01*
X151301218Y-90197856D01*
X151260482Y-90142547D01*
X151258816Y-90140696D01*
X151256973Y-90139299D01*
X151196941Y-90101890D01*
X151194478Y-90100703D01*
X151121582Y-90074789D01*
X151120552Y-90074471D01*
X151041329Y-90053677D01*
X150962800Y-90031765D01*
X150892024Y-90002782D01*
X150835195Y-89961155D01*
X150797122Y-89900874D01*
X150784954Y-89826751D01*
X151018931Y-89826751D01*
X151028884Y-89898946D01*
X151029464Y-89901367D01*
X151031101Y-89904551D01*
X151063394Y-89950148D01*
X151065025Y-89952029D01*
X151066992Y-89953555D01*
X151070369Y-89955048D01*
X151120333Y-89968882D01*
X151122786Y-89969307D01*
X151126069Y-89969123D01*
X151190548Y-89956996D01*
X151193176Y-89956200D01*
X151269014Y-89923911D01*
X151270203Y-89923330D01*
X151354242Y-89876682D01*
X151354768Y-89876373D01*
X151443854Y-89821165D01*
X151443988Y-89821081D01*
X151534889Y-89763162D01*
X151624186Y-89708490D01*
X151701014Y-89666980D01*
X152330472Y-90272300D01*
M02*
