G04 #@! TF.GenerationSoftware,KiCad,Pcbnew,(5.1.2)-1*
G04 #@! TF.CreationDate,2024-05-04T01:05:48+09:00*
G04 #@! TF.ProjectId,lf,6c662e6b-6963-4616-945f-706362585858,v1.1*
G04 #@! TF.SameCoordinates,Original*
G04 #@! TF.FileFunction,Paste,Bot*
G04 #@! TF.FilePolarity,Positive*
%FSLAX46Y46*%
G04 Gerber Fmt 4.6, Leading zero omitted, Abs format (unit mm)*
G04 Created by KiCad (PCBNEW (5.1.2)-1) date 2024-05-04 01:05:48*
%MOMM*%
%LPD*%
G04 APERTURE LIST*
%ADD10C,0.100000*%
%ADD11C,0.510000*%
G04 APERTURE END LIST*
D10*
G36*
X147391999Y-85310123D02*
G01*
X147394475Y-85310490D01*
X147396902Y-85311098D01*
X147399258Y-85311941D01*
X147401521Y-85313011D01*
X147403667Y-85314298D01*
X147405677Y-85315788D01*
X147407531Y-85317469D01*
X147409212Y-85319323D01*
X147410702Y-85321333D01*
X147411989Y-85323479D01*
X147413059Y-85325742D01*
X147413902Y-85328098D01*
X147414510Y-85330525D01*
X147414877Y-85333001D01*
X147415000Y-85335500D01*
X147415000Y-85794500D01*
X147414877Y-85796999D01*
X147414510Y-85799475D01*
X147413902Y-85801902D01*
X147413059Y-85804258D01*
X147411989Y-85806521D01*
X147410702Y-85808667D01*
X147409212Y-85810677D01*
X147407531Y-85812531D01*
X147405677Y-85814212D01*
X147403667Y-85815702D01*
X147401521Y-85816989D01*
X147399258Y-85818059D01*
X147396902Y-85818902D01*
X147394475Y-85819510D01*
X147391999Y-85819877D01*
X147389500Y-85820000D01*
X146680500Y-85820000D01*
X146678001Y-85819877D01*
X146675525Y-85819510D01*
X146673098Y-85818902D01*
X146670742Y-85818059D01*
X146668479Y-85816989D01*
X146666333Y-85815702D01*
X146664323Y-85814212D01*
X146662469Y-85812531D01*
X146660788Y-85810677D01*
X146659298Y-85808667D01*
X146658011Y-85806521D01*
X146656941Y-85804258D01*
X146656098Y-85801902D01*
X146655490Y-85799475D01*
X146655123Y-85796999D01*
X146655000Y-85794500D01*
X146655000Y-85335500D01*
X146655123Y-85333001D01*
X146655490Y-85330525D01*
X146656098Y-85328098D01*
X146656941Y-85325742D01*
X146658011Y-85323479D01*
X146659298Y-85321333D01*
X146660788Y-85319323D01*
X146662469Y-85317469D01*
X146664323Y-85315788D01*
X146666333Y-85314298D01*
X146668479Y-85313011D01*
X146670742Y-85311941D01*
X146673098Y-85311098D01*
X146675525Y-85310490D01*
X146678001Y-85310123D01*
X146680500Y-85310000D01*
X147389500Y-85310000D01*
X147391999Y-85310123D01*
X147391999Y-85310123D01*
G37*
D11*
X147035000Y-85565000D03*
D10*
G36*
X145721999Y-85310123D02*
G01*
X145724475Y-85310490D01*
X145726902Y-85311098D01*
X145729258Y-85311941D01*
X145731521Y-85313011D01*
X145733667Y-85314298D01*
X145735677Y-85315788D01*
X145737531Y-85317469D01*
X145739212Y-85319323D01*
X145740702Y-85321333D01*
X145741989Y-85323479D01*
X145743059Y-85325742D01*
X145743902Y-85328098D01*
X145744510Y-85330525D01*
X145744877Y-85333001D01*
X145745000Y-85335500D01*
X145745000Y-85794500D01*
X145744877Y-85796999D01*
X145744510Y-85799475D01*
X145743902Y-85801902D01*
X145743059Y-85804258D01*
X145741989Y-85806521D01*
X145740702Y-85808667D01*
X145739212Y-85810677D01*
X145737531Y-85812531D01*
X145735677Y-85814212D01*
X145733667Y-85815702D01*
X145731521Y-85816989D01*
X145729258Y-85818059D01*
X145726902Y-85818902D01*
X145724475Y-85819510D01*
X145721999Y-85819877D01*
X145719500Y-85820000D01*
X145010500Y-85820000D01*
X145008001Y-85819877D01*
X145005525Y-85819510D01*
X145003098Y-85818902D01*
X145000742Y-85818059D01*
X144998479Y-85816989D01*
X144996333Y-85815702D01*
X144994323Y-85814212D01*
X144992469Y-85812531D01*
X144990788Y-85810677D01*
X144989298Y-85808667D01*
X144988011Y-85806521D01*
X144986941Y-85804258D01*
X144986098Y-85801902D01*
X144985490Y-85799475D01*
X144985123Y-85796999D01*
X144985000Y-85794500D01*
X144985000Y-85335500D01*
X144985123Y-85333001D01*
X144985490Y-85330525D01*
X144986098Y-85328098D01*
X144986941Y-85325742D01*
X144988011Y-85323479D01*
X144989298Y-85321333D01*
X144990788Y-85319323D01*
X144992469Y-85317469D01*
X144994323Y-85315788D01*
X144996333Y-85314298D01*
X144998479Y-85313011D01*
X145000742Y-85311941D01*
X145003098Y-85311098D01*
X145005525Y-85310490D01*
X145008001Y-85310123D01*
X145010500Y-85310000D01*
X145719500Y-85310000D01*
X145721999Y-85310123D01*
X145721999Y-85310123D01*
G37*
D11*
X145365000Y-85565000D03*
D10*
G36*
X145721999Y-86180123D02*
G01*
X145724475Y-86180490D01*
X145726902Y-86181098D01*
X145729258Y-86181941D01*
X145731521Y-86183011D01*
X145733667Y-86184298D01*
X145735677Y-86185788D01*
X145737531Y-86187469D01*
X145739212Y-86189323D01*
X145740702Y-86191333D01*
X145741989Y-86193479D01*
X145743059Y-86195742D01*
X145743902Y-86198098D01*
X145744510Y-86200525D01*
X145744877Y-86203001D01*
X145745000Y-86205500D01*
X145745000Y-86664500D01*
X145744877Y-86666999D01*
X145744510Y-86669475D01*
X145743902Y-86671902D01*
X145743059Y-86674258D01*
X145741989Y-86676521D01*
X145740702Y-86678667D01*
X145739212Y-86680677D01*
X145737531Y-86682531D01*
X145735677Y-86684212D01*
X145733667Y-86685702D01*
X145731521Y-86686989D01*
X145729258Y-86688059D01*
X145726902Y-86688902D01*
X145724475Y-86689510D01*
X145721999Y-86689877D01*
X145719500Y-86690000D01*
X145010500Y-86690000D01*
X145008001Y-86689877D01*
X145005525Y-86689510D01*
X145003098Y-86688902D01*
X145000742Y-86688059D01*
X144998479Y-86686989D01*
X144996333Y-86685702D01*
X144994323Y-86684212D01*
X144992469Y-86682531D01*
X144990788Y-86680677D01*
X144989298Y-86678667D01*
X144988011Y-86676521D01*
X144986941Y-86674258D01*
X144986098Y-86671902D01*
X144985490Y-86669475D01*
X144985123Y-86666999D01*
X144985000Y-86664500D01*
X144985000Y-86205500D01*
X144985123Y-86203001D01*
X144985490Y-86200525D01*
X144986098Y-86198098D01*
X144986941Y-86195742D01*
X144988011Y-86193479D01*
X144989298Y-86191333D01*
X144990788Y-86189323D01*
X144992469Y-86187469D01*
X144994323Y-86185788D01*
X144996333Y-86184298D01*
X144998479Y-86183011D01*
X145000742Y-86181941D01*
X145003098Y-86181098D01*
X145005525Y-86180490D01*
X145008001Y-86180123D01*
X145010500Y-86180000D01*
X145719500Y-86180000D01*
X145721999Y-86180123D01*
X145721999Y-86180123D01*
G37*
D11*
X145365000Y-86435000D03*
D10*
G36*
X147391999Y-86180123D02*
G01*
X147394475Y-86180490D01*
X147396902Y-86181098D01*
X147399258Y-86181941D01*
X147401521Y-86183011D01*
X147403667Y-86184298D01*
X147405677Y-86185788D01*
X147407531Y-86187469D01*
X147409212Y-86189323D01*
X147410702Y-86191333D01*
X147411989Y-86193479D01*
X147413059Y-86195742D01*
X147413902Y-86198098D01*
X147414510Y-86200525D01*
X147414877Y-86203001D01*
X147415000Y-86205500D01*
X147415000Y-86664500D01*
X147414877Y-86666999D01*
X147414510Y-86669475D01*
X147413902Y-86671902D01*
X147413059Y-86674258D01*
X147411989Y-86676521D01*
X147410702Y-86678667D01*
X147409212Y-86680677D01*
X147407531Y-86682531D01*
X147405677Y-86684212D01*
X147403667Y-86685702D01*
X147401521Y-86686989D01*
X147399258Y-86688059D01*
X147396902Y-86688902D01*
X147394475Y-86689510D01*
X147391999Y-86689877D01*
X147389500Y-86690000D01*
X146680500Y-86690000D01*
X146678001Y-86689877D01*
X146675525Y-86689510D01*
X146673098Y-86688902D01*
X146670742Y-86688059D01*
X146668479Y-86686989D01*
X146666333Y-86685702D01*
X146664323Y-86684212D01*
X146662469Y-86682531D01*
X146660788Y-86680677D01*
X146659298Y-86678667D01*
X146658011Y-86676521D01*
X146656941Y-86674258D01*
X146656098Y-86671902D01*
X146655490Y-86669475D01*
X146655123Y-86666999D01*
X146655000Y-86664500D01*
X146655000Y-86205500D01*
X146655123Y-86203001D01*
X146655490Y-86200525D01*
X146656098Y-86198098D01*
X146656941Y-86195742D01*
X146658011Y-86193479D01*
X146659298Y-86191333D01*
X146660788Y-86189323D01*
X146662469Y-86187469D01*
X146664323Y-86185788D01*
X146666333Y-86184298D01*
X146668479Y-86183011D01*
X146670742Y-86181941D01*
X146673098Y-86181098D01*
X146675525Y-86180490D01*
X146678001Y-86180123D01*
X146680500Y-86180000D01*
X147389500Y-86180000D01*
X147391999Y-86180123D01*
X147391999Y-86180123D01*
G37*
D11*
X147035000Y-86435000D03*
D10*
G36*
X147391999Y-95310123D02*
G01*
X147394475Y-95310490D01*
X147396902Y-95311098D01*
X147399258Y-95311941D01*
X147401521Y-95313011D01*
X147403667Y-95314298D01*
X147405677Y-95315788D01*
X147407531Y-95317469D01*
X147409212Y-95319323D01*
X147410702Y-95321333D01*
X147411989Y-95323479D01*
X147413059Y-95325742D01*
X147413902Y-95328098D01*
X147414510Y-95330525D01*
X147414877Y-95333001D01*
X147415000Y-95335500D01*
X147415000Y-95794500D01*
X147414877Y-95796999D01*
X147414510Y-95799475D01*
X147413902Y-95801902D01*
X147413059Y-95804258D01*
X147411989Y-95806521D01*
X147410702Y-95808667D01*
X147409212Y-95810677D01*
X147407531Y-95812531D01*
X147405677Y-95814212D01*
X147403667Y-95815702D01*
X147401521Y-95816989D01*
X147399258Y-95818059D01*
X147396902Y-95818902D01*
X147394475Y-95819510D01*
X147391999Y-95819877D01*
X147389500Y-95820000D01*
X146680500Y-95820000D01*
X146678001Y-95819877D01*
X146675525Y-95819510D01*
X146673098Y-95818902D01*
X146670742Y-95818059D01*
X146668479Y-95816989D01*
X146666333Y-95815702D01*
X146664323Y-95814212D01*
X146662469Y-95812531D01*
X146660788Y-95810677D01*
X146659298Y-95808667D01*
X146658011Y-95806521D01*
X146656941Y-95804258D01*
X146656098Y-95801902D01*
X146655490Y-95799475D01*
X146655123Y-95796999D01*
X146655000Y-95794500D01*
X146655000Y-95335500D01*
X146655123Y-95333001D01*
X146655490Y-95330525D01*
X146656098Y-95328098D01*
X146656941Y-95325742D01*
X146658011Y-95323479D01*
X146659298Y-95321333D01*
X146660788Y-95319323D01*
X146662469Y-95317469D01*
X146664323Y-95315788D01*
X146666333Y-95314298D01*
X146668479Y-95313011D01*
X146670742Y-95311941D01*
X146673098Y-95311098D01*
X146675525Y-95310490D01*
X146678001Y-95310123D01*
X146680500Y-95310000D01*
X147389500Y-95310000D01*
X147391999Y-95310123D01*
X147391999Y-95310123D01*
G37*
D11*
X147035000Y-95565000D03*
D10*
G36*
X145721999Y-95310123D02*
G01*
X145724475Y-95310490D01*
X145726902Y-95311098D01*
X145729258Y-95311941D01*
X145731521Y-95313011D01*
X145733667Y-95314298D01*
X145735677Y-95315788D01*
X145737531Y-95317469D01*
X145739212Y-95319323D01*
X145740702Y-95321333D01*
X145741989Y-95323479D01*
X145743059Y-95325742D01*
X145743902Y-95328098D01*
X145744510Y-95330525D01*
X145744877Y-95333001D01*
X145745000Y-95335500D01*
X145745000Y-95794500D01*
X145744877Y-95796999D01*
X145744510Y-95799475D01*
X145743902Y-95801902D01*
X145743059Y-95804258D01*
X145741989Y-95806521D01*
X145740702Y-95808667D01*
X145739212Y-95810677D01*
X145737531Y-95812531D01*
X145735677Y-95814212D01*
X145733667Y-95815702D01*
X145731521Y-95816989D01*
X145729258Y-95818059D01*
X145726902Y-95818902D01*
X145724475Y-95819510D01*
X145721999Y-95819877D01*
X145719500Y-95820000D01*
X145010500Y-95820000D01*
X145008001Y-95819877D01*
X145005525Y-95819510D01*
X145003098Y-95818902D01*
X145000742Y-95818059D01*
X144998479Y-95816989D01*
X144996333Y-95815702D01*
X144994323Y-95814212D01*
X144992469Y-95812531D01*
X144990788Y-95810677D01*
X144989298Y-95808667D01*
X144988011Y-95806521D01*
X144986941Y-95804258D01*
X144986098Y-95801902D01*
X144985490Y-95799475D01*
X144985123Y-95796999D01*
X144985000Y-95794500D01*
X144985000Y-95335500D01*
X144985123Y-95333001D01*
X144985490Y-95330525D01*
X144986098Y-95328098D01*
X144986941Y-95325742D01*
X144988011Y-95323479D01*
X144989298Y-95321333D01*
X144990788Y-95319323D01*
X144992469Y-95317469D01*
X144994323Y-95315788D01*
X144996333Y-95314298D01*
X144998479Y-95313011D01*
X145000742Y-95311941D01*
X145003098Y-95311098D01*
X145005525Y-95310490D01*
X145008001Y-95310123D01*
X145010500Y-95310000D01*
X145719500Y-95310000D01*
X145721999Y-95310123D01*
X145721999Y-95310123D01*
G37*
D11*
X145365000Y-95565000D03*
D10*
G36*
X145721999Y-96180123D02*
G01*
X145724475Y-96180490D01*
X145726902Y-96181098D01*
X145729258Y-96181941D01*
X145731521Y-96183011D01*
X145733667Y-96184298D01*
X145735677Y-96185788D01*
X145737531Y-96187469D01*
X145739212Y-96189323D01*
X145740702Y-96191333D01*
X145741989Y-96193479D01*
X145743059Y-96195742D01*
X145743902Y-96198098D01*
X145744510Y-96200525D01*
X145744877Y-96203001D01*
X145745000Y-96205500D01*
X145745000Y-96664500D01*
X145744877Y-96666999D01*
X145744510Y-96669475D01*
X145743902Y-96671902D01*
X145743059Y-96674258D01*
X145741989Y-96676521D01*
X145740702Y-96678667D01*
X145739212Y-96680677D01*
X145737531Y-96682531D01*
X145735677Y-96684212D01*
X145733667Y-96685702D01*
X145731521Y-96686989D01*
X145729258Y-96688059D01*
X145726902Y-96688902D01*
X145724475Y-96689510D01*
X145721999Y-96689877D01*
X145719500Y-96690000D01*
X145010500Y-96690000D01*
X145008001Y-96689877D01*
X145005525Y-96689510D01*
X145003098Y-96688902D01*
X145000742Y-96688059D01*
X144998479Y-96686989D01*
X144996333Y-96685702D01*
X144994323Y-96684212D01*
X144992469Y-96682531D01*
X144990788Y-96680677D01*
X144989298Y-96678667D01*
X144988011Y-96676521D01*
X144986941Y-96674258D01*
X144986098Y-96671902D01*
X144985490Y-96669475D01*
X144985123Y-96666999D01*
X144985000Y-96664500D01*
X144985000Y-96205500D01*
X144985123Y-96203001D01*
X144985490Y-96200525D01*
X144986098Y-96198098D01*
X144986941Y-96195742D01*
X144988011Y-96193479D01*
X144989298Y-96191333D01*
X144990788Y-96189323D01*
X144992469Y-96187469D01*
X144994323Y-96185788D01*
X144996333Y-96184298D01*
X144998479Y-96183011D01*
X145000742Y-96181941D01*
X145003098Y-96181098D01*
X145005525Y-96180490D01*
X145008001Y-96180123D01*
X145010500Y-96180000D01*
X145719500Y-96180000D01*
X145721999Y-96180123D01*
X145721999Y-96180123D01*
G37*
D11*
X145365000Y-96435000D03*
D10*
G36*
X147391999Y-96180123D02*
G01*
X147394475Y-96180490D01*
X147396902Y-96181098D01*
X147399258Y-96181941D01*
X147401521Y-96183011D01*
X147403667Y-96184298D01*
X147405677Y-96185788D01*
X147407531Y-96187469D01*
X147409212Y-96189323D01*
X147410702Y-96191333D01*
X147411989Y-96193479D01*
X147413059Y-96195742D01*
X147413902Y-96198098D01*
X147414510Y-96200525D01*
X147414877Y-96203001D01*
X147415000Y-96205500D01*
X147415000Y-96664500D01*
X147414877Y-96666999D01*
X147414510Y-96669475D01*
X147413902Y-96671902D01*
X147413059Y-96674258D01*
X147411989Y-96676521D01*
X147410702Y-96678667D01*
X147409212Y-96680677D01*
X147407531Y-96682531D01*
X147405677Y-96684212D01*
X147403667Y-96685702D01*
X147401521Y-96686989D01*
X147399258Y-96688059D01*
X147396902Y-96688902D01*
X147394475Y-96689510D01*
X147391999Y-96689877D01*
X147389500Y-96690000D01*
X146680500Y-96690000D01*
X146678001Y-96689877D01*
X146675525Y-96689510D01*
X146673098Y-96688902D01*
X146670742Y-96688059D01*
X146668479Y-96686989D01*
X146666333Y-96685702D01*
X146664323Y-96684212D01*
X146662469Y-96682531D01*
X146660788Y-96680677D01*
X146659298Y-96678667D01*
X146658011Y-96676521D01*
X146656941Y-96674258D01*
X146656098Y-96671902D01*
X146655490Y-96669475D01*
X146655123Y-96666999D01*
X146655000Y-96664500D01*
X146655000Y-96205500D01*
X146655123Y-96203001D01*
X146655490Y-96200525D01*
X146656098Y-96198098D01*
X146656941Y-96195742D01*
X146658011Y-96193479D01*
X146659298Y-96191333D01*
X146660788Y-96189323D01*
X146662469Y-96187469D01*
X146664323Y-96185788D01*
X146666333Y-96184298D01*
X146668479Y-96183011D01*
X146670742Y-96181941D01*
X146673098Y-96181098D01*
X146675525Y-96180490D01*
X146678001Y-96180123D01*
X146680500Y-96180000D01*
X147389500Y-96180000D01*
X147391999Y-96180123D01*
X147391999Y-96180123D01*
G37*
D11*
X147035000Y-96435000D03*
M02*
