G04 #@! TF.GenerationSoftware,KiCad,Pcbnew,(5.1.2)-1*
G04 #@! TF.CreationDate,2024-05-04T01:05:48+09:00*
G04 #@! TF.ProjectId,lf,6c662e6b-6963-4616-945f-706362585858,v1.1*
G04 #@! TF.SameCoordinates,Original*
G04 #@! TF.FileFunction,Copper,L1,Top*
G04 #@! TF.FilePolarity,Positive*
%FSLAX46Y46*%
G04 Gerber Fmt 4.6, Leading zero omitted, Abs format (unit mm)*
G04 Created by KiCad (PCBNEW (5.1.2)-1) date 2024-05-04 01:05:48*
%MOMM*%
%LPD*%
G04 APERTURE LIST*
%ADD10C,0.100000*%
%ADD11C,0.510000*%
%ADD12C,2.400000*%
%ADD13C,1.408000*%
%ADD14R,1.408000X1.408000*%
%ADD15C,0.800000*%
%ADD16C,0.260000*%
%ADD17C,0.254000*%
%ADD18C,0.025400*%
G04 APERTURE END LIST*
D10*
G36*
X147391999Y-83280123D02*
G01*
X147394475Y-83280490D01*
X147396902Y-83281098D01*
X147399258Y-83281941D01*
X147401521Y-83283011D01*
X147403667Y-83284298D01*
X147405677Y-83285788D01*
X147407531Y-83287469D01*
X147409212Y-83289323D01*
X147410702Y-83291333D01*
X147411989Y-83293479D01*
X147413059Y-83295742D01*
X147413902Y-83298098D01*
X147414510Y-83300525D01*
X147414877Y-83303001D01*
X147415000Y-83305500D01*
X147415000Y-83764500D01*
X147414877Y-83766999D01*
X147414510Y-83769475D01*
X147413902Y-83771902D01*
X147413059Y-83774258D01*
X147411989Y-83776521D01*
X147410702Y-83778667D01*
X147409212Y-83780677D01*
X147407531Y-83782531D01*
X147405677Y-83784212D01*
X147403667Y-83785702D01*
X147401521Y-83786989D01*
X147399258Y-83788059D01*
X147396902Y-83788902D01*
X147394475Y-83789510D01*
X147391999Y-83789877D01*
X147389500Y-83790000D01*
X146680500Y-83790000D01*
X146678001Y-83789877D01*
X146675525Y-83789510D01*
X146673098Y-83788902D01*
X146670742Y-83788059D01*
X146668479Y-83786989D01*
X146666333Y-83785702D01*
X146664323Y-83784212D01*
X146662469Y-83782531D01*
X146660788Y-83780677D01*
X146659298Y-83778667D01*
X146658011Y-83776521D01*
X146656941Y-83774258D01*
X146656098Y-83771902D01*
X146655490Y-83769475D01*
X146655123Y-83766999D01*
X146655000Y-83764500D01*
X146655000Y-83305500D01*
X146655123Y-83303001D01*
X146655490Y-83300525D01*
X146656098Y-83298098D01*
X146656941Y-83295742D01*
X146658011Y-83293479D01*
X146659298Y-83291333D01*
X146660788Y-83289323D01*
X146662469Y-83287469D01*
X146664323Y-83285788D01*
X146666333Y-83284298D01*
X146668479Y-83283011D01*
X146670742Y-83281941D01*
X146673098Y-83281098D01*
X146675525Y-83280490D01*
X146678001Y-83280123D01*
X146680500Y-83280000D01*
X147389500Y-83280000D01*
X147391999Y-83280123D01*
X147391999Y-83280123D01*
G37*
D11*
X147035000Y-83535000D03*
D10*
G36*
X145721999Y-83280123D02*
G01*
X145724475Y-83280490D01*
X145726902Y-83281098D01*
X145729258Y-83281941D01*
X145731521Y-83283011D01*
X145733667Y-83284298D01*
X145735677Y-83285788D01*
X145737531Y-83287469D01*
X145739212Y-83289323D01*
X145740702Y-83291333D01*
X145741989Y-83293479D01*
X145743059Y-83295742D01*
X145743902Y-83298098D01*
X145744510Y-83300525D01*
X145744877Y-83303001D01*
X145745000Y-83305500D01*
X145745000Y-83764500D01*
X145744877Y-83766999D01*
X145744510Y-83769475D01*
X145743902Y-83771902D01*
X145743059Y-83774258D01*
X145741989Y-83776521D01*
X145740702Y-83778667D01*
X145739212Y-83780677D01*
X145737531Y-83782531D01*
X145735677Y-83784212D01*
X145733667Y-83785702D01*
X145731521Y-83786989D01*
X145729258Y-83788059D01*
X145726902Y-83788902D01*
X145724475Y-83789510D01*
X145721999Y-83789877D01*
X145719500Y-83790000D01*
X145010500Y-83790000D01*
X145008001Y-83789877D01*
X145005525Y-83789510D01*
X145003098Y-83788902D01*
X145000742Y-83788059D01*
X144998479Y-83786989D01*
X144996333Y-83785702D01*
X144994323Y-83784212D01*
X144992469Y-83782531D01*
X144990788Y-83780677D01*
X144989298Y-83778667D01*
X144988011Y-83776521D01*
X144986941Y-83774258D01*
X144986098Y-83771902D01*
X144985490Y-83769475D01*
X144985123Y-83766999D01*
X144985000Y-83764500D01*
X144985000Y-83305500D01*
X144985123Y-83303001D01*
X144985490Y-83300525D01*
X144986098Y-83298098D01*
X144986941Y-83295742D01*
X144988011Y-83293479D01*
X144989298Y-83291333D01*
X144990788Y-83289323D01*
X144992469Y-83287469D01*
X144994323Y-83285788D01*
X144996333Y-83284298D01*
X144998479Y-83283011D01*
X145000742Y-83281941D01*
X145003098Y-83281098D01*
X145005525Y-83280490D01*
X145008001Y-83280123D01*
X145010500Y-83280000D01*
X145719500Y-83280000D01*
X145721999Y-83280123D01*
X145721999Y-83280123D01*
G37*
D11*
X145365000Y-83535000D03*
D10*
G36*
X145721999Y-82410123D02*
G01*
X145724475Y-82410490D01*
X145726902Y-82411098D01*
X145729258Y-82411941D01*
X145731521Y-82413011D01*
X145733667Y-82414298D01*
X145735677Y-82415788D01*
X145737531Y-82417469D01*
X145739212Y-82419323D01*
X145740702Y-82421333D01*
X145741989Y-82423479D01*
X145743059Y-82425742D01*
X145743902Y-82428098D01*
X145744510Y-82430525D01*
X145744877Y-82433001D01*
X145745000Y-82435500D01*
X145745000Y-82894500D01*
X145744877Y-82896999D01*
X145744510Y-82899475D01*
X145743902Y-82901902D01*
X145743059Y-82904258D01*
X145741989Y-82906521D01*
X145740702Y-82908667D01*
X145739212Y-82910677D01*
X145737531Y-82912531D01*
X145735677Y-82914212D01*
X145733667Y-82915702D01*
X145731521Y-82916989D01*
X145729258Y-82918059D01*
X145726902Y-82918902D01*
X145724475Y-82919510D01*
X145721999Y-82919877D01*
X145719500Y-82920000D01*
X145010500Y-82920000D01*
X145008001Y-82919877D01*
X145005525Y-82919510D01*
X145003098Y-82918902D01*
X145000742Y-82918059D01*
X144998479Y-82916989D01*
X144996333Y-82915702D01*
X144994323Y-82914212D01*
X144992469Y-82912531D01*
X144990788Y-82910677D01*
X144989298Y-82908667D01*
X144988011Y-82906521D01*
X144986941Y-82904258D01*
X144986098Y-82901902D01*
X144985490Y-82899475D01*
X144985123Y-82896999D01*
X144985000Y-82894500D01*
X144985000Y-82435500D01*
X144985123Y-82433001D01*
X144985490Y-82430525D01*
X144986098Y-82428098D01*
X144986941Y-82425742D01*
X144988011Y-82423479D01*
X144989298Y-82421333D01*
X144990788Y-82419323D01*
X144992469Y-82417469D01*
X144994323Y-82415788D01*
X144996333Y-82414298D01*
X144998479Y-82413011D01*
X145000742Y-82411941D01*
X145003098Y-82411098D01*
X145005525Y-82410490D01*
X145008001Y-82410123D01*
X145010500Y-82410000D01*
X145719500Y-82410000D01*
X145721999Y-82410123D01*
X145721999Y-82410123D01*
G37*
D11*
X145365000Y-82665000D03*
D10*
G36*
X147391999Y-82410123D02*
G01*
X147394475Y-82410490D01*
X147396902Y-82411098D01*
X147399258Y-82411941D01*
X147401521Y-82413011D01*
X147403667Y-82414298D01*
X147405677Y-82415788D01*
X147407531Y-82417469D01*
X147409212Y-82419323D01*
X147410702Y-82421333D01*
X147411989Y-82423479D01*
X147413059Y-82425742D01*
X147413902Y-82428098D01*
X147414510Y-82430525D01*
X147414877Y-82433001D01*
X147415000Y-82435500D01*
X147415000Y-82894500D01*
X147414877Y-82896999D01*
X147414510Y-82899475D01*
X147413902Y-82901902D01*
X147413059Y-82904258D01*
X147411989Y-82906521D01*
X147410702Y-82908667D01*
X147409212Y-82910677D01*
X147407531Y-82912531D01*
X147405677Y-82914212D01*
X147403667Y-82915702D01*
X147401521Y-82916989D01*
X147399258Y-82918059D01*
X147396902Y-82918902D01*
X147394475Y-82919510D01*
X147391999Y-82919877D01*
X147389500Y-82920000D01*
X146680500Y-82920000D01*
X146678001Y-82919877D01*
X146675525Y-82919510D01*
X146673098Y-82918902D01*
X146670742Y-82918059D01*
X146668479Y-82916989D01*
X146666333Y-82915702D01*
X146664323Y-82914212D01*
X146662469Y-82912531D01*
X146660788Y-82910677D01*
X146659298Y-82908667D01*
X146658011Y-82906521D01*
X146656941Y-82904258D01*
X146656098Y-82901902D01*
X146655490Y-82899475D01*
X146655123Y-82896999D01*
X146655000Y-82894500D01*
X146655000Y-82435500D01*
X146655123Y-82433001D01*
X146655490Y-82430525D01*
X146656098Y-82428098D01*
X146656941Y-82425742D01*
X146658011Y-82423479D01*
X146659298Y-82421333D01*
X146660788Y-82419323D01*
X146662469Y-82417469D01*
X146664323Y-82415788D01*
X146666333Y-82414298D01*
X146668479Y-82413011D01*
X146670742Y-82411941D01*
X146673098Y-82411098D01*
X146675525Y-82410490D01*
X146678001Y-82410123D01*
X146680500Y-82410000D01*
X147389500Y-82410000D01*
X147391999Y-82410123D01*
X147391999Y-82410123D01*
G37*
D11*
X147035000Y-82665000D03*
D10*
G36*
X147391999Y-91380123D02*
G01*
X147394475Y-91380490D01*
X147396902Y-91381098D01*
X147399258Y-91381941D01*
X147401521Y-91383011D01*
X147403667Y-91384298D01*
X147405677Y-91385788D01*
X147407531Y-91387469D01*
X147409212Y-91389323D01*
X147410702Y-91391333D01*
X147411989Y-91393479D01*
X147413059Y-91395742D01*
X147413902Y-91398098D01*
X147414510Y-91400525D01*
X147414877Y-91403001D01*
X147415000Y-91405500D01*
X147415000Y-91864500D01*
X147414877Y-91866999D01*
X147414510Y-91869475D01*
X147413902Y-91871902D01*
X147413059Y-91874258D01*
X147411989Y-91876521D01*
X147410702Y-91878667D01*
X147409212Y-91880677D01*
X147407531Y-91882531D01*
X147405677Y-91884212D01*
X147403667Y-91885702D01*
X147401521Y-91886989D01*
X147399258Y-91888059D01*
X147396902Y-91888902D01*
X147394475Y-91889510D01*
X147391999Y-91889877D01*
X147389500Y-91890000D01*
X146680500Y-91890000D01*
X146678001Y-91889877D01*
X146675525Y-91889510D01*
X146673098Y-91888902D01*
X146670742Y-91888059D01*
X146668479Y-91886989D01*
X146666333Y-91885702D01*
X146664323Y-91884212D01*
X146662469Y-91882531D01*
X146660788Y-91880677D01*
X146659298Y-91878667D01*
X146658011Y-91876521D01*
X146656941Y-91874258D01*
X146656098Y-91871902D01*
X146655490Y-91869475D01*
X146655123Y-91866999D01*
X146655000Y-91864500D01*
X146655000Y-91405500D01*
X146655123Y-91403001D01*
X146655490Y-91400525D01*
X146656098Y-91398098D01*
X146656941Y-91395742D01*
X146658011Y-91393479D01*
X146659298Y-91391333D01*
X146660788Y-91389323D01*
X146662469Y-91387469D01*
X146664323Y-91385788D01*
X146666333Y-91384298D01*
X146668479Y-91383011D01*
X146670742Y-91381941D01*
X146673098Y-91381098D01*
X146675525Y-91380490D01*
X146678001Y-91380123D01*
X146680500Y-91380000D01*
X147389500Y-91380000D01*
X147391999Y-91380123D01*
X147391999Y-91380123D01*
G37*
D11*
X147035000Y-91635000D03*
D10*
G36*
X145721999Y-91380123D02*
G01*
X145724475Y-91380490D01*
X145726902Y-91381098D01*
X145729258Y-91381941D01*
X145731521Y-91383011D01*
X145733667Y-91384298D01*
X145735677Y-91385788D01*
X145737531Y-91387469D01*
X145739212Y-91389323D01*
X145740702Y-91391333D01*
X145741989Y-91393479D01*
X145743059Y-91395742D01*
X145743902Y-91398098D01*
X145744510Y-91400525D01*
X145744877Y-91403001D01*
X145745000Y-91405500D01*
X145745000Y-91864500D01*
X145744877Y-91866999D01*
X145744510Y-91869475D01*
X145743902Y-91871902D01*
X145743059Y-91874258D01*
X145741989Y-91876521D01*
X145740702Y-91878667D01*
X145739212Y-91880677D01*
X145737531Y-91882531D01*
X145735677Y-91884212D01*
X145733667Y-91885702D01*
X145731521Y-91886989D01*
X145729258Y-91888059D01*
X145726902Y-91888902D01*
X145724475Y-91889510D01*
X145721999Y-91889877D01*
X145719500Y-91890000D01*
X145010500Y-91890000D01*
X145008001Y-91889877D01*
X145005525Y-91889510D01*
X145003098Y-91888902D01*
X145000742Y-91888059D01*
X144998479Y-91886989D01*
X144996333Y-91885702D01*
X144994323Y-91884212D01*
X144992469Y-91882531D01*
X144990788Y-91880677D01*
X144989298Y-91878667D01*
X144988011Y-91876521D01*
X144986941Y-91874258D01*
X144986098Y-91871902D01*
X144985490Y-91869475D01*
X144985123Y-91866999D01*
X144985000Y-91864500D01*
X144985000Y-91405500D01*
X144985123Y-91403001D01*
X144985490Y-91400525D01*
X144986098Y-91398098D01*
X144986941Y-91395742D01*
X144988011Y-91393479D01*
X144989298Y-91391333D01*
X144990788Y-91389323D01*
X144992469Y-91387469D01*
X144994323Y-91385788D01*
X144996333Y-91384298D01*
X144998479Y-91383011D01*
X145000742Y-91381941D01*
X145003098Y-91381098D01*
X145005525Y-91380490D01*
X145008001Y-91380123D01*
X145010500Y-91380000D01*
X145719500Y-91380000D01*
X145721999Y-91380123D01*
X145721999Y-91380123D01*
G37*
D11*
X145365000Y-91635000D03*
D10*
G36*
X145721999Y-90510123D02*
G01*
X145724475Y-90510490D01*
X145726902Y-90511098D01*
X145729258Y-90511941D01*
X145731521Y-90513011D01*
X145733667Y-90514298D01*
X145735677Y-90515788D01*
X145737531Y-90517469D01*
X145739212Y-90519323D01*
X145740702Y-90521333D01*
X145741989Y-90523479D01*
X145743059Y-90525742D01*
X145743902Y-90528098D01*
X145744510Y-90530525D01*
X145744877Y-90533001D01*
X145745000Y-90535500D01*
X145745000Y-90994500D01*
X145744877Y-90996999D01*
X145744510Y-90999475D01*
X145743902Y-91001902D01*
X145743059Y-91004258D01*
X145741989Y-91006521D01*
X145740702Y-91008667D01*
X145739212Y-91010677D01*
X145737531Y-91012531D01*
X145735677Y-91014212D01*
X145733667Y-91015702D01*
X145731521Y-91016989D01*
X145729258Y-91018059D01*
X145726902Y-91018902D01*
X145724475Y-91019510D01*
X145721999Y-91019877D01*
X145719500Y-91020000D01*
X145010500Y-91020000D01*
X145008001Y-91019877D01*
X145005525Y-91019510D01*
X145003098Y-91018902D01*
X145000742Y-91018059D01*
X144998479Y-91016989D01*
X144996333Y-91015702D01*
X144994323Y-91014212D01*
X144992469Y-91012531D01*
X144990788Y-91010677D01*
X144989298Y-91008667D01*
X144988011Y-91006521D01*
X144986941Y-91004258D01*
X144986098Y-91001902D01*
X144985490Y-90999475D01*
X144985123Y-90996999D01*
X144985000Y-90994500D01*
X144985000Y-90535500D01*
X144985123Y-90533001D01*
X144985490Y-90530525D01*
X144986098Y-90528098D01*
X144986941Y-90525742D01*
X144988011Y-90523479D01*
X144989298Y-90521333D01*
X144990788Y-90519323D01*
X144992469Y-90517469D01*
X144994323Y-90515788D01*
X144996333Y-90514298D01*
X144998479Y-90513011D01*
X145000742Y-90511941D01*
X145003098Y-90511098D01*
X145005525Y-90510490D01*
X145008001Y-90510123D01*
X145010500Y-90510000D01*
X145719500Y-90510000D01*
X145721999Y-90510123D01*
X145721999Y-90510123D01*
G37*
D11*
X145365000Y-90765000D03*
D10*
G36*
X147391999Y-90510123D02*
G01*
X147394475Y-90510490D01*
X147396902Y-90511098D01*
X147399258Y-90511941D01*
X147401521Y-90513011D01*
X147403667Y-90514298D01*
X147405677Y-90515788D01*
X147407531Y-90517469D01*
X147409212Y-90519323D01*
X147410702Y-90521333D01*
X147411989Y-90523479D01*
X147413059Y-90525742D01*
X147413902Y-90528098D01*
X147414510Y-90530525D01*
X147414877Y-90533001D01*
X147415000Y-90535500D01*
X147415000Y-90994500D01*
X147414877Y-90996999D01*
X147414510Y-90999475D01*
X147413902Y-91001902D01*
X147413059Y-91004258D01*
X147411989Y-91006521D01*
X147410702Y-91008667D01*
X147409212Y-91010677D01*
X147407531Y-91012531D01*
X147405677Y-91014212D01*
X147403667Y-91015702D01*
X147401521Y-91016989D01*
X147399258Y-91018059D01*
X147396902Y-91018902D01*
X147394475Y-91019510D01*
X147391999Y-91019877D01*
X147389500Y-91020000D01*
X146680500Y-91020000D01*
X146678001Y-91019877D01*
X146675525Y-91019510D01*
X146673098Y-91018902D01*
X146670742Y-91018059D01*
X146668479Y-91016989D01*
X146666333Y-91015702D01*
X146664323Y-91014212D01*
X146662469Y-91012531D01*
X146660788Y-91010677D01*
X146659298Y-91008667D01*
X146658011Y-91006521D01*
X146656941Y-91004258D01*
X146656098Y-91001902D01*
X146655490Y-90999475D01*
X146655123Y-90996999D01*
X146655000Y-90994500D01*
X146655000Y-90535500D01*
X146655123Y-90533001D01*
X146655490Y-90530525D01*
X146656098Y-90528098D01*
X146656941Y-90525742D01*
X146658011Y-90523479D01*
X146659298Y-90521333D01*
X146660788Y-90519323D01*
X146662469Y-90517469D01*
X146664323Y-90515788D01*
X146666333Y-90514298D01*
X146668479Y-90513011D01*
X146670742Y-90511941D01*
X146673098Y-90511098D01*
X146675525Y-90510490D01*
X146678001Y-90510123D01*
X146680500Y-90510000D01*
X147389500Y-90510000D01*
X147391999Y-90510123D01*
X147391999Y-90510123D01*
G37*
D11*
X147035000Y-90765000D03*
D12*
X157850000Y-81900000D03*
X157850000Y-97400000D03*
D13*
X152010000Y-92825000D03*
X152010000Y-85205000D03*
X152010000Y-87745000D03*
X152010000Y-90285000D03*
X154550000Y-86475000D03*
X154550000Y-89015000D03*
X154550000Y-91555000D03*
D14*
X154550000Y-94095000D03*
D12*
X134150000Y-81700000D03*
X134150000Y-97200000D03*
D13*
X139990000Y-92625000D03*
X139990000Y-85005000D03*
X139990000Y-87545000D03*
X139990000Y-90085000D03*
X137450000Y-86275000D03*
X137450000Y-88815000D03*
X137450000Y-91355000D03*
D14*
X137450000Y-93895000D03*
D15*
X134210000Y-87110000D03*
X134210000Y-91500000D03*
X146060000Y-98090000D03*
X140460000Y-97980000D03*
X151350000Y-98020000D03*
X158340000Y-87350000D03*
X158350000Y-91560000D03*
X146230000Y-81110000D03*
X140800000Y-81090000D03*
X151140000Y-81200000D03*
D16*
X147215000Y-91455000D02*
X147035000Y-91635000D01*
X148385165Y-91484709D02*
X148321756Y-91462521D01*
X148442046Y-91520450D02*
X148385165Y-91484709D01*
X148489549Y-91567953D02*
X148442046Y-91520450D01*
X148525290Y-91624834D02*
X148489549Y-91567953D01*
X148547478Y-91688243D02*
X148525290Y-91624834D01*
X148555000Y-91755000D02*
X148547478Y-91688243D01*
X148555000Y-92155000D02*
X148555000Y-91755000D01*
X148562521Y-92221756D02*
X148555000Y-92155000D01*
X148584709Y-92285165D02*
X148562521Y-92221756D01*
X148620450Y-92342046D02*
X148584709Y-92285165D01*
X148667953Y-92389549D02*
X148620450Y-92342046D01*
X148724834Y-92425290D02*
X148667953Y-92389549D01*
X148788243Y-92447478D02*
X148724834Y-92425290D01*
X148855000Y-92455000D02*
X148788243Y-92447478D01*
X148921756Y-92447478D02*
X148855000Y-92455000D01*
X148985165Y-92425290D02*
X148921756Y-92447478D01*
X149042046Y-92389549D02*
X148985165Y-92425290D01*
X149089549Y-92342046D02*
X149042046Y-92389549D01*
X149125290Y-92285165D02*
X149089549Y-92342046D01*
X149147478Y-92221756D02*
X149125290Y-92285165D01*
X149155000Y-92155000D02*
X149147478Y-92221756D01*
X149155000Y-91755000D02*
X149155000Y-92155000D01*
X149162521Y-91688243D02*
X149155000Y-91755000D01*
X149184709Y-91624834D02*
X149162521Y-91688243D01*
X149220450Y-91567953D02*
X149184709Y-91624834D01*
X149267953Y-91520450D02*
X149220450Y-91567953D01*
X153285165Y-90781182D02*
X153221756Y-90758994D01*
X153342046Y-90816923D02*
X153285165Y-90781182D01*
X153389549Y-90864426D02*
X153342046Y-90816923D01*
X152555000Y-91455000D02*
X149455000Y-91455000D01*
X153425290Y-90921307D02*
X153389549Y-90864426D01*
X153462521Y-91221756D02*
X153455000Y-91155000D01*
X153447478Y-90984716D02*
X153425290Y-90921307D01*
X148255000Y-91455000D02*
X147215000Y-91455000D01*
X153455000Y-91155000D02*
X153455000Y-91051473D01*
X152789549Y-91342046D02*
X152742046Y-91389549D01*
X148321756Y-91462521D02*
X148255000Y-91455000D01*
X153484709Y-91285165D02*
X153462521Y-91221756D01*
X152967953Y-90816923D02*
X152920450Y-90864426D01*
X153520450Y-91342046D02*
X153484709Y-91285165D01*
X154550000Y-91555000D02*
X154450000Y-91455000D01*
X153755000Y-91455000D02*
X153688243Y-91447478D01*
X154450000Y-91455000D02*
X153755000Y-91455000D01*
X153688243Y-91447478D02*
X153624834Y-91425290D01*
X153155000Y-90751473D02*
X153088243Y-90758994D01*
X153624834Y-91425290D02*
X153567953Y-91389549D01*
X153455000Y-91051473D02*
X153447478Y-90984716D01*
X153567953Y-91389549D02*
X153520450Y-91342046D01*
X153221756Y-90758994D02*
X153155000Y-90751473D01*
X153088243Y-90758994D02*
X153024834Y-90781182D01*
X153024834Y-90781182D02*
X152967953Y-90816923D01*
X152742046Y-91389549D02*
X152685165Y-91425290D01*
X152920450Y-90864426D02*
X152884709Y-90921307D01*
X152884709Y-90921307D02*
X152862521Y-90984716D01*
X152862521Y-90984716D02*
X152855000Y-91051473D01*
X152855000Y-91051473D02*
X152855000Y-91155000D01*
X149455000Y-91455000D02*
X149388243Y-91462521D01*
X152855000Y-91155000D02*
X152847478Y-91221756D01*
X152847478Y-91221756D02*
X152825290Y-91285165D01*
X149324834Y-91484709D02*
X149267953Y-91520450D01*
X152825290Y-91285165D02*
X152789549Y-91342046D01*
X152685165Y-91425290D02*
X152621756Y-91447478D01*
X152621756Y-91447478D02*
X152555000Y-91455000D01*
X149388243Y-91462521D02*
X149324834Y-91484709D01*
X143814834Y-91484710D02*
X143878243Y-91462522D01*
X143757953Y-91520451D02*
X143814834Y-91484710D01*
X143710450Y-91567954D02*
X143757953Y-91520451D01*
X145185000Y-91455000D02*
X145365000Y-91635000D01*
X143674709Y-91624835D02*
X143710450Y-91567954D01*
X143652521Y-91688244D02*
X143674709Y-91624835D01*
X143645000Y-91755000D02*
X143652521Y-91688244D01*
X143645000Y-92155000D02*
X143645000Y-91755000D01*
X143637478Y-92221757D02*
X143645000Y-92155000D01*
X143615290Y-92285166D02*
X143637478Y-92221757D01*
X143878243Y-91462522D02*
X143945000Y-91455000D01*
X143579549Y-92342047D02*
X143615290Y-92285166D01*
X143532046Y-92389550D02*
X143579549Y-92342047D01*
X143475165Y-92425291D02*
X143532046Y-92389550D01*
X143411756Y-92447479D02*
X143475165Y-92425291D01*
X143345000Y-92455000D02*
X143411756Y-92447479D01*
X143278243Y-92447479D02*
X143345000Y-92455000D01*
X143214834Y-92425291D02*
X143278243Y-92447479D01*
X143157953Y-92389550D02*
X143214834Y-92425291D01*
X143110450Y-92342047D02*
X143157953Y-92389550D01*
X143074709Y-92285166D02*
X143110450Y-92342047D01*
X143052521Y-92221757D02*
X143074709Y-92285166D01*
X143045000Y-92155000D02*
X143052521Y-92221757D01*
X143045000Y-91755000D02*
X143045000Y-92155000D01*
X143037478Y-91688244D02*
X143045000Y-91755000D01*
X138854065Y-91909505D02*
X138905276Y-91915276D01*
X138624929Y-91541649D02*
X138652347Y-91585284D01*
X138905276Y-91915276D02*
X139045000Y-91915276D01*
X138805422Y-91892485D02*
X138854065Y-91909505D01*
X138697928Y-91784991D02*
X138725346Y-91828626D01*
X138725346Y-91828626D02*
X138761787Y-91865067D01*
X138680908Y-91736348D02*
X138697928Y-91784991D01*
X138669367Y-91633927D02*
X138680908Y-91736348D01*
X137550000Y-91455000D02*
X138445000Y-91455000D01*
X137450000Y-91355000D02*
X137550000Y-91455000D01*
X138652347Y-91585284D02*
X138669367Y-91633927D01*
X139096210Y-91909505D02*
X139144853Y-91892485D01*
X138445000Y-91455000D02*
X138496210Y-91460770D01*
X138496210Y-91460770D02*
X138544853Y-91477790D01*
X142979549Y-91567954D02*
X143015290Y-91624835D01*
X138761787Y-91865067D02*
X138805422Y-91892485D01*
X138544853Y-91477790D02*
X138588488Y-91505208D01*
X138588488Y-91505208D02*
X138624929Y-91541649D01*
X142932046Y-91520451D02*
X142979549Y-91567954D01*
X139045000Y-91915276D02*
X139096210Y-91909505D01*
X142875165Y-91484710D02*
X142932046Y-91520451D01*
X139144853Y-91892485D02*
X139188488Y-91865067D01*
X139269367Y-91736348D02*
X139280908Y-91633927D01*
X143945000Y-91455000D02*
X145185000Y-91455000D01*
X139188488Y-91865067D02*
X139224929Y-91828626D01*
X139224929Y-91828626D02*
X139252347Y-91784991D01*
X139252347Y-91784991D02*
X139269367Y-91736348D01*
X139280908Y-91633927D02*
X139297928Y-91585284D01*
X139297928Y-91585284D02*
X139325346Y-91541649D01*
X139325346Y-91541649D02*
X139361787Y-91505208D01*
X139361787Y-91505208D02*
X139405422Y-91477790D01*
X139405422Y-91477790D02*
X139454065Y-91460770D01*
X139454065Y-91460770D02*
X139505276Y-91455000D01*
X139505276Y-91455000D02*
X142745000Y-91455000D01*
X142745000Y-91455000D02*
X142811756Y-91462522D01*
X142811756Y-91462522D02*
X142875165Y-91484710D01*
X143015290Y-91624835D02*
X143037478Y-91688244D01*
X145185000Y-90945000D02*
X145365000Y-90765000D01*
X143945000Y-90945000D02*
X145185000Y-90945000D01*
X143878243Y-90937478D02*
X143945000Y-90945000D01*
X143814834Y-90915290D02*
X143878243Y-90937478D01*
X143757953Y-90879549D02*
X143814834Y-90915290D01*
X143710450Y-90832046D02*
X143757953Y-90879549D01*
X143652521Y-90711756D02*
X143674709Y-90775165D01*
X143637478Y-90178243D02*
X143645000Y-90245000D01*
X143615290Y-90114834D02*
X143637478Y-90178243D01*
X143579549Y-90057953D02*
X143615290Y-90114834D01*
X143475165Y-89974709D02*
X143532046Y-90010450D01*
X143411756Y-89952521D02*
X143475165Y-89974709D01*
X143345000Y-89945000D02*
X143411756Y-89952521D01*
X143278243Y-89952521D02*
X143345000Y-89945000D01*
X143214834Y-89974709D02*
X143278243Y-89952521D01*
X143157953Y-90010450D02*
X143214834Y-89974709D01*
X143052521Y-90178243D02*
X143074709Y-90114834D01*
X143045000Y-90645000D02*
X143045000Y-90245000D01*
X143015290Y-90775165D02*
X143037478Y-90711756D01*
X142932046Y-90879549D02*
X142979549Y-90832046D01*
X140630955Y-88822149D02*
X140625001Y-88874998D01*
X140676815Y-88726919D02*
X140648520Y-88771951D01*
X143645000Y-90245000D02*
X143645000Y-90645000D01*
X140714421Y-88689313D02*
X140676815Y-88726919D01*
X140809651Y-88643453D02*
X140759453Y-88661018D01*
X139990000Y-87545000D02*
X140445000Y-87545000D01*
X140915349Y-88631544D02*
X140809651Y-88643453D01*
X141100000Y-88400000D02*
X141094045Y-88452848D01*
X143532046Y-90010450D02*
X143579549Y-90057953D01*
X140965547Y-88613979D02*
X140915349Y-88631544D01*
X143037478Y-90711756D02*
X143045000Y-90645000D01*
X141010579Y-88585684D02*
X140965547Y-88613979D01*
X141048185Y-88548078D02*
X141010579Y-88585684D01*
X140445000Y-87545000D02*
X141100000Y-88200000D01*
X143645000Y-90645000D02*
X143652521Y-90711756D01*
X141100000Y-88200000D02*
X141100000Y-88400000D01*
X141094045Y-88452848D02*
X141076480Y-88503046D01*
X140648520Y-88771951D02*
X140630955Y-88822149D01*
X141076480Y-88503046D02*
X141048185Y-88548078D01*
X141010579Y-89289313D02*
X141048185Y-89326919D01*
X140759453Y-88661018D02*
X140714421Y-88689313D01*
X142875165Y-90915290D02*
X142932046Y-90879549D01*
X143674709Y-90775165D02*
X143710450Y-90832046D01*
X140625001Y-88874998D02*
X140625001Y-89000000D01*
X141076480Y-89371951D02*
X141094045Y-89422149D01*
X140625001Y-89000000D02*
X140630955Y-89052848D01*
X140630955Y-89052848D02*
X140648520Y-89103046D01*
X140648520Y-89103046D02*
X140676815Y-89148078D01*
X140676815Y-89148078D02*
X140714421Y-89185684D01*
X140714421Y-89185684D02*
X140759453Y-89213979D01*
X140759453Y-89213979D02*
X140809651Y-89231544D01*
X140809651Y-89231544D02*
X140915349Y-89243453D01*
X143045000Y-90245000D02*
X143052521Y-90178243D01*
X140915349Y-89243453D02*
X140965547Y-89261018D01*
X142979549Y-90832046D02*
X143015290Y-90775165D01*
X141100000Y-90100000D02*
X141945000Y-90945000D01*
X140965547Y-89261018D02*
X141010579Y-89289313D01*
X141048185Y-89326919D02*
X141076480Y-89371951D01*
X141094045Y-89422149D02*
X141100000Y-89474998D01*
X141100000Y-89474998D02*
X141100000Y-90100000D01*
X143074709Y-90114834D02*
X143110450Y-90057953D01*
X141945000Y-90945000D02*
X142745000Y-90945000D01*
X143110450Y-90057953D02*
X143157953Y-90010450D01*
X142811756Y-90937478D02*
X142875165Y-90915290D01*
X142745000Y-90945000D02*
X142811756Y-90937478D01*
X147215000Y-90945000D02*
X147035000Y-90765000D01*
X148245000Y-90945000D02*
X147215000Y-90945000D01*
X148432046Y-90879550D02*
X148375165Y-90915291D01*
X148479549Y-90832047D02*
X148432046Y-90879550D01*
X148515290Y-90775166D02*
X148479549Y-90832047D01*
X148537478Y-90711757D02*
X148515290Y-90775166D01*
X148545000Y-90645000D02*
X148537478Y-90711757D01*
X148545000Y-90245000D02*
X148545000Y-90645000D01*
X148552521Y-90178244D02*
X148545000Y-90245000D01*
X148574709Y-90114835D02*
X148552521Y-90178244D01*
X148375165Y-90915291D02*
X148311756Y-90937479D01*
X148610450Y-90057954D02*
X148574709Y-90114835D01*
X148657953Y-90010451D02*
X148610450Y-90057954D01*
X148714834Y-89974710D02*
X148657953Y-90010451D01*
X148778243Y-89952522D02*
X148714834Y-89974710D01*
X148845000Y-89945000D02*
X148778243Y-89952522D01*
X148911756Y-89952522D02*
X148845000Y-89945000D01*
X148975165Y-89974710D02*
X148911756Y-89952522D01*
X149032046Y-90010451D02*
X148975165Y-89974710D01*
X149079549Y-90057954D02*
X149032046Y-90010451D01*
X149115290Y-90114835D02*
X149079549Y-90057954D01*
X149137478Y-90178244D02*
X149115290Y-90114835D01*
X149145000Y-90245000D02*
X149137478Y-90178244D01*
X149145000Y-90645000D02*
X149145000Y-90245000D01*
X149152521Y-90711757D02*
X149145000Y-90645000D01*
X149174709Y-90775166D02*
X149152521Y-90711757D01*
X149210450Y-90832047D02*
X149174709Y-90775166D01*
X149257953Y-90879550D02*
X149210450Y-90832047D01*
X150371326Y-88788413D02*
X150335977Y-88844669D01*
X150900000Y-88060000D02*
X150900000Y-88380000D01*
X148311756Y-90937479D02*
X148245000Y-90945000D01*
X150537274Y-88684140D02*
X150474562Y-88706084D01*
X150335977Y-88844669D02*
X150314033Y-88907381D01*
X150314033Y-88907381D02*
X150306595Y-88973404D01*
X150732032Y-88647319D02*
X150669320Y-88669263D01*
X150788288Y-88611970D02*
X150732032Y-88647319D01*
X150835268Y-88564990D02*
X150788288Y-88611970D01*
X150788288Y-89341433D02*
X150835268Y-89388413D01*
X151215000Y-87745000D02*
X150900000Y-88060000D01*
X150418306Y-88741433D02*
X150371326Y-88788413D01*
X152010000Y-87745000D02*
X151215000Y-87745000D01*
X150474562Y-88706084D02*
X150418306Y-88741433D01*
X150900000Y-88380000D02*
X150892561Y-88446022D01*
X150870617Y-89444669D02*
X150892561Y-89507381D01*
X150669320Y-88669263D02*
X150537274Y-88684140D01*
X150335977Y-89108734D02*
X150371326Y-89164990D01*
X150892561Y-88446022D02*
X150870617Y-88508734D01*
X150870617Y-88508734D02*
X150835268Y-88564990D01*
X150306595Y-88973404D02*
X150306595Y-88980000D01*
X150306595Y-88980000D02*
X150314033Y-89046022D01*
X150900000Y-89573404D02*
X150900000Y-90580000D01*
X150314033Y-89046022D02*
X150335977Y-89108734D01*
X150371326Y-89164990D02*
X150418306Y-89211970D01*
X150418306Y-89211970D02*
X150474562Y-89247319D01*
X150474562Y-89247319D02*
X150537274Y-89269263D01*
X150537274Y-89269263D02*
X150669320Y-89284140D01*
X150900000Y-90580000D02*
X150535000Y-90945000D01*
X150669320Y-89284140D02*
X150732032Y-89306084D01*
X150732032Y-89306084D02*
X150788288Y-89341433D01*
X150892561Y-89507381D02*
X150900000Y-89573404D01*
X150835268Y-89388413D02*
X150870617Y-89444669D01*
X149445000Y-90945000D02*
X149378243Y-90937479D01*
X150535000Y-90945000D02*
X149445000Y-90945000D01*
X149378243Y-90937479D02*
X149314834Y-90915291D01*
X149314834Y-90915291D02*
X149257953Y-90879550D01*
X154550000Y-84089374D02*
X154550000Y-86475000D01*
X153360626Y-82900000D02*
X154550000Y-84089374D01*
X147370000Y-82800000D02*
X147470000Y-82900000D01*
X147470000Y-82900000D02*
X153360626Y-82900000D01*
X145130000Y-82900000D02*
X145365000Y-82665000D01*
X138810074Y-82900000D02*
X145130000Y-82900000D01*
X137900000Y-83810074D02*
X138810074Y-82900000D01*
X137450000Y-85850000D02*
X137900000Y-85400000D01*
X137900000Y-85400000D02*
X137900000Y-83810074D01*
X139695000Y-85300000D02*
X139990000Y-85005000D01*
X145230000Y-83400000D02*
X138960626Y-83400000D01*
X145365000Y-83535000D02*
X145230000Y-83400000D01*
X138960626Y-83400000D02*
X138400000Y-83960626D01*
X138400000Y-83960626D02*
X138400000Y-84900000D01*
X138400000Y-84900000D02*
X138800000Y-85300000D01*
X138800000Y-85300000D02*
X139695000Y-85300000D01*
X153495000Y-85205000D02*
X152010000Y-85205000D01*
X154000000Y-84700000D02*
X153495000Y-85205000D01*
X154000000Y-84260626D02*
X154000000Y-84700000D01*
X153139374Y-83400000D02*
X154000000Y-84260626D01*
X147035000Y-83535000D02*
X147170000Y-83400000D01*
X147170000Y-83400000D02*
X153139374Y-83400000D01*
D17*
G36*
X163065424Y-79669580D02*
G01*
X163128356Y-79688580D01*
X163186405Y-79719445D01*
X163237343Y-79760989D01*
X163279248Y-79811644D01*
X163310515Y-79869471D01*
X163329956Y-79932272D01*
X163340000Y-80027835D01*
X163340001Y-98967711D01*
X163330420Y-99065424D01*
X163311420Y-99128357D01*
X163280554Y-99186406D01*
X163239011Y-99237343D01*
X163188356Y-99279248D01*
X163130529Y-99310515D01*
X163067728Y-99329956D01*
X162972165Y-99340000D01*
X129032279Y-99340000D01*
X128934576Y-99330420D01*
X128871643Y-99311420D01*
X128813594Y-99280554D01*
X128762657Y-99239011D01*
X128720752Y-99188356D01*
X128689485Y-99130529D01*
X128670044Y-99067728D01*
X128660000Y-98972165D01*
X128660000Y-98477980D01*
X133051626Y-98477980D01*
X133171514Y-98762836D01*
X133495210Y-98923699D01*
X133844069Y-99018322D01*
X134204684Y-99043067D01*
X134563198Y-98996985D01*
X134905833Y-98881846D01*
X135128486Y-98762836D01*
X135164199Y-98677980D01*
X156751626Y-98677980D01*
X156871514Y-98962836D01*
X157195210Y-99123699D01*
X157544069Y-99218322D01*
X157904684Y-99243067D01*
X158263198Y-99196985D01*
X158605833Y-99081846D01*
X158828486Y-98962836D01*
X158948374Y-98677980D01*
X157850000Y-97579605D01*
X156751626Y-98677980D01*
X135164199Y-98677980D01*
X135248374Y-98477980D01*
X134150000Y-97379605D01*
X133051626Y-98477980D01*
X128660000Y-98477980D01*
X128660000Y-94944872D01*
X128865000Y-94944872D01*
X128865000Y-95385128D01*
X128950890Y-95816925D01*
X129119369Y-96223669D01*
X129363962Y-96589729D01*
X129675271Y-96901038D01*
X130041331Y-97145631D01*
X130448075Y-97314110D01*
X130879872Y-97400000D01*
X131320128Y-97400000D01*
X131751925Y-97314110D01*
X132158669Y-97145631D01*
X132321900Y-97036564D01*
X132306933Y-97254684D01*
X132353015Y-97613198D01*
X132468154Y-97955833D01*
X132587164Y-98178486D01*
X132872020Y-98298374D01*
X133970395Y-97200000D01*
X134329605Y-97200000D01*
X135427980Y-98298374D01*
X135712836Y-98178486D01*
X135873699Y-97854790D01*
X135968322Y-97505931D01*
X135971838Y-97454684D01*
X156006933Y-97454684D01*
X156053015Y-97813198D01*
X156168154Y-98155833D01*
X156287164Y-98378486D01*
X156572020Y-98498374D01*
X157670395Y-97400000D01*
X156572020Y-96301626D01*
X156287164Y-96421514D01*
X156126301Y-96745210D01*
X156031678Y-97094069D01*
X156006933Y-97454684D01*
X135971838Y-97454684D01*
X135993067Y-97145316D01*
X135946985Y-96786802D01*
X135831846Y-96444167D01*
X135712836Y-96221514D01*
X135476437Y-96122020D01*
X156751626Y-96122020D01*
X157850000Y-97220395D01*
X157864142Y-97206252D01*
X158043748Y-97385858D01*
X158029605Y-97400000D01*
X159127980Y-98498374D01*
X159412836Y-98378486D01*
X159573699Y-98054790D01*
X159668322Y-97705931D01*
X159693067Y-97345316D01*
X159679181Y-97237286D01*
X159841331Y-97345631D01*
X160248075Y-97514110D01*
X160679872Y-97600000D01*
X161120128Y-97600000D01*
X161551925Y-97514110D01*
X161958669Y-97345631D01*
X162324729Y-97101038D01*
X162636038Y-96789729D01*
X162880631Y-96423669D01*
X163049110Y-96016925D01*
X163135000Y-95585128D01*
X163135000Y-95144872D01*
X163049110Y-94713075D01*
X162880631Y-94306331D01*
X162636038Y-93940271D01*
X162324729Y-93628962D01*
X161958669Y-93384369D01*
X161551925Y-93215890D01*
X161120128Y-93130000D01*
X160679872Y-93130000D01*
X160248075Y-93215890D01*
X159841331Y-93384369D01*
X159475271Y-93628962D01*
X159163962Y-93940271D01*
X158919369Y-94306331D01*
X158750890Y-94713075D01*
X158665000Y-95144872D01*
X158665000Y-95585128D01*
X158702699Y-95774653D01*
X158504790Y-95676301D01*
X158155931Y-95581678D01*
X157795316Y-95556933D01*
X157436802Y-95603015D01*
X157094167Y-95718154D01*
X156871514Y-95837164D01*
X156751626Y-96122020D01*
X135476437Y-96122020D01*
X135427980Y-96101626D01*
X134329605Y-97200000D01*
X133970395Y-97200000D01*
X133956252Y-97185858D01*
X134135858Y-97006252D01*
X134150000Y-97020395D01*
X135248374Y-95922020D01*
X135128486Y-95637164D01*
X134804790Y-95476301D01*
X134455931Y-95381678D01*
X134095316Y-95356933D01*
X133736802Y-95403015D01*
X133394167Y-95518154D01*
X133298352Y-95569368D01*
X133335000Y-95385128D01*
X133335000Y-94944872D01*
X133249110Y-94513075D01*
X133080631Y-94106331D01*
X132836038Y-93740271D01*
X132524729Y-93428962D01*
X132168594Y-93191000D01*
X136107928Y-93191000D01*
X136107928Y-94599000D01*
X136120188Y-94723482D01*
X136156498Y-94843180D01*
X136215463Y-94953494D01*
X136294815Y-95050185D01*
X136391506Y-95129537D01*
X136501820Y-95188502D01*
X136621518Y-95224812D01*
X136746000Y-95237072D01*
X138154000Y-95237072D01*
X138278482Y-95224812D01*
X138398180Y-95188502D01*
X138508494Y-95129537D01*
X138605185Y-95050185D01*
X138684537Y-94953494D01*
X138743502Y-94843180D01*
X138779812Y-94723482D01*
X138792072Y-94599000D01*
X138792072Y-93231923D01*
X138803393Y-93259254D01*
X138949931Y-93478563D01*
X139136437Y-93665069D01*
X139355746Y-93811607D01*
X139599428Y-93912543D01*
X139858120Y-93964000D01*
X140121880Y-93964000D01*
X140380572Y-93912543D01*
X140624254Y-93811607D01*
X140843563Y-93665069D01*
X141030069Y-93478563D01*
X141176607Y-93259254D01*
X141277543Y-93015572D01*
X141329000Y-92756880D01*
X141329000Y-92493120D01*
X141277543Y-92234428D01*
X141271567Y-92220000D01*
X142282484Y-92220000D01*
X142284206Y-92235285D01*
X142289808Y-92292165D01*
X142291368Y-92329216D01*
X142306629Y-92392006D01*
X142320119Y-92455185D01*
X142339310Y-92499739D01*
X142343778Y-92512507D01*
X142356552Y-92559304D01*
X142385405Y-92617127D01*
X142412619Y-92675726D01*
X142441241Y-92714889D01*
X142448436Y-92726339D01*
X142471299Y-92769114D01*
X142512295Y-92819068D01*
X142551868Y-92870144D01*
X142588480Y-92901950D01*
X142598052Y-92911522D01*
X142629856Y-92948132D01*
X142680924Y-92987699D01*
X142730885Y-93028701D01*
X142773665Y-93051567D01*
X142785106Y-93058756D01*
X142824274Y-93087382D01*
X142882885Y-93114601D01*
X142940696Y-93143448D01*
X142987493Y-93156222D01*
X143000259Y-93160689D01*
X143044815Y-93179881D01*
X143107994Y-93193371D01*
X143170784Y-93208632D01*
X143219259Y-93210673D01*
X143232686Y-93212185D01*
X143280384Y-93220980D01*
X143345000Y-93220074D01*
X143409617Y-93220980D01*
X143457313Y-93212186D01*
X143470742Y-93210673D01*
X143519215Y-93208632D01*
X143582012Y-93193369D01*
X143645185Y-93179880D01*
X143689735Y-93160691D01*
X143702506Y-93156222D01*
X143749303Y-93143448D01*
X143807126Y-93114595D01*
X143865725Y-93087381D01*
X143904888Y-93058759D01*
X143916338Y-93051564D01*
X143959113Y-93028701D01*
X144009067Y-92987705D01*
X144060143Y-92948132D01*
X144091949Y-92911520D01*
X144101521Y-92901948D01*
X144138131Y-92870144D01*
X144177698Y-92819076D01*
X144218700Y-92769115D01*
X144241566Y-92726335D01*
X144248755Y-92714894D01*
X144277381Y-92675726D01*
X144304600Y-92617115D01*
X144333447Y-92559304D01*
X144346221Y-92512507D01*
X144350688Y-92499743D01*
X144369876Y-92455196D01*
X144383365Y-92392023D01*
X144398631Y-92329216D01*
X144400190Y-92292183D01*
X144405795Y-92235276D01*
X144407516Y-92220000D01*
X144451725Y-92220000D01*
X144458760Y-92233161D01*
X144541284Y-92333716D01*
X144641839Y-92416240D01*
X144756562Y-92477561D01*
X144881044Y-92515322D01*
X145010500Y-92528072D01*
X145719500Y-92528072D01*
X145848956Y-92515322D01*
X145973438Y-92477561D01*
X146088161Y-92416240D01*
X146188716Y-92333716D01*
X146200000Y-92319967D01*
X146211284Y-92333716D01*
X146311839Y-92416240D01*
X146426562Y-92477561D01*
X146551044Y-92515322D01*
X146680500Y-92528072D01*
X147389500Y-92528072D01*
X147518956Y-92515322D01*
X147643438Y-92477561D01*
X147758161Y-92416240D01*
X147811817Y-92372205D01*
X147816631Y-92392012D01*
X147830120Y-92455185D01*
X147849309Y-92499735D01*
X147853778Y-92512506D01*
X147866552Y-92559303D01*
X147895405Y-92617126D01*
X147922619Y-92675725D01*
X147951241Y-92714888D01*
X147958436Y-92726338D01*
X147981299Y-92769113D01*
X148022295Y-92819067D01*
X148061868Y-92870143D01*
X148098480Y-92901949D01*
X148108052Y-92911521D01*
X148139856Y-92948131D01*
X148190924Y-92987698D01*
X148240885Y-93028700D01*
X148283665Y-93051566D01*
X148295106Y-93058755D01*
X148334274Y-93087381D01*
X148392885Y-93114600D01*
X148450696Y-93143447D01*
X148497493Y-93156221D01*
X148510257Y-93160688D01*
X148554804Y-93179876D01*
X148617977Y-93193365D01*
X148680784Y-93208631D01*
X148729257Y-93210672D01*
X148742683Y-93212184D01*
X148790396Y-93220981D01*
X148855000Y-93220074D01*
X148919605Y-93220981D01*
X148967314Y-93212185D01*
X148980744Y-93210671D01*
X149029215Y-93208631D01*
X149092015Y-93193367D01*
X149155196Y-93179876D01*
X149199743Y-93160687D01*
X149212506Y-93156221D01*
X149259303Y-93143447D01*
X149317126Y-93114594D01*
X149375725Y-93087380D01*
X149414888Y-93058758D01*
X149426338Y-93051563D01*
X149469113Y-93028700D01*
X149519067Y-92987704D01*
X149570143Y-92948131D01*
X149601949Y-92911519D01*
X149611521Y-92901947D01*
X149648131Y-92870143D01*
X149687698Y-92819075D01*
X149728700Y-92769114D01*
X149751566Y-92726334D01*
X149758755Y-92714893D01*
X149787381Y-92675725D01*
X149814600Y-92617114D01*
X149843447Y-92559303D01*
X149856221Y-92512506D01*
X149860686Y-92499745D01*
X149879876Y-92455196D01*
X149893368Y-92392011D01*
X149908631Y-92329215D01*
X149910190Y-92292184D01*
X149915793Y-92235295D01*
X149917516Y-92220000D01*
X150811276Y-92220000D01*
X150722457Y-92434428D01*
X150671000Y-92693120D01*
X150671000Y-92956880D01*
X150722457Y-93215572D01*
X150823393Y-93459254D01*
X150969931Y-93678563D01*
X151156437Y-93865069D01*
X151375746Y-94011607D01*
X151619428Y-94112543D01*
X151878120Y-94164000D01*
X152141880Y-94164000D01*
X152400572Y-94112543D01*
X152644254Y-94011607D01*
X152863563Y-93865069D01*
X153050069Y-93678563D01*
X153196607Y-93459254D01*
X153207928Y-93431923D01*
X153207928Y-94799000D01*
X153220188Y-94923482D01*
X153256498Y-95043180D01*
X153315463Y-95153494D01*
X153394815Y-95250185D01*
X153491506Y-95329537D01*
X153601820Y-95388502D01*
X153721518Y-95424812D01*
X153846000Y-95437072D01*
X155254000Y-95437072D01*
X155378482Y-95424812D01*
X155498180Y-95388502D01*
X155608494Y-95329537D01*
X155705185Y-95250185D01*
X155784537Y-95153494D01*
X155843502Y-95043180D01*
X155879812Y-94923482D01*
X155892072Y-94799000D01*
X155892072Y-93391000D01*
X155879812Y-93266518D01*
X155843502Y-93146820D01*
X155784537Y-93036506D01*
X155705185Y-92939815D01*
X155608494Y-92860463D01*
X155498180Y-92801498D01*
X155378482Y-92765188D01*
X155254000Y-92752928D01*
X155156923Y-92752928D01*
X155184254Y-92741607D01*
X155403563Y-92595069D01*
X155590069Y-92408563D01*
X155736607Y-92189254D01*
X155837543Y-91945572D01*
X155889000Y-91686880D01*
X155889000Y-91423120D01*
X155837543Y-91164428D01*
X155736607Y-90920746D01*
X155590069Y-90701437D01*
X155403563Y-90514931D01*
X155184254Y-90368393D01*
X154982925Y-90285000D01*
X155184254Y-90201607D01*
X155403563Y-90055069D01*
X155590069Y-89868563D01*
X155736607Y-89649254D01*
X155837543Y-89405572D01*
X155889000Y-89146880D01*
X155889000Y-88883120D01*
X155837543Y-88624428D01*
X155736607Y-88380746D01*
X155590069Y-88161437D01*
X155403563Y-87974931D01*
X155184254Y-87828393D01*
X154982925Y-87745000D01*
X155184254Y-87661607D01*
X155403563Y-87515069D01*
X155590069Y-87328563D01*
X155736607Y-87109254D01*
X155837543Y-86865572D01*
X155889000Y-86606880D01*
X155889000Y-86343120D01*
X155837543Y-86084428D01*
X155736607Y-85840746D01*
X155694716Y-85778053D01*
X155672388Y-85736624D01*
X155645790Y-85691784D01*
X155574969Y-85582848D01*
X155552855Y-85551005D01*
X155483295Y-85457093D01*
X155473769Y-85444560D01*
X155412023Y-85365380D01*
X155369663Y-85308304D01*
X155348582Y-85274812D01*
X155338507Y-85253488D01*
X155329700Y-85225014D01*
X155320389Y-85168508D01*
X155315000Y-85055826D01*
X155315000Y-84126949D01*
X155318701Y-84089374D01*
X155315000Y-84051796D01*
X155303931Y-83939408D01*
X155264698Y-83810074D01*
X155260187Y-83795204D01*
X155217248Y-83714872D01*
X155189152Y-83662307D01*
X155093554Y-83545820D01*
X155064362Y-83521863D01*
X154720479Y-83177980D01*
X156751626Y-83177980D01*
X156871514Y-83462836D01*
X157195210Y-83623699D01*
X157544069Y-83718322D01*
X157904684Y-83743067D01*
X158263198Y-83696985D01*
X158605833Y-83581846D01*
X158701648Y-83530632D01*
X158665000Y-83714872D01*
X158665000Y-84155128D01*
X158750890Y-84586925D01*
X158919369Y-84993669D01*
X159163962Y-85359729D01*
X159475271Y-85671038D01*
X159841331Y-85915631D01*
X160248075Y-86084110D01*
X160679872Y-86170000D01*
X161120128Y-86170000D01*
X161551925Y-86084110D01*
X161958669Y-85915631D01*
X162324729Y-85671038D01*
X162636038Y-85359729D01*
X162880631Y-84993669D01*
X163049110Y-84586925D01*
X163135000Y-84155128D01*
X163135000Y-83714872D01*
X163049110Y-83283075D01*
X162880631Y-82876331D01*
X162636038Y-82510271D01*
X162324729Y-82198962D01*
X161958669Y-81954369D01*
X161551925Y-81785890D01*
X161120128Y-81700000D01*
X160679872Y-81700000D01*
X160248075Y-81785890D01*
X159841331Y-81954369D01*
X159678100Y-82063436D01*
X159693067Y-81845316D01*
X159646985Y-81486802D01*
X159531846Y-81144167D01*
X159412836Y-80921514D01*
X159127980Y-80801626D01*
X158029605Y-81900000D01*
X158043748Y-81914142D01*
X157864142Y-82093748D01*
X157850000Y-82079605D01*
X156751626Y-83177980D01*
X154720479Y-83177980D01*
X153928138Y-82385639D01*
X153904180Y-82356446D01*
X153787693Y-82260848D01*
X153654795Y-82189813D01*
X153510592Y-82146069D01*
X153398204Y-82135000D01*
X153398201Y-82135000D01*
X153360626Y-82131299D01*
X153323051Y-82135000D01*
X147977673Y-82135000D01*
X147941240Y-82066839D01*
X147858716Y-81966284D01*
X147844582Y-81954684D01*
X156006933Y-81954684D01*
X156053015Y-82313198D01*
X156168154Y-82655833D01*
X156287164Y-82878486D01*
X156572020Y-82998374D01*
X157670395Y-81900000D01*
X156572020Y-80801626D01*
X156287164Y-80921514D01*
X156126301Y-81245210D01*
X156031678Y-81594069D01*
X156006933Y-81954684D01*
X147844582Y-81954684D01*
X147758161Y-81883760D01*
X147643438Y-81822439D01*
X147518956Y-81784678D01*
X147389500Y-81771928D01*
X146680500Y-81771928D01*
X146551044Y-81784678D01*
X146426562Y-81822439D01*
X146311839Y-81883760D01*
X146211284Y-81966284D01*
X146200000Y-81980033D01*
X146188716Y-81966284D01*
X146088161Y-81883760D01*
X145973438Y-81822439D01*
X145848956Y-81784678D01*
X145719500Y-81771928D01*
X145010500Y-81771928D01*
X144881044Y-81784678D01*
X144756562Y-81822439D01*
X144641839Y-81883760D01*
X144541284Y-81966284D01*
X144458760Y-82066839D01*
X144422327Y-82135000D01*
X138847649Y-82135000D01*
X138810074Y-82131299D01*
X138772498Y-82135000D01*
X138772496Y-82135000D01*
X138660108Y-82146069D01*
X138515905Y-82189813D01*
X138383007Y-82260848D01*
X138266520Y-82356446D01*
X138242566Y-82385634D01*
X137385634Y-83242567D01*
X137356447Y-83266520D01*
X137332494Y-83295707D01*
X137332492Y-83295709D01*
X137260849Y-83383007D01*
X137189814Y-83515905D01*
X137146070Y-83660108D01*
X137131299Y-83810074D01*
X137135001Y-83847659D01*
X137135000Y-84931462D01*
X137134510Y-84931691D01*
X137033892Y-84975922D01*
X137009419Y-84987307D01*
X136898387Y-85041859D01*
X136844349Y-85071755D01*
X136820910Y-85086254D01*
X136815746Y-85088393D01*
X136794470Y-85102609D01*
X136732868Y-85140715D01*
X136673982Y-85183117D01*
X136596437Y-85234931D01*
X136409931Y-85421437D01*
X136263393Y-85640746D01*
X136162457Y-85884428D01*
X136111000Y-86143120D01*
X136111000Y-86406880D01*
X136162457Y-86665572D01*
X136263393Y-86909254D01*
X136409931Y-87128563D01*
X136596437Y-87315069D01*
X136815746Y-87461607D01*
X137017075Y-87545000D01*
X136815746Y-87628393D01*
X136596437Y-87774931D01*
X136409931Y-87961437D01*
X136263393Y-88180746D01*
X136162457Y-88424428D01*
X136111000Y-88683120D01*
X136111000Y-88946880D01*
X136162457Y-89205572D01*
X136263393Y-89449254D01*
X136409931Y-89668563D01*
X136596437Y-89855069D01*
X136815746Y-90001607D01*
X137017075Y-90085000D01*
X136815746Y-90168393D01*
X136596437Y-90314931D01*
X136409931Y-90501437D01*
X136263393Y-90720746D01*
X136162457Y-90964428D01*
X136111000Y-91223120D01*
X136111000Y-91486880D01*
X136162457Y-91745572D01*
X136263393Y-91989254D01*
X136409931Y-92208563D01*
X136596437Y-92395069D01*
X136815746Y-92541607D01*
X136843077Y-92552928D01*
X136746000Y-92552928D01*
X136621518Y-92565188D01*
X136501820Y-92601498D01*
X136391506Y-92660463D01*
X136294815Y-92739815D01*
X136215463Y-92836506D01*
X136156498Y-92946820D01*
X136120188Y-93066518D01*
X136107928Y-93191000D01*
X132168594Y-93191000D01*
X132158669Y-93184369D01*
X131751925Y-93015890D01*
X131320128Y-92930000D01*
X130879872Y-92930000D01*
X130448075Y-93015890D01*
X130041331Y-93184369D01*
X129675271Y-93428962D01*
X129363962Y-93740271D01*
X129119369Y-94106331D01*
X128950890Y-94513075D01*
X128865000Y-94944872D01*
X128660000Y-94944872D01*
X128660000Y-83514872D01*
X128865000Y-83514872D01*
X128865000Y-83955128D01*
X128950890Y-84386925D01*
X129119369Y-84793669D01*
X129363962Y-85159729D01*
X129675271Y-85471038D01*
X130041331Y-85715631D01*
X130448075Y-85884110D01*
X130879872Y-85970000D01*
X131320128Y-85970000D01*
X131751925Y-85884110D01*
X132158669Y-85715631D01*
X132524729Y-85471038D01*
X132836038Y-85159729D01*
X133080631Y-84793669D01*
X133249110Y-84386925D01*
X133335000Y-83955128D01*
X133335000Y-83514872D01*
X133297301Y-83325347D01*
X133495210Y-83423699D01*
X133844069Y-83518322D01*
X134204684Y-83543067D01*
X134563198Y-83496985D01*
X134905833Y-83381846D01*
X135128486Y-83262836D01*
X135248374Y-82977980D01*
X134150000Y-81879605D01*
X134135858Y-81893748D01*
X133956252Y-81714142D01*
X133970395Y-81700000D01*
X134329605Y-81700000D01*
X135427980Y-82798374D01*
X135712836Y-82678486D01*
X135873699Y-82354790D01*
X135968322Y-82005931D01*
X135993067Y-81645316D01*
X135946985Y-81286802D01*
X135831846Y-80944167D01*
X135712836Y-80721514D01*
X135476437Y-80622020D01*
X156751626Y-80622020D01*
X157850000Y-81720395D01*
X158948374Y-80622020D01*
X158828486Y-80337164D01*
X158504790Y-80176301D01*
X158155931Y-80081678D01*
X157795316Y-80056933D01*
X157436802Y-80103015D01*
X157094167Y-80218154D01*
X156871514Y-80337164D01*
X156751626Y-80622020D01*
X135476437Y-80622020D01*
X135427980Y-80601626D01*
X134329605Y-81700000D01*
X133970395Y-81700000D01*
X132872020Y-80601626D01*
X132587164Y-80721514D01*
X132426301Y-81045210D01*
X132331678Y-81394069D01*
X132306933Y-81754684D01*
X132320819Y-81862714D01*
X132158669Y-81754369D01*
X131751925Y-81585890D01*
X131320128Y-81500000D01*
X130879872Y-81500000D01*
X130448075Y-81585890D01*
X130041331Y-81754369D01*
X129675271Y-81998962D01*
X129363962Y-82310271D01*
X129119369Y-82676331D01*
X128950890Y-83083075D01*
X128865000Y-83514872D01*
X128660000Y-83514872D01*
X128660000Y-80422020D01*
X133051626Y-80422020D01*
X134150000Y-81520395D01*
X135248374Y-80422020D01*
X135128486Y-80137164D01*
X134804790Y-79976301D01*
X134455931Y-79881678D01*
X134095316Y-79856933D01*
X133736802Y-79903015D01*
X133394167Y-80018154D01*
X133171514Y-80137164D01*
X133051626Y-80422020D01*
X128660000Y-80422020D01*
X128660000Y-80032279D01*
X128669580Y-79934576D01*
X128688580Y-79871644D01*
X128719445Y-79813595D01*
X128760989Y-79762657D01*
X128811644Y-79720752D01*
X128869471Y-79689485D01*
X128932272Y-79670044D01*
X129027835Y-79660000D01*
X162967721Y-79660000D01*
X163065424Y-79669580D01*
X163065424Y-79669580D01*
G37*
X163065424Y-79669580D02*
X163128356Y-79688580D01*
X163186405Y-79719445D01*
X163237343Y-79760989D01*
X163279248Y-79811644D01*
X163310515Y-79869471D01*
X163329956Y-79932272D01*
X163340000Y-80027835D01*
X163340001Y-98967711D01*
X163330420Y-99065424D01*
X163311420Y-99128357D01*
X163280554Y-99186406D01*
X163239011Y-99237343D01*
X163188356Y-99279248D01*
X163130529Y-99310515D01*
X163067728Y-99329956D01*
X162972165Y-99340000D01*
X129032279Y-99340000D01*
X128934576Y-99330420D01*
X128871643Y-99311420D01*
X128813594Y-99280554D01*
X128762657Y-99239011D01*
X128720752Y-99188356D01*
X128689485Y-99130529D01*
X128670044Y-99067728D01*
X128660000Y-98972165D01*
X128660000Y-98477980D01*
X133051626Y-98477980D01*
X133171514Y-98762836D01*
X133495210Y-98923699D01*
X133844069Y-99018322D01*
X134204684Y-99043067D01*
X134563198Y-98996985D01*
X134905833Y-98881846D01*
X135128486Y-98762836D01*
X135164199Y-98677980D01*
X156751626Y-98677980D01*
X156871514Y-98962836D01*
X157195210Y-99123699D01*
X157544069Y-99218322D01*
X157904684Y-99243067D01*
X158263198Y-99196985D01*
X158605833Y-99081846D01*
X158828486Y-98962836D01*
X158948374Y-98677980D01*
X157850000Y-97579605D01*
X156751626Y-98677980D01*
X135164199Y-98677980D01*
X135248374Y-98477980D01*
X134150000Y-97379605D01*
X133051626Y-98477980D01*
X128660000Y-98477980D01*
X128660000Y-94944872D01*
X128865000Y-94944872D01*
X128865000Y-95385128D01*
X128950890Y-95816925D01*
X129119369Y-96223669D01*
X129363962Y-96589729D01*
X129675271Y-96901038D01*
X130041331Y-97145631D01*
X130448075Y-97314110D01*
X130879872Y-97400000D01*
X131320128Y-97400000D01*
X131751925Y-97314110D01*
X132158669Y-97145631D01*
X132321900Y-97036564D01*
X132306933Y-97254684D01*
X132353015Y-97613198D01*
X132468154Y-97955833D01*
X132587164Y-98178486D01*
X132872020Y-98298374D01*
X133970395Y-97200000D01*
X134329605Y-97200000D01*
X135427980Y-98298374D01*
X135712836Y-98178486D01*
X135873699Y-97854790D01*
X135968322Y-97505931D01*
X135971838Y-97454684D01*
X156006933Y-97454684D01*
X156053015Y-97813198D01*
X156168154Y-98155833D01*
X156287164Y-98378486D01*
X156572020Y-98498374D01*
X157670395Y-97400000D01*
X156572020Y-96301626D01*
X156287164Y-96421514D01*
X156126301Y-96745210D01*
X156031678Y-97094069D01*
X156006933Y-97454684D01*
X135971838Y-97454684D01*
X135993067Y-97145316D01*
X135946985Y-96786802D01*
X135831846Y-96444167D01*
X135712836Y-96221514D01*
X135476437Y-96122020D01*
X156751626Y-96122020D01*
X157850000Y-97220395D01*
X157864142Y-97206252D01*
X158043748Y-97385858D01*
X158029605Y-97400000D01*
X159127980Y-98498374D01*
X159412836Y-98378486D01*
X159573699Y-98054790D01*
X159668322Y-97705931D01*
X159693067Y-97345316D01*
X159679181Y-97237286D01*
X159841331Y-97345631D01*
X160248075Y-97514110D01*
X160679872Y-97600000D01*
X161120128Y-97600000D01*
X161551925Y-97514110D01*
X161958669Y-97345631D01*
X162324729Y-97101038D01*
X162636038Y-96789729D01*
X162880631Y-96423669D01*
X163049110Y-96016925D01*
X163135000Y-95585128D01*
X163135000Y-95144872D01*
X163049110Y-94713075D01*
X162880631Y-94306331D01*
X162636038Y-93940271D01*
X162324729Y-93628962D01*
X161958669Y-93384369D01*
X161551925Y-93215890D01*
X161120128Y-93130000D01*
X160679872Y-93130000D01*
X160248075Y-93215890D01*
X159841331Y-93384369D01*
X159475271Y-93628962D01*
X159163962Y-93940271D01*
X158919369Y-94306331D01*
X158750890Y-94713075D01*
X158665000Y-95144872D01*
X158665000Y-95585128D01*
X158702699Y-95774653D01*
X158504790Y-95676301D01*
X158155931Y-95581678D01*
X157795316Y-95556933D01*
X157436802Y-95603015D01*
X157094167Y-95718154D01*
X156871514Y-95837164D01*
X156751626Y-96122020D01*
X135476437Y-96122020D01*
X135427980Y-96101626D01*
X134329605Y-97200000D01*
X133970395Y-97200000D01*
X133956252Y-97185858D01*
X134135858Y-97006252D01*
X134150000Y-97020395D01*
X135248374Y-95922020D01*
X135128486Y-95637164D01*
X134804790Y-95476301D01*
X134455931Y-95381678D01*
X134095316Y-95356933D01*
X133736802Y-95403015D01*
X133394167Y-95518154D01*
X133298352Y-95569368D01*
X133335000Y-95385128D01*
X133335000Y-94944872D01*
X133249110Y-94513075D01*
X133080631Y-94106331D01*
X132836038Y-93740271D01*
X132524729Y-93428962D01*
X132168594Y-93191000D01*
X136107928Y-93191000D01*
X136107928Y-94599000D01*
X136120188Y-94723482D01*
X136156498Y-94843180D01*
X136215463Y-94953494D01*
X136294815Y-95050185D01*
X136391506Y-95129537D01*
X136501820Y-95188502D01*
X136621518Y-95224812D01*
X136746000Y-95237072D01*
X138154000Y-95237072D01*
X138278482Y-95224812D01*
X138398180Y-95188502D01*
X138508494Y-95129537D01*
X138605185Y-95050185D01*
X138684537Y-94953494D01*
X138743502Y-94843180D01*
X138779812Y-94723482D01*
X138792072Y-94599000D01*
X138792072Y-93231923D01*
X138803393Y-93259254D01*
X138949931Y-93478563D01*
X139136437Y-93665069D01*
X139355746Y-93811607D01*
X139599428Y-93912543D01*
X139858120Y-93964000D01*
X140121880Y-93964000D01*
X140380572Y-93912543D01*
X140624254Y-93811607D01*
X140843563Y-93665069D01*
X141030069Y-93478563D01*
X141176607Y-93259254D01*
X141277543Y-93015572D01*
X141329000Y-92756880D01*
X141329000Y-92493120D01*
X141277543Y-92234428D01*
X141271567Y-92220000D01*
X142282484Y-92220000D01*
X142284206Y-92235285D01*
X142289808Y-92292165D01*
X142291368Y-92329216D01*
X142306629Y-92392006D01*
X142320119Y-92455185D01*
X142339310Y-92499739D01*
X142343778Y-92512507D01*
X142356552Y-92559304D01*
X142385405Y-92617127D01*
X142412619Y-92675726D01*
X142441241Y-92714889D01*
X142448436Y-92726339D01*
X142471299Y-92769114D01*
X142512295Y-92819068D01*
X142551868Y-92870144D01*
X142588480Y-92901950D01*
X142598052Y-92911522D01*
X142629856Y-92948132D01*
X142680924Y-92987699D01*
X142730885Y-93028701D01*
X142773665Y-93051567D01*
X142785106Y-93058756D01*
X142824274Y-93087382D01*
X142882885Y-93114601D01*
X142940696Y-93143448D01*
X142987493Y-93156222D01*
X143000259Y-93160689D01*
X143044815Y-93179881D01*
X143107994Y-93193371D01*
X143170784Y-93208632D01*
X143219259Y-93210673D01*
X143232686Y-93212185D01*
X143280384Y-93220980D01*
X143345000Y-93220074D01*
X143409617Y-93220980D01*
X143457313Y-93212186D01*
X143470742Y-93210673D01*
X143519215Y-93208632D01*
X143582012Y-93193369D01*
X143645185Y-93179880D01*
X143689735Y-93160691D01*
X143702506Y-93156222D01*
X143749303Y-93143448D01*
X143807126Y-93114595D01*
X143865725Y-93087381D01*
X143904888Y-93058759D01*
X143916338Y-93051564D01*
X143959113Y-93028701D01*
X144009067Y-92987705D01*
X144060143Y-92948132D01*
X144091949Y-92911520D01*
X144101521Y-92901948D01*
X144138131Y-92870144D01*
X144177698Y-92819076D01*
X144218700Y-92769115D01*
X144241566Y-92726335D01*
X144248755Y-92714894D01*
X144277381Y-92675726D01*
X144304600Y-92617115D01*
X144333447Y-92559304D01*
X144346221Y-92512507D01*
X144350688Y-92499743D01*
X144369876Y-92455196D01*
X144383365Y-92392023D01*
X144398631Y-92329216D01*
X144400190Y-92292183D01*
X144405795Y-92235276D01*
X144407516Y-92220000D01*
X144451725Y-92220000D01*
X144458760Y-92233161D01*
X144541284Y-92333716D01*
X144641839Y-92416240D01*
X144756562Y-92477561D01*
X144881044Y-92515322D01*
X145010500Y-92528072D01*
X145719500Y-92528072D01*
X145848956Y-92515322D01*
X145973438Y-92477561D01*
X146088161Y-92416240D01*
X146188716Y-92333716D01*
X146200000Y-92319967D01*
X146211284Y-92333716D01*
X146311839Y-92416240D01*
X146426562Y-92477561D01*
X146551044Y-92515322D01*
X146680500Y-92528072D01*
X147389500Y-92528072D01*
X147518956Y-92515322D01*
X147643438Y-92477561D01*
X147758161Y-92416240D01*
X147811817Y-92372205D01*
X147816631Y-92392012D01*
X147830120Y-92455185D01*
X147849309Y-92499735D01*
X147853778Y-92512506D01*
X147866552Y-92559303D01*
X147895405Y-92617126D01*
X147922619Y-92675725D01*
X147951241Y-92714888D01*
X147958436Y-92726338D01*
X147981299Y-92769113D01*
X148022295Y-92819067D01*
X148061868Y-92870143D01*
X148098480Y-92901949D01*
X148108052Y-92911521D01*
X148139856Y-92948131D01*
X148190924Y-92987698D01*
X148240885Y-93028700D01*
X148283665Y-93051566D01*
X148295106Y-93058755D01*
X148334274Y-93087381D01*
X148392885Y-93114600D01*
X148450696Y-93143447D01*
X148497493Y-93156221D01*
X148510257Y-93160688D01*
X148554804Y-93179876D01*
X148617977Y-93193365D01*
X148680784Y-93208631D01*
X148729257Y-93210672D01*
X148742683Y-93212184D01*
X148790396Y-93220981D01*
X148855000Y-93220074D01*
X148919605Y-93220981D01*
X148967314Y-93212185D01*
X148980744Y-93210671D01*
X149029215Y-93208631D01*
X149092015Y-93193367D01*
X149155196Y-93179876D01*
X149199743Y-93160687D01*
X149212506Y-93156221D01*
X149259303Y-93143447D01*
X149317126Y-93114594D01*
X149375725Y-93087380D01*
X149414888Y-93058758D01*
X149426338Y-93051563D01*
X149469113Y-93028700D01*
X149519067Y-92987704D01*
X149570143Y-92948131D01*
X149601949Y-92911519D01*
X149611521Y-92901947D01*
X149648131Y-92870143D01*
X149687698Y-92819075D01*
X149728700Y-92769114D01*
X149751566Y-92726334D01*
X149758755Y-92714893D01*
X149787381Y-92675725D01*
X149814600Y-92617114D01*
X149843447Y-92559303D01*
X149856221Y-92512506D01*
X149860686Y-92499745D01*
X149879876Y-92455196D01*
X149893368Y-92392011D01*
X149908631Y-92329215D01*
X149910190Y-92292184D01*
X149915793Y-92235295D01*
X149917516Y-92220000D01*
X150811276Y-92220000D01*
X150722457Y-92434428D01*
X150671000Y-92693120D01*
X150671000Y-92956880D01*
X150722457Y-93215572D01*
X150823393Y-93459254D01*
X150969931Y-93678563D01*
X151156437Y-93865069D01*
X151375746Y-94011607D01*
X151619428Y-94112543D01*
X151878120Y-94164000D01*
X152141880Y-94164000D01*
X152400572Y-94112543D01*
X152644254Y-94011607D01*
X152863563Y-93865069D01*
X153050069Y-93678563D01*
X153196607Y-93459254D01*
X153207928Y-93431923D01*
X153207928Y-94799000D01*
X153220188Y-94923482D01*
X153256498Y-95043180D01*
X153315463Y-95153494D01*
X153394815Y-95250185D01*
X153491506Y-95329537D01*
X153601820Y-95388502D01*
X153721518Y-95424812D01*
X153846000Y-95437072D01*
X155254000Y-95437072D01*
X155378482Y-95424812D01*
X155498180Y-95388502D01*
X155608494Y-95329537D01*
X155705185Y-95250185D01*
X155784537Y-95153494D01*
X155843502Y-95043180D01*
X155879812Y-94923482D01*
X155892072Y-94799000D01*
X155892072Y-93391000D01*
X155879812Y-93266518D01*
X155843502Y-93146820D01*
X155784537Y-93036506D01*
X155705185Y-92939815D01*
X155608494Y-92860463D01*
X155498180Y-92801498D01*
X155378482Y-92765188D01*
X155254000Y-92752928D01*
X155156923Y-92752928D01*
X155184254Y-92741607D01*
X155403563Y-92595069D01*
X155590069Y-92408563D01*
X155736607Y-92189254D01*
X155837543Y-91945572D01*
X155889000Y-91686880D01*
X155889000Y-91423120D01*
X155837543Y-91164428D01*
X155736607Y-90920746D01*
X155590069Y-90701437D01*
X155403563Y-90514931D01*
X155184254Y-90368393D01*
X154982925Y-90285000D01*
X155184254Y-90201607D01*
X155403563Y-90055069D01*
X155590069Y-89868563D01*
X155736607Y-89649254D01*
X155837543Y-89405572D01*
X155889000Y-89146880D01*
X155889000Y-88883120D01*
X155837543Y-88624428D01*
X155736607Y-88380746D01*
X155590069Y-88161437D01*
X155403563Y-87974931D01*
X155184254Y-87828393D01*
X154982925Y-87745000D01*
X155184254Y-87661607D01*
X155403563Y-87515069D01*
X155590069Y-87328563D01*
X155736607Y-87109254D01*
X155837543Y-86865572D01*
X155889000Y-86606880D01*
X155889000Y-86343120D01*
X155837543Y-86084428D01*
X155736607Y-85840746D01*
X155694716Y-85778053D01*
X155672388Y-85736624D01*
X155645790Y-85691784D01*
X155574969Y-85582848D01*
X155552855Y-85551005D01*
X155483295Y-85457093D01*
X155473769Y-85444560D01*
X155412023Y-85365380D01*
X155369663Y-85308304D01*
X155348582Y-85274812D01*
X155338507Y-85253488D01*
X155329700Y-85225014D01*
X155320389Y-85168508D01*
X155315000Y-85055826D01*
X155315000Y-84126949D01*
X155318701Y-84089374D01*
X155315000Y-84051796D01*
X155303931Y-83939408D01*
X155264698Y-83810074D01*
X155260187Y-83795204D01*
X155217248Y-83714872D01*
X155189152Y-83662307D01*
X155093554Y-83545820D01*
X155064362Y-83521863D01*
X154720479Y-83177980D01*
X156751626Y-83177980D01*
X156871514Y-83462836D01*
X157195210Y-83623699D01*
X157544069Y-83718322D01*
X157904684Y-83743067D01*
X158263198Y-83696985D01*
X158605833Y-83581846D01*
X158701648Y-83530632D01*
X158665000Y-83714872D01*
X158665000Y-84155128D01*
X158750890Y-84586925D01*
X158919369Y-84993669D01*
X159163962Y-85359729D01*
X159475271Y-85671038D01*
X159841331Y-85915631D01*
X160248075Y-86084110D01*
X160679872Y-86170000D01*
X161120128Y-86170000D01*
X161551925Y-86084110D01*
X161958669Y-85915631D01*
X162324729Y-85671038D01*
X162636038Y-85359729D01*
X162880631Y-84993669D01*
X163049110Y-84586925D01*
X163135000Y-84155128D01*
X163135000Y-83714872D01*
X163049110Y-83283075D01*
X162880631Y-82876331D01*
X162636038Y-82510271D01*
X162324729Y-82198962D01*
X161958669Y-81954369D01*
X161551925Y-81785890D01*
X161120128Y-81700000D01*
X160679872Y-81700000D01*
X160248075Y-81785890D01*
X159841331Y-81954369D01*
X159678100Y-82063436D01*
X159693067Y-81845316D01*
X159646985Y-81486802D01*
X159531846Y-81144167D01*
X159412836Y-80921514D01*
X159127980Y-80801626D01*
X158029605Y-81900000D01*
X158043748Y-81914142D01*
X157864142Y-82093748D01*
X157850000Y-82079605D01*
X156751626Y-83177980D01*
X154720479Y-83177980D01*
X153928138Y-82385639D01*
X153904180Y-82356446D01*
X153787693Y-82260848D01*
X153654795Y-82189813D01*
X153510592Y-82146069D01*
X153398204Y-82135000D01*
X153398201Y-82135000D01*
X153360626Y-82131299D01*
X153323051Y-82135000D01*
X147977673Y-82135000D01*
X147941240Y-82066839D01*
X147858716Y-81966284D01*
X147844582Y-81954684D01*
X156006933Y-81954684D01*
X156053015Y-82313198D01*
X156168154Y-82655833D01*
X156287164Y-82878486D01*
X156572020Y-82998374D01*
X157670395Y-81900000D01*
X156572020Y-80801626D01*
X156287164Y-80921514D01*
X156126301Y-81245210D01*
X156031678Y-81594069D01*
X156006933Y-81954684D01*
X147844582Y-81954684D01*
X147758161Y-81883760D01*
X147643438Y-81822439D01*
X147518956Y-81784678D01*
X147389500Y-81771928D01*
X146680500Y-81771928D01*
X146551044Y-81784678D01*
X146426562Y-81822439D01*
X146311839Y-81883760D01*
X146211284Y-81966284D01*
X146200000Y-81980033D01*
X146188716Y-81966284D01*
X146088161Y-81883760D01*
X145973438Y-81822439D01*
X145848956Y-81784678D01*
X145719500Y-81771928D01*
X145010500Y-81771928D01*
X144881044Y-81784678D01*
X144756562Y-81822439D01*
X144641839Y-81883760D01*
X144541284Y-81966284D01*
X144458760Y-82066839D01*
X144422327Y-82135000D01*
X138847649Y-82135000D01*
X138810074Y-82131299D01*
X138772498Y-82135000D01*
X138772496Y-82135000D01*
X138660108Y-82146069D01*
X138515905Y-82189813D01*
X138383007Y-82260848D01*
X138266520Y-82356446D01*
X138242566Y-82385634D01*
X137385634Y-83242567D01*
X137356447Y-83266520D01*
X137332494Y-83295707D01*
X137332492Y-83295709D01*
X137260849Y-83383007D01*
X137189814Y-83515905D01*
X137146070Y-83660108D01*
X137131299Y-83810074D01*
X137135001Y-83847659D01*
X137135000Y-84931462D01*
X137134510Y-84931691D01*
X137033892Y-84975922D01*
X137009419Y-84987307D01*
X136898387Y-85041859D01*
X136844349Y-85071755D01*
X136820910Y-85086254D01*
X136815746Y-85088393D01*
X136794470Y-85102609D01*
X136732868Y-85140715D01*
X136673982Y-85183117D01*
X136596437Y-85234931D01*
X136409931Y-85421437D01*
X136263393Y-85640746D01*
X136162457Y-85884428D01*
X136111000Y-86143120D01*
X136111000Y-86406880D01*
X136162457Y-86665572D01*
X136263393Y-86909254D01*
X136409931Y-87128563D01*
X136596437Y-87315069D01*
X136815746Y-87461607D01*
X137017075Y-87545000D01*
X136815746Y-87628393D01*
X136596437Y-87774931D01*
X136409931Y-87961437D01*
X136263393Y-88180746D01*
X136162457Y-88424428D01*
X136111000Y-88683120D01*
X136111000Y-88946880D01*
X136162457Y-89205572D01*
X136263393Y-89449254D01*
X136409931Y-89668563D01*
X136596437Y-89855069D01*
X136815746Y-90001607D01*
X137017075Y-90085000D01*
X136815746Y-90168393D01*
X136596437Y-90314931D01*
X136409931Y-90501437D01*
X136263393Y-90720746D01*
X136162457Y-90964428D01*
X136111000Y-91223120D01*
X136111000Y-91486880D01*
X136162457Y-91745572D01*
X136263393Y-91989254D01*
X136409931Y-92208563D01*
X136596437Y-92395069D01*
X136815746Y-92541607D01*
X136843077Y-92552928D01*
X136746000Y-92552928D01*
X136621518Y-92565188D01*
X136501820Y-92601498D01*
X136391506Y-92660463D01*
X136294815Y-92739815D01*
X136215463Y-92836506D01*
X136156498Y-92946820D01*
X136120188Y-93066518D01*
X136107928Y-93191000D01*
X132168594Y-93191000D01*
X132158669Y-93184369D01*
X131751925Y-93015890D01*
X131320128Y-92930000D01*
X130879872Y-92930000D01*
X130448075Y-93015890D01*
X130041331Y-93184369D01*
X129675271Y-93428962D01*
X129363962Y-93740271D01*
X129119369Y-94106331D01*
X128950890Y-94513075D01*
X128865000Y-94944872D01*
X128660000Y-94944872D01*
X128660000Y-83514872D01*
X128865000Y-83514872D01*
X128865000Y-83955128D01*
X128950890Y-84386925D01*
X129119369Y-84793669D01*
X129363962Y-85159729D01*
X129675271Y-85471038D01*
X130041331Y-85715631D01*
X130448075Y-85884110D01*
X130879872Y-85970000D01*
X131320128Y-85970000D01*
X131751925Y-85884110D01*
X132158669Y-85715631D01*
X132524729Y-85471038D01*
X132836038Y-85159729D01*
X133080631Y-84793669D01*
X133249110Y-84386925D01*
X133335000Y-83955128D01*
X133335000Y-83514872D01*
X133297301Y-83325347D01*
X133495210Y-83423699D01*
X133844069Y-83518322D01*
X134204684Y-83543067D01*
X134563198Y-83496985D01*
X134905833Y-83381846D01*
X135128486Y-83262836D01*
X135248374Y-82977980D01*
X134150000Y-81879605D01*
X134135858Y-81893748D01*
X133956252Y-81714142D01*
X133970395Y-81700000D01*
X134329605Y-81700000D01*
X135427980Y-82798374D01*
X135712836Y-82678486D01*
X135873699Y-82354790D01*
X135968322Y-82005931D01*
X135993067Y-81645316D01*
X135946985Y-81286802D01*
X135831846Y-80944167D01*
X135712836Y-80721514D01*
X135476437Y-80622020D01*
X156751626Y-80622020D01*
X157850000Y-81720395D01*
X158948374Y-80622020D01*
X158828486Y-80337164D01*
X158504790Y-80176301D01*
X158155931Y-80081678D01*
X157795316Y-80056933D01*
X157436802Y-80103015D01*
X157094167Y-80218154D01*
X156871514Y-80337164D01*
X156751626Y-80622020D01*
X135476437Y-80622020D01*
X135427980Y-80601626D01*
X134329605Y-81700000D01*
X133970395Y-81700000D01*
X132872020Y-80601626D01*
X132587164Y-80721514D01*
X132426301Y-81045210D01*
X132331678Y-81394069D01*
X132306933Y-81754684D01*
X132320819Y-81862714D01*
X132158669Y-81754369D01*
X131751925Y-81585890D01*
X131320128Y-81500000D01*
X130879872Y-81500000D01*
X130448075Y-81585890D01*
X130041331Y-81754369D01*
X129675271Y-81998962D01*
X129363962Y-82310271D01*
X129119369Y-82676331D01*
X128950890Y-83083075D01*
X128865000Y-83514872D01*
X128660000Y-83514872D01*
X128660000Y-80422020D01*
X133051626Y-80422020D01*
X134150000Y-81520395D01*
X135248374Y-80422020D01*
X135128486Y-80137164D01*
X134804790Y-79976301D01*
X134455931Y-79881678D01*
X134095316Y-79856933D01*
X133736802Y-79903015D01*
X133394167Y-80018154D01*
X133171514Y-80137164D01*
X133051626Y-80422020D01*
X128660000Y-80422020D01*
X128660000Y-80032279D01*
X128669580Y-79934576D01*
X128688580Y-79871644D01*
X128719445Y-79813595D01*
X128760989Y-79762657D01*
X128811644Y-79720752D01*
X128869471Y-79689485D01*
X128932272Y-79670044D01*
X129027835Y-79660000D01*
X162967721Y-79660000D01*
X163065424Y-79669580D01*
D18*
G36*
X154872977Y-91592782D02*
G01*
X153860231Y-91620850D01*
X153839578Y-91539649D01*
X153838731Y-91537307D01*
X153838013Y-91536005D01*
X153795388Y-91468401D01*
X153793034Y-91465640D01*
X153735765Y-91415252D01*
X153733808Y-91413836D01*
X153666723Y-91374435D01*
X153665792Y-91373939D01*
X153593791Y-91339338D01*
X153522288Y-91303601D01*
X153456404Y-91260904D01*
X153400503Y-91205366D01*
X153358463Y-91130600D01*
X153337528Y-91042045D01*
X153570612Y-91015782D01*
X153590848Y-91096782D01*
X153591685Y-91099127D01*
X153593258Y-91101646D01*
X153634670Y-91153325D01*
X153636410Y-91155106D01*
X153638464Y-91156513D01*
X153640781Y-91157501D01*
X153698129Y-91175483D01*
X153700566Y-91175992D01*
X153703585Y-91175957D01*
X153774325Y-91166654D01*
X153777074Y-91165973D01*
X153858660Y-91135799D01*
X153859903Y-91135263D01*
X153949791Y-91090629D01*
X153950270Y-91090378D01*
X154045904Y-91037703D01*
X154144549Y-90983505D01*
X154243331Y-90934337D01*
X154331646Y-90899655D01*
X154872977Y-91592782D01*
X154872977Y-91592782D01*
G37*
X154872977Y-91592782D02*
X153860231Y-91620850D01*
X153839578Y-91539649D01*
X153838731Y-91537307D01*
X153838013Y-91536005D01*
X153795388Y-91468401D01*
X153793034Y-91465640D01*
X153735765Y-91415252D01*
X153733808Y-91413836D01*
X153666723Y-91374435D01*
X153665792Y-91373939D01*
X153593791Y-91339338D01*
X153522288Y-91303601D01*
X153456404Y-91260904D01*
X153400503Y-91205366D01*
X153358463Y-91130600D01*
X153337528Y-91042045D01*
X153570612Y-91015782D01*
X153590848Y-91096782D01*
X153591685Y-91099127D01*
X153593258Y-91101646D01*
X153634670Y-91153325D01*
X153636410Y-91155106D01*
X153638464Y-91156513D01*
X153640781Y-91157501D01*
X153698129Y-91175483D01*
X153700566Y-91175992D01*
X153703585Y-91175957D01*
X153774325Y-91166654D01*
X153777074Y-91165973D01*
X153858660Y-91135799D01*
X153859903Y-91135263D01*
X153949791Y-91090629D01*
X153950270Y-91090378D01*
X154045904Y-91037703D01*
X154144549Y-90983505D01*
X154243331Y-90934337D01*
X154331646Y-90899655D01*
X154872977Y-91592782D01*
G36*
X138164215Y-91365851D02*
G01*
X138165185Y-91368144D01*
X138167145Y-91370833D01*
X138219750Y-91426053D01*
X138221635Y-91427678D01*
X138223712Y-91428865D01*
X138295736Y-91461435D01*
X138298345Y-91462289D01*
X138383370Y-91480245D01*
X138384429Y-91480422D01*
X138475909Y-91491780D01*
X138566880Y-91504497D01*
X138650167Y-91526229D01*
X138719479Y-91564132D01*
X138769993Y-91625582D01*
X138793394Y-91707596D01*
X138560980Y-91733785D01*
X138536679Y-91636747D01*
X138535840Y-91634403D01*
X138534560Y-91632267D01*
X138533741Y-91631272D01*
X138485783Y-91578705D01*
X138483933Y-91577040D01*
X138481793Y-91575767D01*
X138479447Y-91574936D01*
X138477687Y-91574630D01*
X138411487Y-91567894D01*
X138408997Y-91567886D01*
X138405866Y-91568592D01*
X138324140Y-91598271D01*
X138321945Y-91599316D01*
X138227409Y-91655993D01*
X138226589Y-91656528D01*
X138121960Y-91730784D01*
X138121783Y-91730912D01*
X138009910Y-91813233D01*
X137893749Y-91894046D01*
X137776261Y-91963872D01*
X137668169Y-92010108D01*
X137127023Y-91317218D01*
X138140309Y-91289133D01*
X138164215Y-91365851D01*
X138164215Y-91365851D01*
G37*
X138164215Y-91365851D02*
X138165185Y-91368144D01*
X138167145Y-91370833D01*
X138219750Y-91426053D01*
X138221635Y-91427678D01*
X138223712Y-91428865D01*
X138295736Y-91461435D01*
X138298345Y-91462289D01*
X138383370Y-91480245D01*
X138384429Y-91480422D01*
X138475909Y-91491780D01*
X138566880Y-91504497D01*
X138650167Y-91526229D01*
X138719479Y-91564132D01*
X138769993Y-91625582D01*
X138793394Y-91707596D01*
X138560980Y-91733785D01*
X138536679Y-91636747D01*
X138535840Y-91634403D01*
X138534560Y-91632267D01*
X138533741Y-91631272D01*
X138485783Y-91578705D01*
X138483933Y-91577040D01*
X138481793Y-91575767D01*
X138479447Y-91574936D01*
X138477687Y-91574630D01*
X138411487Y-91567894D01*
X138408997Y-91567886D01*
X138405866Y-91568592D01*
X138324140Y-91598271D01*
X138321945Y-91599316D01*
X138227409Y-91655993D01*
X138226589Y-91656528D01*
X138121960Y-91730784D01*
X138121783Y-91730912D01*
X138009910Y-91813233D01*
X137893749Y-91894046D01*
X137776261Y-91963872D01*
X137668169Y-92010108D01*
X137127023Y-91317218D01*
X138140309Y-91289133D01*
X138164215Y-91365851D01*
G36*
X140682813Y-87556598D02*
G01*
X140696432Y-87652843D01*
X140697021Y-87655262D01*
X140697647Y-87656742D01*
X140738383Y-87738239D01*
X140740515Y-87741286D01*
X140800547Y-87804780D01*
X140802395Y-87806391D01*
X140875291Y-87858443D01*
X140876180Y-87859023D01*
X140955410Y-87906139D01*
X141034063Y-87954583D01*
X141105333Y-88010416D01*
X141163342Y-88079912D01*
X141202614Y-88169851D01*
X141215631Y-88274990D01*
X140981153Y-88274990D01*
X140968226Y-88175797D01*
X140967663Y-88173371D01*
X140966595Y-88171027D01*
X140925951Y-88101527D01*
X140924490Y-88099511D01*
X140922663Y-88097819D01*
X140921167Y-88096843D01*
X140857928Y-88061625D01*
X140855645Y-88060632D01*
X140852890Y-88060071D01*
X140770741Y-88052661D01*
X140767802Y-88052738D01*
X140670429Y-88066666D01*
X140668981Y-88066960D01*
X140560066Y-88095754D01*
X140559458Y-88095931D01*
X140442685Y-88133119D01*
X140442631Y-88133136D01*
X140321901Y-88172178D01*
X140201180Y-88206537D01*
X140092684Y-88228138D01*
X139677726Y-87451288D01*
X140682813Y-87556598D01*
X140682813Y-87556598D01*
G37*
X140682813Y-87556598D02*
X140696432Y-87652843D01*
X140697021Y-87655262D01*
X140697647Y-87656742D01*
X140738383Y-87738239D01*
X140740515Y-87741286D01*
X140800547Y-87804780D01*
X140802395Y-87806391D01*
X140875291Y-87858443D01*
X140876180Y-87859023D01*
X140955410Y-87906139D01*
X141034063Y-87954583D01*
X141105333Y-88010416D01*
X141163342Y-88079912D01*
X141202614Y-88169851D01*
X141215631Y-88274990D01*
X140981153Y-88274990D01*
X140968226Y-88175797D01*
X140967663Y-88173371D01*
X140966595Y-88171027D01*
X140925951Y-88101527D01*
X140924490Y-88099511D01*
X140922663Y-88097819D01*
X140921167Y-88096843D01*
X140857928Y-88061625D01*
X140855645Y-88060632D01*
X140852890Y-88060071D01*
X140770741Y-88052661D01*
X140767802Y-88052738D01*
X140670429Y-88066666D01*
X140668981Y-88066960D01*
X140560066Y-88095754D01*
X140559458Y-88095931D01*
X140442685Y-88133119D01*
X140442631Y-88133136D01*
X140321901Y-88172178D01*
X140201180Y-88206537D01*
X140092684Y-88228138D01*
X139677726Y-87451288D01*
X140682813Y-87556598D01*
G36*
X151700980Y-88363052D02*
G01*
X151624480Y-88322190D01*
X151535236Y-88268989D01*
X151444488Y-88213301D01*
X151444305Y-88213190D01*
X151355205Y-88160559D01*
X151354623Y-88160236D01*
X151270496Y-88116316D01*
X151269235Y-88115743D01*
X151193263Y-88086102D01*
X151190550Y-88085376D01*
X151125918Y-88075582D01*
X151123432Y-88075452D01*
X151120235Y-88076015D01*
X151070127Y-88091636D01*
X151067834Y-88092606D01*
X151065775Y-88094005D01*
X151063479Y-88096511D01*
X151031079Y-88143116D01*
X151029865Y-88145289D01*
X151028927Y-88148624D01*
X151018936Y-88220822D01*
X150784908Y-88220822D01*
X150797146Y-88144823D01*
X150835327Y-88082676D01*
X150892251Y-88039251D01*
X150963056Y-88008480D01*
X151041588Y-87984766D01*
X151120811Y-87962176D01*
X151121836Y-87961836D01*
X151194731Y-87934159D01*
X151197157Y-87932926D01*
X151257190Y-87893800D01*
X151259133Y-87892242D01*
X151260586Y-87890547D01*
X151301322Y-87833582D01*
X151302565Y-87831425D01*
X151303480Y-87828503D01*
X151316567Y-87757700D01*
X152330472Y-87757700D01*
X151700980Y-88363052D01*
X151700980Y-88363052D01*
G37*
X151700980Y-88363052D02*
X151624480Y-88322190D01*
X151535236Y-88268989D01*
X151444488Y-88213301D01*
X151444305Y-88213190D01*
X151355205Y-88160559D01*
X151354623Y-88160236D01*
X151270496Y-88116316D01*
X151269235Y-88115743D01*
X151193263Y-88086102D01*
X151190550Y-88085376D01*
X151125918Y-88075582D01*
X151123432Y-88075452D01*
X151120235Y-88076015D01*
X151070127Y-88091636D01*
X151067834Y-88092606D01*
X151065775Y-88094005D01*
X151063479Y-88096511D01*
X151031079Y-88143116D01*
X151029865Y-88145289D01*
X151028927Y-88148624D01*
X151018936Y-88220822D01*
X150784908Y-88220822D01*
X150797146Y-88144823D01*
X150835327Y-88082676D01*
X150892251Y-88039251D01*
X150963056Y-88008480D01*
X151041588Y-87984766D01*
X151120811Y-87962176D01*
X151121836Y-87961836D01*
X151194731Y-87934159D01*
X151197157Y-87932926D01*
X151257190Y-87893800D01*
X151259133Y-87892242D01*
X151260586Y-87890547D01*
X151301322Y-87833582D01*
X151302565Y-87831425D01*
X151303480Y-87828503D01*
X151316567Y-87757700D01*
X152330472Y-87757700D01*
X151700980Y-88363052D01*
G36*
X154675182Y-85236132D02*
G01*
X154675337Y-85237590D01*
X154697683Y-85373193D01*
X154698081Y-85374880D01*
X154733017Y-85487839D01*
X154733667Y-85489512D01*
X154779304Y-85586106D01*
X154780039Y-85587446D01*
X154834489Y-85673951D01*
X154835039Y-85674755D01*
X154896415Y-85757452D01*
X154896598Y-85757693D01*
X154962929Y-85842753D01*
X155032144Y-85936199D01*
X155102474Y-86044380D01*
X155168026Y-86166007D01*
X154550000Y-86808678D01*
X153931974Y-86166007D01*
X153997525Y-86044380D01*
X154067855Y-85936199D01*
X154137070Y-85842753D01*
X154203401Y-85757693D01*
X154203584Y-85757452D01*
X154264960Y-85674755D01*
X154265510Y-85673951D01*
X154319960Y-85587446D01*
X154320695Y-85586106D01*
X154366332Y-85489512D01*
X154366982Y-85487839D01*
X154401918Y-85374880D01*
X154402316Y-85373193D01*
X154424662Y-85237590D01*
X154424816Y-85236132D01*
X154432107Y-85083700D01*
X154667892Y-85083700D01*
X154675182Y-85236132D01*
X154675182Y-85236132D01*
G37*
X154675182Y-85236132D02*
X154675337Y-85237590D01*
X154697683Y-85373193D01*
X154698081Y-85374880D01*
X154733017Y-85487839D01*
X154733667Y-85489512D01*
X154779304Y-85586106D01*
X154780039Y-85587446D01*
X154834489Y-85673951D01*
X154835039Y-85674755D01*
X154896415Y-85757452D01*
X154896598Y-85757693D01*
X154962929Y-85842753D01*
X155032144Y-85936199D01*
X155102474Y-86044380D01*
X155168026Y-86166007D01*
X154550000Y-86808678D01*
X153931974Y-86166007D01*
X153997525Y-86044380D01*
X154067855Y-85936199D01*
X154137070Y-85842753D01*
X154203401Y-85757693D01*
X154203584Y-85757452D01*
X154264960Y-85674755D01*
X154265510Y-85673951D01*
X154319960Y-85587446D01*
X154320695Y-85586106D01*
X154366332Y-85489512D01*
X154366982Y-85487839D01*
X154401918Y-85374880D01*
X154402316Y-85373193D01*
X154424662Y-85237590D01*
X154424816Y-85236132D01*
X154432107Y-85083700D01*
X154667892Y-85083700D01*
X154675182Y-85236132D01*
G36*
X138019167Y-85159736D02*
G01*
X138019175Y-85160071D01*
X138024477Y-85301069D01*
X138024498Y-85301462D01*
X138032795Y-85422229D01*
X138032830Y-85422646D01*
X138043678Y-85529152D01*
X138043722Y-85529526D01*
X138056678Y-85627739D01*
X138056714Y-85627992D01*
X138071335Y-85723883D01*
X138071348Y-85723965D01*
X138087179Y-85823418D01*
X138103786Y-85932470D01*
X138120711Y-86056947D01*
X138136531Y-86194260D01*
X137336616Y-86588822D01*
X136973889Y-85774705D01*
X137074359Y-85691078D01*
X137184557Y-85622912D01*
X137294801Y-85568747D01*
X137401748Y-85521734D01*
X137402009Y-85521616D01*
X137501998Y-85474936D01*
X137503122Y-85474341D01*
X137592517Y-85421127D01*
X137594437Y-85419725D01*
X137669854Y-85352995D01*
X137672010Y-85350521D01*
X137730067Y-85263295D01*
X137731572Y-85260187D01*
X137768887Y-85145485D01*
X137769461Y-85142675D01*
X137781627Y-85005097D01*
X138017441Y-85005097D01*
X138019167Y-85159736D01*
X138019167Y-85159736D01*
G37*
X138019167Y-85159736D02*
X138019175Y-85160071D01*
X138024477Y-85301069D01*
X138024498Y-85301462D01*
X138032795Y-85422229D01*
X138032830Y-85422646D01*
X138043678Y-85529152D01*
X138043722Y-85529526D01*
X138056678Y-85627739D01*
X138056714Y-85627992D01*
X138071335Y-85723883D01*
X138071348Y-85723965D01*
X138087179Y-85823418D01*
X138103786Y-85932470D01*
X138120711Y-86056947D01*
X138136531Y-86194260D01*
X137336616Y-86588822D01*
X136973889Y-85774705D01*
X137074359Y-85691078D01*
X137184557Y-85622912D01*
X137294801Y-85568747D01*
X137401748Y-85521734D01*
X137402009Y-85521616D01*
X137501998Y-85474936D01*
X137503122Y-85474341D01*
X137592517Y-85421127D01*
X137594437Y-85419725D01*
X137669854Y-85352995D01*
X137672010Y-85350521D01*
X137730067Y-85263295D01*
X137731572Y-85260187D01*
X137768887Y-85145485D01*
X137769461Y-85142675D01*
X137781627Y-85005097D01*
X138017441Y-85005097D01*
X138019167Y-85159736D01*
G36*
X140284075Y-84862932D02*
G01*
X139492162Y-85486664D01*
X139414085Y-85425715D01*
X139411038Y-85423955D01*
X139325029Y-85389113D01*
X139321861Y-85388285D01*
X139235491Y-85377318D01*
X139233228Y-85377234D01*
X139146216Y-85381783D01*
X139145203Y-85381877D01*
X139057375Y-85393569D01*
X138968993Y-85403984D01*
X138880287Y-85404907D01*
X138790663Y-85388438D01*
X138699122Y-85346502D01*
X138614629Y-85278472D01*
X138780569Y-85112532D01*
X138857696Y-85172179D01*
X138859805Y-85173502D01*
X138862000Y-85174351D01*
X138938998Y-85196189D01*
X138941448Y-85196630D01*
X138943937Y-85196585D01*
X138945318Y-85196346D01*
X139015110Y-85180245D01*
X139017469Y-85179450D01*
X139019780Y-85178101D01*
X139084132Y-85130769D01*
X139086310Y-85128732D01*
X139146988Y-85056880D01*
X139147907Y-85055648D01*
X139206679Y-84965985D01*
X139207034Y-84965410D01*
X139265665Y-84864644D01*
X139265707Y-84864571D01*
X139325852Y-84759609D01*
X139389133Y-84657364D01*
X139452085Y-84571535D01*
X140284075Y-84862932D01*
X140284075Y-84862932D01*
G37*
X140284075Y-84862932D02*
X139492162Y-85486664D01*
X139414085Y-85425715D01*
X139411038Y-85423955D01*
X139325029Y-85389113D01*
X139321861Y-85388285D01*
X139235491Y-85377318D01*
X139233228Y-85377234D01*
X139146216Y-85381783D01*
X139145203Y-85381877D01*
X139057375Y-85393569D01*
X138968993Y-85403984D01*
X138880287Y-85404907D01*
X138790663Y-85388438D01*
X138699122Y-85346502D01*
X138614629Y-85278472D01*
X138780569Y-85112532D01*
X138857696Y-85172179D01*
X138859805Y-85173502D01*
X138862000Y-85174351D01*
X138938998Y-85196189D01*
X138941448Y-85196630D01*
X138943937Y-85196585D01*
X138945318Y-85196346D01*
X139015110Y-85180245D01*
X139017469Y-85179450D01*
X139019780Y-85178101D01*
X139084132Y-85130769D01*
X139086310Y-85128732D01*
X139146988Y-85056880D01*
X139147907Y-85055648D01*
X139206679Y-84965985D01*
X139207034Y-84965410D01*
X139265665Y-84864644D01*
X139265707Y-84864571D01*
X139325852Y-84759609D01*
X139389133Y-84657364D01*
X139452085Y-84571535D01*
X140284075Y-84862932D01*
G36*
X152440619Y-84652525D02*
G01*
X152548800Y-84722855D01*
X152642246Y-84792070D01*
X152727306Y-84858401D01*
X152727547Y-84858584D01*
X152810244Y-84919960D01*
X152811048Y-84920510D01*
X152897553Y-84974960D01*
X152898893Y-84975695D01*
X152995487Y-85021332D01*
X152997160Y-85021982D01*
X153110119Y-85056918D01*
X153111806Y-85057316D01*
X153247409Y-85079662D01*
X153248867Y-85079816D01*
X153401300Y-85087107D01*
X153401300Y-85322892D01*
X153248867Y-85330182D01*
X153247409Y-85330337D01*
X153111806Y-85352683D01*
X153110119Y-85353081D01*
X152997160Y-85388017D01*
X152995487Y-85388667D01*
X152898893Y-85434304D01*
X152897553Y-85435039D01*
X152811048Y-85489489D01*
X152810244Y-85490039D01*
X152727547Y-85551415D01*
X152727306Y-85551598D01*
X152642246Y-85617929D01*
X152548800Y-85687144D01*
X152440619Y-85757474D01*
X152318993Y-85823026D01*
X151676322Y-85205000D01*
X152318993Y-84586974D01*
X152440619Y-84652525D01*
X152440619Y-84652525D01*
G37*
X152440619Y-84652525D02*
X152548800Y-84722855D01*
X152642246Y-84792070D01*
X152727306Y-84858401D01*
X152727547Y-84858584D01*
X152810244Y-84919960D01*
X152811048Y-84920510D01*
X152897553Y-84974960D01*
X152898893Y-84975695D01*
X152995487Y-85021332D01*
X152997160Y-85021982D01*
X153110119Y-85056918D01*
X153111806Y-85057316D01*
X153247409Y-85079662D01*
X153248867Y-85079816D01*
X153401300Y-85087107D01*
X153401300Y-85322892D01*
X153248867Y-85330182D01*
X153247409Y-85330337D01*
X153111806Y-85352683D01*
X153110119Y-85353081D01*
X152997160Y-85388017D01*
X152995487Y-85388667D01*
X152898893Y-85434304D01*
X152897553Y-85435039D01*
X152811048Y-85489489D01*
X152810244Y-85490039D01*
X152727547Y-85551415D01*
X152727306Y-85551598D01*
X152642246Y-85617929D01*
X152548800Y-85687144D01*
X152440619Y-85757474D01*
X152318993Y-85823026D01*
X151676322Y-85205000D01*
X152318993Y-84586974D01*
X152440619Y-84652525D01*
M02*
