M48
; DRILL file {KiCad (5.1.2)-1} date 2024/05/04 1:05:50
; FORMAT={-:-/ absolute / metric / decimal}
; #@! TF.CreationDate,2024-05-04T01:05:50+09:00
; #@! TF.GenerationSoftware,Kicad,Pcbnew,(5.1.2)-1
FMAT,2
METRIC
T1C0.400
T2C0.900
T3C1.600
T4C3.200
%
G90
G05
T1
X134.21Y-87.11
X134.21Y-91.5
X140.46Y-97.98
X140.8Y-81.09
X146.06Y-98.09
X146.23Y-81.11
X151.14Y-81.2
X151.35Y-98.02
X158.34Y-87.35
X158.35Y-91.56
T2
X137.45Y-86.275
X137.45Y-88.815
X137.45Y-91.355
X137.45Y-93.895
X139.99Y-85.005
X139.99Y-87.545
X139.99Y-90.085
X139.99Y-92.625
X152.01Y-85.205
X152.01Y-87.745
X152.01Y-90.285
X152.01Y-92.825
X154.55Y-86.475
X154.55Y-89.015
X154.55Y-91.555
X154.55Y-94.095
T3
X134.15Y-81.7
X134.15Y-97.2
X157.85Y-81.9
X157.85Y-97.4
T4
X131.1Y-83.735
X131.1Y-95.165
X160.9Y-83.935
X160.9Y-95.365
T0
M30
